<?plantuml 1.2026.2?><svg xmlns="http://www.w3.org/2000/svg" xmlns:xlink="http://www.w3.org/1999/xlink" contentStyleType="text/css" data-diagram-type="DESCRIPTION" height="645px" preserveAspectRatio="none" style="width:2179px;height:645px;background:#FFFFFF;" version="1.1" viewBox="0 0 2179 645" width="2179px" zoomAndPan="magnify"><title>User Dashboard - Normal and Strict Modes</title><defs/><g><g class="title" data-source-line="575"><text fill="#000000" font-family="sans-serif" font-size="14" font-weight="bold" lengthAdjust="spacing" textLength="297.0508" x="933.9746" y="24.9659">User Dashboard - Normal and Strict Modes</text></g><!--cluster User Dashboard--><g class="cluster" data-qualified-name="User Dashboard" data-source-line="577" id="ent0002"><path d="M8.5,46.6699 L121.2196,46.6699 A3.75,3.75 0 0 1 123.7196,49.1699 L130.7196,71.7378 L2169.5,71.7378 A2.5,2.5 0 0 1 2172,74.2378 L2172,636.4399 A2.5,2.5 0 0 1 2169.5,638.9399 L8.5,638.9399 A2.5,2.5 0 0 1 6,636.4399 L6,49.1699 A2.5,2.5 0 0 1 8.5,46.6699" fill="none" style="stroke:#000000;stroke-width:1.5;"/><line style="stroke:#000000;stroke-width:1.5;" x1="6" x2="130.7196" y1="71.7378" y2="71.7378"/><text fill="#000000" font-family="sans-serif" font-size="14" font-weight="bold" lengthAdjust="spacing" textLength="111.7196" x="10" y="63.6358">User Dashboard</text></g><!--cluster home--><g class="cluster" data-qualified-name="User Dashboard.home" data-source-line="578" id="ent0003"><rect fill="none" height="238.13" rx="2.5" ry="2.5" style="stroke:#181818;stroke-width:1;" width="398" x="38" y="100.6699"/><text fill="#000000" font-family="sans-serif" font-size="14" font-weight="bold" lengthAdjust="spacing" textLength="83.8177" x="195.0912" y="117.6358">Home Panel</text></g><!--cluster case_panel--><g class="cluster" data-qualified-name="User Dashboard.case_panel" data-source-line="585" id="ent0008"><rect fill="none" height="278.13" rx="2.5" ry="2.5" style="stroke:#181818;stroke-width:1;" width="477" x="476" y="219.7399"/><text fill="#000000" font-family="sans-serif" font-size="14" font-weight="bold" lengthAdjust="spacing" textLength="75.1097" x="676.9451" y="236.7058">Case Panel</text></g><!--cluster next_steps--><g class="cluster" data-qualified-name="User Dashboard.next_steps" data-source-line="593" id="ent0014"><rect fill="none" height="278.13" rx="2.5" ry="2.5" style="stroke:#181818;stroke-width:1;" width="417" x="1356" y="219.7399"/><text fill="#000000" font-family="sans-serif" font-size="14" font-weight="bold" lengthAdjust="spacing" textLength="110.8936" x="1509.0532" y="236.7058">Next Step Panel</text></g><!--cluster evidence_panel--><g class="cluster" data-qualified-name="User Dashboard.evidence_panel" data-source-line="601" id="ent0020"><rect fill="none" height="228.14" rx="2.5" ry="2.5" style="stroke:#181818;stroke-width:1;" width="331" x="105" y="378.7999"/><text fill="#000000" font-family="sans-serif" font-size="14" font-weight="bold" lengthAdjust="spacing" textLength="104.2576" x="218.3712" y="395.7658">Evidence Panel</text></g><!--cluster privacy_panel--><g class="cluster" data-qualified-name="User Dashboard.privacy_panel" data-source-line="608" id="ent0025"><rect fill="none" height="228.14" rx="2.5" ry="2.5" style="stroke:#181818;stroke-width:1;" width="327" x="1813" y="378.7999"/><text fill="#000000" font-family="sans-serif" font-size="14" font-weight="bold" lengthAdjust="spacing" textLength="93.0857" x="1929.9572" y="395.7658">Privacy Panel</text></g><!--cluster strict_panel--><g class="cluster" data-qualified-name="User Dashboard.strict_panel" data-source-line="614" id="ent0029"><rect fill="none" height="228.14" rx="2.5" ry="2.5" style="stroke:#181818;stroke-width:1;" width="323" x="993" y="378.7999"/><text fill="#000000" font-family="sans-serif" font-size="14" font-weight="bold" lengthAdjust="spacing" textLength="122.6815" x="1093.1592" y="395.7658">Strict Mode Panel</text></g><!--entity What this looks like--><g class="entity" data-qualified-name="User Dashboard.home.What this looks like" data-source-line="579" id="ent0004"><rect fill="#F1F1F1" height="49.0679" rx="2.5" ry="2.5" style="stroke:#181818;stroke-width:0.5;" width="166.8535" x="61.57" y="146.6699"/><rect fill="#F1F1F1" height="10" style="stroke:#181818;stroke-width:0.5;" width="15" x="208.4235" y="151.6699"/><rect fill="#F1F1F1" height="2" style="stroke:#181818;stroke-width:0.5;" width="4" x="206.4235" y="153.6699"/><rect fill="#F1F1F1" height="2" style="stroke:#181818;stroke-width:0.5;" width="4" x="206.4235" y="157.6699"/><text fill="#000000" font-family="sans-serif" font-size="14" lengthAdjust="spacing" textLength="126.8535" x="76.57" y="181.6358">What this looks like</text></g><!--entity What matters--><g class="entity" data-qualified-name="User Dashboard.home.What matters" data-source-line="580" id="ent0005"><rect fill="#F1F1F1" height="49.0679" rx="2.5" ry="2.5" style="stroke:#181818;stroke-width:0.5;" width="129.6557" x="263.17" y="146.6699"/><rect fill="#F1F1F1" height="10" style="stroke:#181818;stroke-width:0.5;" width="15" x="372.8257" y="151.6699"/><rect fill="#F1F1F1" height="2" style="stroke:#181818;stroke-width:0.5;" width="4" x="370.8257" y="153.6699"/><rect fill="#F1F1F1" height="2" style="stroke:#181818;stroke-width:0.5;" width="4" x="370.8257" y="157.6699"/><text fill="#000000" font-family="sans-serif" font-size="14" lengthAdjust="spacing" textLength="89.6557" x="278.17" y="181.6358">What matters</text></g><!--entity What to do next--><g class="entity" data-qualified-name="User Dashboard.home.What to do next" data-source-line="581" id="ent0006"><rect fill="#F1F1F1" height="49.0679" rx="2.5" ry="2.5" style="stroke:#181818;stroke-width:0.5;" width="145.1116" x="76.44" y="265.7399"/><rect fill="#F1F1F1" height="10" style="stroke:#181818;stroke-width:0.5;" width="15" x="201.5516" y="270.7399"/><rect fill="#F1F1F1" height="2" style="stroke:#181818;stroke-width:0.5;" width="4" x="199.5516" y="272.7399"/><rect fill="#F1F1F1" height="2" style="stroke:#181818;stroke-width:0.5;" width="4" x="199.5516" y="276.7399"/><text fill="#000000" font-family="sans-serif" font-size="14" lengthAdjust="spacing" textLength="105.1116" x="91.44" y="300.7058">What to do next</text></g><!--entity Current mode--><g class="entity" data-qualified-name="User Dashboard.home.Current mode" data-source-line="582" id="ent0007"><rect fill="#F1F1F1" height="49.0679" rx="2.5" ry="2.5" style="stroke:#181818;stroke-width:0.5;" width="132.3716" x="256.81" y="265.7399"/><rect fill="#F1F1F1" height="10" style="stroke:#181818;stroke-width:0.5;" width="15" x="369.1816" y="270.7399"/><rect fill="#F1F1F1" height="2" style="stroke:#181818;stroke-width:0.5;" width="4" x="367.1816" y="272.7399"/><rect fill="#F1F1F1" height="2" style="stroke:#181818;stroke-width:0.5;" width="4" x="367.1816" y="276.7399"/><text fill="#000000" font-family="sans-serif" font-size="14" lengthAdjust="spacing" textLength="92.3716" x="271.81" y="300.7058">Current mode</text></g><!--entity Summary--><g class="entity" data-qualified-name="User Dashboard.case_panel.Summary" data-source-line="586" id="ent0009"><rect fill="#F1F1F1" height="49.0679" rx="2.5" ry="2.5" style="stroke:#181818;stroke-width:0.5;" width="103.2938" x="500.35" y="265.7399"/><rect fill="#F1F1F1" height="10" style="stroke:#181818;stroke-width:0.5;" width="15" x="583.6438" y="270.7399"/><rect fill="#F1F1F1" height="2" style="stroke:#181818;stroke-width:0.5;" width="4" x="581.6438" y="272.7399"/><rect fill="#F1F1F1" height="2" style="stroke:#181818;stroke-width:0.5;" width="4" x="581.6438" y="276.7399"/><text fill="#000000" font-family="sans-serif" font-size="14" lengthAdjust="spacing" textLength="63.2938" x="515.35" y="300.7058">Summary</text></g><!--entity Timeline--><g class="entity" data-qualified-name="User Dashboard.case_panel.Timeline" data-source-line="587" id="ent0010"><rect fill="#F1F1F1" height="49.0679" rx="2.5" ry="2.5" style="stroke:#181818;stroke-width:0.5;" width="96.1538" x="638.92" y="265.7399"/><rect fill="#F1F1F1" height="10" style="stroke:#181818;stroke-width:0.5;" width="15" x="715.0738" y="270.7399"/><rect fill="#F1F1F1" height="2" style="stroke:#181818;stroke-width:0.5;" width="4" x="713.0738" y="272.7399"/><rect fill="#F1F1F1" height="2" style="stroke:#181818;stroke-width:0.5;" width="4" x="713.0738" y="276.7399"/><text fill="#000000" font-family="sans-serif" font-size="14" lengthAdjust="spacing" textLength="56.1538" x="653.92" y="300.7058">Timeline</text></g><!--entity Evidence count--><g class="entity" data-qualified-name="User Dashboard.case_panel.Evidence count" data-source-line="588" id="ent0011"><rect fill="#F1F1F1" height="49.0679" rx="2.5" ry="2.5" style="stroke:#181818;stroke-width:0.5;" width="139.4696" x="770.27" y="265.7399"/><rect fill="#F1F1F1" height="10" style="stroke:#181818;stroke-width:0.5;" width="15" x="889.7396" y="270.7399"/><rect fill="#F1F1F1" height="2" style="stroke:#181818;stroke-width:0.5;" width="4" x="887.7396" y="272.7399"/><rect fill="#F1F1F1" height="2" style="stroke:#181818;stroke-width:0.5;" width="4" x="887.7396" y="276.7399"/><text fill="#000000" font-family="sans-serif" font-size="14" lengthAdjust="spacing" textLength="99.4696" x="785.27" y="300.7058">Evidence count</text></g><!--entity Open questions--><g class="entity" data-qualified-name="User Dashboard.case_panel.Open questions" data-source-line="589" id="ent0012"><rect fill="#F1F1F1" height="49.0679" rx="2.5" ry="2.5" style="stroke:#181818;stroke-width:0.5;" width="144.0896" x="499.96" y="424.7999"/><rect fill="#F1F1F1" height="10" style="stroke:#181818;stroke-width:0.5;" width="15" x="624.0496" y="429.7999"/><rect fill="#F1F1F1" height="2" style="stroke:#181818;stroke-width:0.5;" width="4" x="622.0496" y="431.7999"/><rect fill="#F1F1F1" height="2" style="stroke:#181818;stroke-width:0.5;" width="4" x="622.0496" y="435.7999"/><text fill="#000000" font-family="sans-serif" font-size="14" lengthAdjust="spacing" textLength="104.0896" x="514.96" y="459.7658">Open questions</text></g><!--entity Trust notes--><g class="entity" data-qualified-name="User Dashboard.case_panel.Trust notes" data-source-line="590" id="ent0013"><rect fill="#F1F1F1" height="49.0679" rx="2.5" ry="2.5" style="stroke:#181818;stroke-width:0.5;" width="114.3957" x="678.8" y="424.7999"/><rect fill="#F1F1F1" height="10" style="stroke:#181818;stroke-width:0.5;" width="15" x="773.1957" y="429.7999"/><rect fill="#F1F1F1" height="2" style="stroke:#181818;stroke-width:0.5;" width="4" x="771.1957" y="431.7999"/><rect fill="#F1F1F1" height="2" style="stroke:#181818;stroke-width:0.5;" width="4" x="771.1957" y="435.7999"/><text fill="#000000" font-family="sans-serif" font-size="14" lengthAdjust="spacing" textLength="74.3957" x="693.8" y="459.7658">Trust notes</text></g><!--entity Action 1--><g class="entity" data-qualified-name="User Dashboard.next_steps.Action 1" data-source-line="594" id="ent0015"><rect fill="#F1F1F1" height="49.0679" rx="2.5" ry="2.5" style="stroke:#181818;stroke-width:0.5;" width="93.1018" x="1380.45" y="265.7399"/><rect fill="#F1F1F1" height="10" style="stroke:#181818;stroke-width:0.5;" width="15" x="1453.5518" y="270.7399"/><rect fill="#F1F1F1" height="2" style="stroke:#181818;stroke-width:0.5;" width="4" x="1451.5518" y="272.7399"/><rect fill="#F1F1F1" height="2" style="stroke:#181818;stroke-width:0.5;" width="4" x="1451.5518" y="276.7399"/><text fill="#000000" font-family="sans-serif" font-size="14" lengthAdjust="spacing" textLength="53.1018" x="1395.45" y="300.7058">Action 1</text></g><!--entity Action 2--><g class="entity" data-qualified-name="User Dashboard.next_steps.Action 2" data-source-line="595" id="ent0016"><rect fill="#F1F1F1" height="49.0679" rx="2.5" ry="2.5" style="stroke:#181818;stroke-width:0.5;" width="93.1018" x="1508.45" y="265.7399"/><rect fill="#F1F1F1" height="10" style="stroke:#181818;stroke-width:0.5;" width="15" x="1581.5518" y="270.7399"/><rect fill="#F1F1F1" height="2" style="stroke:#181818;stroke-width:0.5;" width="4" x="1579.5518" y="272.7399"/><rect fill="#F1F1F1" height="2" style="stroke:#181818;stroke-width:0.5;" width="4" x="1579.5518" y="276.7399"/><text fill="#000000" font-family="sans-serif" font-size="14" lengthAdjust="spacing" textLength="53.1018" x="1523.45" y="300.7058">Action 2</text></g><!--entity Action 3--><g class="entity" data-qualified-name="User Dashboard.next_steps.Action 3" data-source-line="596" id="ent0017"><rect fill="#F1F1F1" height="49.0679" rx="2.5" ry="2.5" style="stroke:#181818;stroke-width:0.5;" width="93.1018" x="1636.45" y="265.7399"/><rect fill="#F1F1F1" height="10" style="stroke:#181818;stroke-width:0.5;" width="15" x="1709.5518" y="270.7399"/><rect fill="#F1F1F1" height="2" style="stroke:#181818;stroke-width:0.5;" width="4" x="1707.5518" y="272.7399"/><rect fill="#F1F1F1" height="2" style="stroke:#181818;stroke-width:0.5;" width="4" x="1707.5518" y="276.7399"/><text fill="#000000" font-family="sans-serif" font-size="14" lengthAdjust="spacing" textLength="53.1018" x="1651.45" y="300.7058">Action 3</text></g><!--entity Effort level--><g class="entity" data-qualified-name="User Dashboard.next_steps.Effort level" data-source-line="597" id="ent0018"><rect fill="#F1F1F1" height="49.0679" rx="2.5" ry="2.5" style="stroke:#181818;stroke-width:0.5;" width="110.4897" x="1379.76" y="424.7999"/><rect fill="#F1F1F1" height="10" style="stroke:#181818;stroke-width:0.5;" width="15" x="1470.2497" y="429.7999"/><rect fill="#F1F1F1" height="2" style="stroke:#181818;stroke-width:0.5;" width="4" x="1468.2497" y="431.7999"/><rect fill="#F1F1F1" height="2" style="stroke:#181818;stroke-width:0.5;" width="4" x="1468.2497" y="435.7999"/><text fill="#000000" font-family="sans-serif" font-size="14" lengthAdjust="spacing" textLength="70.4897" x="1394.76" y="459.7658">Effort level</text></g><!--entity Expected outcome--><g class="entity" data-qualified-name="User Dashboard.next_steps.Expected outcome" data-source-line="598" id="ent0019"><rect fill="#F1F1F1" height="49.0679" rx="2.5" ry="2.5" style="stroke:#181818;stroke-width:0.5;" width="161.9675" x="1525.02" y="424.7999"/><rect fill="#F1F1F1" height="10" style="stroke:#181818;stroke-width:0.5;" width="15" x="1666.9875" y="429.7999"/><rect fill="#F1F1F1" height="2" style="stroke:#181818;stroke-width:0.5;" width="4" x="1664.9875" y="431.7999"/><rect fill="#F1F1F1" height="2" style="stroke:#181818;stroke-width:0.5;" width="4" x="1664.9875" y="435.7999"/><text fill="#000000" font-family="sans-serif" font-size="14" lengthAdjust="spacing" textLength="121.9675" x="1540.02" y="459.7658">Expected outcome</text></g><!--entity Documents--><g class="entity" data-qualified-name="User Dashboard.evidence_panel.Documents" data-source-line="602" id="ent0021"><rect fill="#F1F1F1" height="49.0679" rx="2.5" ry="2.5" style="stroke:#181818;stroke-width:0.5;" width="115.4597" x="129.27" y="424.7999"/><rect fill="#F1F1F1" height="10" style="stroke:#181818;stroke-width:0.5;" width="15" x="224.7297" y="429.7999"/><rect fill="#F1F1F1" height="2" style="stroke:#181818;stroke-width:0.5;" width="4" x="222.7297" y="431.7999"/><rect fill="#F1F1F1" height="2" style="stroke:#181818;stroke-width:0.5;" width="4" x="222.7297" y="435.7999"/><text fill="#000000" font-family="sans-serif" font-size="14" lengthAdjust="spacing" textLength="75.4597" x="144.27" y="459.7658">Documents</text></g><!--entity Transcripts--><g class="entity" data-qualified-name="User Dashboard.evidence_panel.Transcripts" data-source-line="603" id="ent0022"><rect fill="#F1F1F1" height="49.0679" rx="2.5" ry="2.5" style="stroke:#181818;stroke-width:0.5;" width="113.2617" x="279.37" y="424.7999"/><rect fill="#F1F1F1" height="10" style="stroke:#181818;stroke-width:0.5;" width="15" x="372.6317" y="429.7999"/><rect fill="#F1F1F1" height="2" style="stroke:#181818;stroke-width:0.5;" width="4" x="370.6317" y="431.7999"/><rect fill="#F1F1F1" height="2" style="stroke:#181818;stroke-width:0.5;" width="4" x="370.6317" y="435.7999"/><text fill="#000000" font-family="sans-serif" font-size="14" lengthAdjust="spacing" textLength="73.2617" x="294.37" y="459.7658">Transcripts</text></g><!--entity Anchors--><g class="entity" data-qualified-name="User Dashboard.evidence_panel.Anchors" data-source-line="604" id="ent0023"><rect fill="#F1F1F1" height="49.0679" rx="2.5" ry="2.5" style="stroke:#181818;stroke-width:0.5;" width="93.9278" x="140.04" y="533.8699"/><rect fill="#F1F1F1" height="10" style="stroke:#181818;stroke-width:0.5;" width="15" x="213.9678" y="538.8699"/><rect fill="#F1F1F1" height="2" style="stroke:#181818;stroke-width:0.5;" width="4" x="211.9678" y="540.8699"/><rect fill="#F1F1F1" height="2" style="stroke:#181818;stroke-width:0.5;" width="4" x="211.9678" y="544.8699"/><text fill="#000000" font-family="sans-serif" font-size="14" lengthAdjust="spacing" textLength="53.9278" x="155.04" y="568.8358">Anchors</text></g><!--entity Redactions--><g class="entity" data-qualified-name="User Dashboard.evidence_panel.Redactions" data-source-line="605" id="ent0024"><rect fill="#F1F1F1" height="49.0679" rx="2.5" ry="2.5" style="stroke:#181818;stroke-width:0.5;" width="112.2817" x="268.86" y="533.8699"/><rect fill="#F1F1F1" height="10" style="stroke:#181818;stroke-width:0.5;" width="15" x="361.1417" y="538.8699"/><rect fill="#F1F1F1" height="2" style="stroke:#181818;stroke-width:0.5;" width="4" x="359.1417" y="540.8699"/><rect fill="#F1F1F1" height="2" style="stroke:#181818;stroke-width:0.5;" width="4" x="359.1417" y="544.8699"/><text fill="#000000" font-family="sans-serif" font-size="14" lengthAdjust="spacing" textLength="72.2817" x="283.86" y="568.8358">Redactions</text></g><!--entity Local only--><g class="entity" data-qualified-name="User Dashboard.privacy_panel.Local only" data-source-line="609" id="ent0026"><rect fill="#F1F1F1" height="49.0679" rx="2.5" ry="2.5" style="stroke:#181818;stroke-width:0.5;" width="105.5057" x="1837.25" y="424.7999"/><rect fill="#F1F1F1" height="10" style="stroke:#181818;stroke-width:0.5;" width="15" x="1922.7557" y="429.7999"/><rect fill="#F1F1F1" height="2" style="stroke:#181818;stroke-width:0.5;" width="4" x="1920.7557" y="431.7999"/><rect fill="#F1F1F1" height="2" style="stroke:#181818;stroke-width:0.5;" width="4" x="1920.7557" y="435.7999"/><text fill="#000000" font-family="sans-serif" font-size="14" lengthAdjust="spacing" textLength="65.5057" x="1852.25" y="459.7658">Local only</text></g><!--entity Shared with--><g class="entity" data-qualified-name="User Dashboard.privacy_panel.Shared with" data-source-line="610" id="ent0027"><rect fill="#F1F1F1" height="49.0679" rx="2.5" ry="2.5" style="stroke:#181818;stroke-width:0.5;" width="118.4417" x="1977.78" y="424.7999"/><rect fill="#F1F1F1" height="10" style="stroke:#181818;stroke-width:0.5;" width="15" x="2076.2217" y="429.7999"/><rect fill="#F1F1F1" height="2" style="stroke:#181818;stroke-width:0.5;" width="4" x="2074.2217" y="431.7999"/><rect fill="#F1F1F1" height="2" style="stroke:#181818;stroke-width:0.5;" width="4" x="2074.2217" y="435.7999"/><text fill="#000000" font-family="sans-serif" font-size="14" lengthAdjust="spacing" textLength="78.4417" x="1992.78" y="459.7658">Shared with</text></g><!--entity Revoke access--><g class="entity" data-qualified-name="User Dashboard.privacy_panel.Revoke access" data-source-line="611" id="ent0028"><rect fill="#F1F1F1" height="49.0679" rx="2.5" ry="2.5" style="stroke:#181818;stroke-width:0.5;" width="133.7996" x="1837.1" y="533.8699"/><rect fill="#F1F1F1" height="10" style="stroke:#181818;stroke-width:0.5;" width="15" x="1950.8996" y="538.8699"/><rect fill="#F1F1F1" height="2" style="stroke:#181818;stroke-width:0.5;" width="4" x="1948.8996" y="540.8699"/><rect fill="#F1F1F1" height="2" style="stroke:#181818;stroke-width:0.5;" width="4" x="1948.8996" y="544.8699"/><text fill="#000000" font-family="sans-serif" font-size="14" lengthAdjust="spacing" textLength="93.7996" x="1852.1" y="568.8358">Revoke access</text></g><!--entity Obligations--><g class="entity" data-qualified-name="User Dashboard.strict_panel.Obligations" data-source-line="615" id="ent0030"><rect fill="#F1F1F1" height="49.0679" rx="2.5" ry="2.5" style="stroke:#181818;stroke-width:0.5;" width="115.7257" x="1017.14" y="424.7999"/><rect fill="#F1F1F1" height="10" style="stroke:#181818;stroke-width:0.5;" width="15" x="1112.8657" y="429.7999"/><rect fill="#F1F1F1" height="2" style="stroke:#181818;stroke-width:0.5;" width="4" x="1110.8657" y="431.7999"/><rect fill="#F1F1F1" height="2" style="stroke:#181818;stroke-width:0.5;" width="4" x="1110.8657" y="435.7999"/><text fill="#000000" font-family="sans-serif" font-size="14" lengthAdjust="spacing" textLength="75.7257" x="1032.14" y="459.7658">Obligations</text></g><!--entity Deadlines--><g class="entity" data-qualified-name="User Dashboard.strict_panel.Deadlines" data-source-line="616" id="ent0031"><rect fill="#F1F1F1" height="49.0679" rx="2.5" ry="2.5" style="stroke:#181818;stroke-width:0.5;" width="105.0577" x="1167.47" y="424.7999"/><rect fill="#F1F1F1" height="10" style="stroke:#181818;stroke-width:0.5;" width="15" x="1252.5277" y="429.7999"/><rect fill="#F1F1F1" height="2" style="stroke:#181818;stroke-width:0.5;" width="4" x="1250.5277" y="431.7999"/><rect fill="#F1F1F1" height="2" style="stroke:#181818;stroke-width:0.5;" width="4" x="1250.5277" y="435.7999"/><text fill="#000000" font-family="sans-serif" font-size="14" lengthAdjust="spacing" textLength="65.0577" x="1182.47" y="459.7658">Deadlines</text></g><!--entity Fallback--><g class="entity" data-qualified-name="User Dashboard.strict_panel.Fallback" data-source-line="617" id="ent0032"><rect fill="#F1F1F1" height="49.0679" rx="2.5" ry="2.5" style="stroke:#181818;stroke-width:0.5;" width="93.0038" x="1028.5" y="533.8699"/><rect fill="#F1F1F1" height="10" style="stroke:#181818;stroke-width:0.5;" width="15" x="1101.5038" y="538.8699"/><rect fill="#F1F1F1" height="2" style="stroke:#181818;stroke-width:0.5;" width="4" x="1099.5038" y="540.8699"/><rect fill="#F1F1F1" height="2" style="stroke:#181818;stroke-width:0.5;" width="4" x="1099.5038" y="544.8699"/><text fill="#000000" font-family="sans-serif" font-size="14" lengthAdjust="spacing" textLength="53.0038" x="1043.5" y="568.8358">Fallback</text></g><!--entity Escalation--><g class="entity" data-qualified-name="User Dashboard.strict_panel.Escalation" data-source-line="618" id="ent0033"><rect fill="#F1F1F1" height="49.0679" rx="2.5" ry="2.5" style="stroke:#181818;stroke-width:0.5;" width="106.3177" x="1156.84" y="533.8699"/><rect fill="#F1F1F1" height="10" style="stroke:#181818;stroke-width:0.5;" width="15" x="1243.1577" y="538.8699"/><rect fill="#F1F1F1" height="2" style="stroke:#181818;stroke-width:0.5;" width="4" x="1241.1577" y="540.8699"/><rect fill="#F1F1F1" height="2" style="stroke:#181818;stroke-width:0.5;" width="4" x="1241.1577" y="544.8699"/><text fill="#000000" font-family="sans-serif" font-size="14" lengthAdjust="spacing" textLength="66.3177" x="1171.84" y="568.8358">Escalation</text></g><!--link home to case_panel--><g class="link" data-entity-1="ent0003" data-entity-2="ent0008" data-link-type="dependency" data-source-line="622" id="lnk34"><path d="M436.6013,172.1347 C436.8668,172.133 437.138,172.1313 437.415,172.1296 C438.523,172.1227 439.7227,172.1157 441.0109,172.1086 C443.5873,172.0946 446.5177,172.0806 449.7761,172.0679 C462.8096,172.0173 481.0917,171.9888 502.9634,172.0683 C546.7069,172.2274 604.8088,172.8186 663.9975,174.5299 C782.375,177.9524 905.1,185.8549 926,203.7399 C929.6413,206.8549 932.6741,210.4983 935.193,214.493 C935.8228,215.4917 936.4204,216.5123 936.9874,217.5521 C937.2709,218.072 937.5468,218.5967 937.8151,219.1258 C937.8822,219.2581 935.2739,214.0199 935.3401,214.1528" fill="none" id="home-to-case_panel" style="stroke:#181818;stroke-width:1;"/><polygon fill="#181818" points="938.015,219.5235,937.5831,209.6841,935.7859,215.0479,930.4221,213.2507,938.015,219.5235" style="stroke:#181818;stroke-width:1;"/></g><!--link home to next_steps--><g class="link" data-entity-1="ent0003" data-entity-2="ent0014" data-link-type="dependency" data-source-line="623" id="lnk35"><path d="M436.1822,172.255 C436.6293,172.2581 437.0941,172.2613 437.5766,172.2647 C439.5062,172.2781 441.7171,172.2935 444.1994,172.3111 C454.1289,172.3814 468.4028,172.4854 486.4055,172.6249 C522.411,172.9038 573.332,173.3243 634.2441,173.8993 C756.0681,175.0493 917.8563,176.8174 1080.2125,179.3074 C1404.925,184.2874 1731.91,192.1549 1746,203.7399 C1749.7013,206.7824 1752.7794,210.3711 1755.3317,214.3257 C1755.9698,215.3143 1756.575,216.3258 1757.1488,217.3573 C1757.4358,217.8731 1757.7149,218.3938 1757.9863,218.9193 C1758.122,219.182 1755.5819,214.0747 1755.7138,214.3397" fill="none" id="home-to-next_steps" style="stroke:#181818;stroke-width:1;"/><polygon fill="#181818" points="1758.3878,219.7109,1757.9576,209.8714,1756.1595,215.2349,1750.796,213.4367,1758.3878,219.7109" style="stroke:#181818;stroke-width:1;"/></g><!--link case_panel to evidence_panel--><g class="link" data-entity-1="ent0008" data-entity-2="ent0020" data-link-type="dependency" data-source-line="624" id="lnk36"><path d="M475.6571,368.2409 C475.5172,368.3466 475.3777,368.4528 475.2386,368.5595 C474.6819,368.9863 474.1306,369.421 473.5848,369.8633 C472.4931,370.7478 471.423,371.6625 470.3744,372.6043 C466.1798,376.3715 462.328,380.5726 458.8055,385.0115 C451.7603,393.8893 446.0319,403.7186 441.5113,412.9324 C440.3811,415.2358 439.3264,417.5008 438.3455,419.7028 C437.8551,420.8038 437.3831,421.8891 436.9293,422.9555 C436.7025,423.4887 436.4801,424.0173 436.2624,424.5407 C436.2079,424.6716 436.1537,424.8021 436.0999,424.9323 C436.0729,424.9974 438.3347,419.5161 438.3079,419.581" fill="none" id="case_panel-to-evidence_panel" style="stroke:#181818;stroke-width:1;"/><polygon fill="#181818" points="436.0193,425.1274,443.1498,418.3336,437.9264,420.5054,435.7546,415.2821,436.0193,425.1274" style="stroke:#181818;stroke-width:1;"/></g><!--link case_panel to strict_panel--><g class="link" data-entity-1="ent0008" data-entity-2="ent0029" data-link-type="dependency" data-source-line="625" id="lnk37"><path d="M953.2599,291.7982 C954.899,291.9094 956.7648,292.0387 958.8419,292.1869 C967.15,292.7793 978.8374,293.6721 992.9098,294.9061 C1021.0547,297.3743 1058.7394,301.2074 1098.0088,306.7324 C1176.5475,317.7824 1261.425,335.5999 1289,362.7999 C1292.3575,366.1124 1295.1805,369.8769 1297.5491,373.9354 C1298.1413,374.9501 1298.7051,375.9831 1299.2417,377.032 C1299.51,377.5564 1297.1793,372.6737 1297.4342,373.2058" fill="none" id="case_panel-to-strict_panel" style="stroke:#181818;stroke-width:1;"/><polygon fill="#181818" points="1300.0264,378.617,1299.7456,368.7721,1297.8663,374.1077,1292.5307,372.2284,1300.0264,378.617" style="stroke:#181818;stroke-width:1;"/></g><!--link home to privacy_panel--><g class="link" data-entity-1="ent0003" data-entity-2="ent0025" data-link-type="dependency" data-source-line="626" id="lnk38"><path d="M436.979,172.1778 C438.7892,172.1738 440.864,172.1695 443.1948,172.165 C452.518,172.147 465.937,172.126 482.9047,172.1122 C516.8402,172.0847 564.9706,172.086 622.9194,172.1977 C738.8169,172.4211 893.9875,173.0861 1053.4175,174.8449 C1372.2775,178.3624 1708.175,186.2549 1781,203.7399 C1939.71,241.8399 2009.85,235.5099 2112,362.7999 C2114.9588,366.4874 2117.4942,370.5361 2119.6655,374.8046 C2120.2084,375.8717 2120.7284,376.9525 2121.2267,378.0449 C2121.2889,378.1814 2118.8889,372.8465 2118.9505,372.9834" fill="none" id="home-to-privacy_panel" style="stroke:#181818;stroke-width:1;"/><polygon fill="#181818" points="2121.4125,378.4551,2121.3673,368.6063,2119.3608,373.8954,2114.0718,371.8889,2121.4125,378.4551" style="stroke:#181818;stroke-width:1;"/></g><?plantuml-src RLB1JiCm3BttAwpTTm3kIDC6uW03iI4E224lzTPeQLmITmmX_frqB6qoxHBflIH-pyyMBORWnPE36VfgnUXA6CESNOq6q9Qm4AULm0ENv8kYGRN53S4e_pA2dmB0aHAqcr1mTCSrmHDQCYD03rK7koS0RwyL2aYbFHZcRJZrbjwJgnf5oFcK4eQImT9UZkoqTOviU1jSTTHlaSjFqQVoAi2FfeFHnAAjQtJVnt9BNPFHDjgusUcIh29GtDee-TYGXS-Ml6YsqTtIjLx0if0_PsCU78S0gKcyT5ry-C3vw6MYkf9myPx1onnUHM_hDJi1GpioaTetGP9Au5PK2FgSaxwbmGWTgJoO6Qks3j4E7QBrokccPoPMLTpFvvbAL7qafx9FJkzGVIUgpJ-JYzwp2jl6riI1B2fqeQ4lBLMli-Cj0If5_gnKigU9d3-mkThZokWDfcES4PRT_2E-HMDMOTDZm3xOEtpu5mxIXuKUZw-JrHguOSH5iddTJPxvwMrgTgYM9VO7?></g></svg>