<?plantuml 1.2026.2?><svg xmlns="http://www.w3.org/2000/svg" xmlns:xlink="http://www.w3.org/1999/xlink" contentStyleType="text/css" data-diagram-type="DESCRIPTION" height="760px" preserveAspectRatio="none" style="width:3145px;height:760px;background:#FFFFFF;" version="1.1" viewBox="0 0 3145 760" width="3145px" zoomAndPan="magnify"><title>ITIR / SensibLaw - Container Diagram</title><defs/><g><g class="title" data-source-line="69"><text fill="#000000" font-family="sans-serif" font-size="14" font-weight="bold" lengthAdjust="spacing" textLength="259.237" x="1436.0554" y="24.9659">ITIR / SensibLaw - Container Diagram</text></g><!--cluster ITIR / SensibLaw--><g class="cluster" data-qualified-name="ITIR . SensibLaw" data-source-line="76" id="ent0004"><rect fill="none" height="478" rx="2.5" ry="2.5" style="stroke:#181818;stroke-width:1;" width="2923.73" x="7" y="47.0679"/><text fill="#000000" font-family="sans-serif" font-size="14" font-weight="bold" lengthAdjust="spacing" textLength="114.6736" x="1411.5282" y="64.0339">ITIR / SensibLaw</text></g><!--entity IN--><g class="entity" data-qualified-name="ITIR . SensibLaw.IN" data-source-line="77" id="ent0005"><rect fill="#F1F1F1" height="49.0679" rx="2.5" ry="2.5" style="stroke:#181818;stroke-width:0.5;" width="138.7696" x="480.95" y="449.5279"/><rect fill="#F1F1F1" height="10" style="stroke:#181818;stroke-width:0.5;" width="15" x="599.7196" y="454.5279"/><rect fill="#F1F1F1" height="2" style="stroke:#181818;stroke-width:0.5;" width="4" x="597.7196" y="456.5279"/><rect fill="#F1F1F1" height="2" style="stroke:#181818;stroke-width:0.5;" width="4" x="597.7196" y="460.5279"/><text fill="#000000" font-family="sans-serif" font-size="14" lengthAdjust="spacing" textLength="98.7696" x="495.95" y="484.4939">Input Interface</text></g><!--entity PE--><g class="entity" data-qualified-name="ITIR . SensibLaw.PE" data-source-line="78" id="ent0006"><rect fill="#F1F1F1" height="49.0679" rx="2.5" ry="2.5" style="stroke:#181818;stroke-width:0.5;" width="160.4695" x="888.54" y="459.5279"/><rect fill="#F1F1F1" height="10" style="stroke:#181818;stroke-width:0.5;" width="15" x="1029.0095" y="464.5279"/><rect fill="#F1F1F1" height="2" style="stroke:#181818;stroke-width:0.5;" width="4" x="1027.0095" y="466.5279"/><rect fill="#F1F1F1" height="2" style="stroke:#181818;stroke-width:0.5;" width="4" x="1027.0095" y="470.5279"/><text fill="#000000" font-family="sans-serif" font-size="14" lengthAdjust="spacing" textLength="120.4695" x="903.54" y="494.4939">Processing Engine</text></g><!--entity PC--><g class="entity" data-qualified-name="ITIR . SensibLaw.PC" data-source-line="79" id="ent0007"><rect fill="#F1F1F1" height="49.0679" rx="2.5" ry="2.5" style="stroke:#181818;stroke-width:0.5;" width="144.7056" x="1293.77" y="378.5279"/><rect fill="#F1F1F1" height="10" style="stroke:#181818;stroke-width:0.5;" width="15" x="1418.4756" y="383.5279"/><rect fill="#F1F1F1" height="2" style="stroke:#181818;stroke-width:0.5;" width="4" x="1416.4756" y="385.5279"/><rect fill="#F1F1F1" height="2" style="stroke:#181818;stroke-width:0.5;" width="4" x="1416.4756" y="389.5279"/><text fill="#000000" font-family="sans-serif" font-size="14" lengthAdjust="spacing" textLength="104.7056" x="1308.77" y="413.4939">Promotion Core</text></g><!--entity IE--><g class="entity" data-qualified-name="ITIR . SensibLaw.IE" data-source-line="80" id="ent0008"><rect fill="#F1F1F1" height="49.0679" rx="2.5" ry="2.5" style="stroke:#181818;stroke-width:0.5;" width="139.6096" x="898.97" y="285.5279"/><rect fill="#F1F1F1" height="10" style="stroke:#181818;stroke-width:0.5;" width="15" x="1018.5796" y="290.5279"/><rect fill="#F1F1F1" height="2" style="stroke:#181818;stroke-width:0.5;" width="4" x="1016.5796" y="292.5279"/><rect fill="#F1F1F1" height="2" style="stroke:#181818;stroke-width:0.5;" width="4" x="1016.5796" y="296.5279"/><text fill="#000000" font-family="sans-serif" font-size="14" lengthAdjust="spacing" textLength="99.6096" x="913.97" y="320.4939">Identity Engine</text></g><!--entity GE--><g class="entity" data-qualified-name="ITIR . SensibLaw.GE" data-source-line="81" id="ent0009"><rect fill="#F1F1F1" height="49.0679" rx="2.5" ry="2.5" style="stroke:#181818;stroke-width:0.5;" width="129.9356" x="1675.48" y="283.5279"/><rect fill="#F1F1F1" height="10" style="stroke:#181818;stroke-width:0.5;" width="15" x="1785.4156" y="288.5279"/><rect fill="#F1F1F1" height="2" style="stroke:#181818;stroke-width:0.5;" width="4" x="1783.4156" y="290.5279"/><rect fill="#F1F1F1" height="2" style="stroke:#181818;stroke-width:0.5;" width="4" x="1783.4156" y="294.5279"/><text fill="#000000" font-family="sans-serif" font-size="14" lengthAdjust="spacing" textLength="89.9356" x="1690.48" y="318.4939">Graph Engine</text></g><!--entity LG--><g class="entity" data-qualified-name="ITIR . SensibLaw.LG" data-source-line="82" id="ent0010"><rect fill="#F1F1F1" height="49.0679" rx="2.5" ry="2.5" style="stroke:#181818;stroke-width:0.5;" width="220.8793" x="2223.38" y="309.5279"/><rect fill="#F1F1F1" height="10" style="stroke:#181818;stroke-width:0.5;" width="15" x="2424.2593" y="314.5279"/><rect fill="#F1F1F1" height="2" style="stroke:#181818;stroke-width:0.5;" width="4" x="2422.2593" y="316.5279"/><rect fill="#F1F1F1" height="2" style="stroke:#181818;stroke-width:0.5;" width="4" x="2422.2593" y="320.5279"/><text fill="#000000" font-family="sans-serif" font-size="14" lengthAdjust="spacing" textLength="180.8793" x="2238.38" y="344.4939">Derived Legal Follow Graph</text></g><!--entity AE--><g class="entity" data-qualified-name="ITIR . SensibLaw.AE" data-source-line="83" id="ent0011"><rect fill="#F1F1F1" height="49.0679" rx="2.5" ry="2.5" style="stroke:#181818;stroke-width:0.5;" width="156.9695" x="2036.41" y="248.5279"/><rect fill="#F1F1F1" height="10" style="stroke:#181818;stroke-width:0.5;" width="15" x="2173.3795" y="253.5279"/><rect fill="#F1F1F1" height="2" style="stroke:#181818;stroke-width:0.5;" width="4" x="2171.3795" y="255.5279"/><rect fill="#F1F1F1" height="2" style="stroke:#181818;stroke-width:0.5;" width="4" x="2171.3795" y="259.5279"/><text fill="#000000" font-family="sans-serif" font-size="14" lengthAdjust="spacing" textLength="116.9695" x="2051.41" y="283.4939">Alignment Engine</text></g><!--entity OL--><g class="entity" data-qualified-name="ITIR . SensibLaw.OL" data-source-line="84" id="ent0012"><rect fill="#F1F1F1" height="49.0679" rx="2.5" ry="2.5" style="stroke:#181818;stroke-width:0.5;" width="148.6676" x="2474.26" y="230.5279"/><rect fill="#F1F1F1" height="10" style="stroke:#181818;stroke-width:0.5;" width="15" x="2602.9276" y="235.5279"/><rect fill="#F1F1F1" height="2" style="stroke:#181818;stroke-width:0.5;" width="4" x="2600.9276" y="237.5279"/><rect fill="#F1F1F1" height="2" style="stroke:#181818;stroke-width:0.5;" width="4" x="2600.9276" y="241.5279"/><text fill="#000000" font-family="sans-serif" font-size="14" lengthAdjust="spacing" textLength="108.6676" x="2489.26" y="265.4939">Obligation Layer</text></g><!--entity OE--><g class="entity" data-qualified-name="ITIR . SensibLaw.OE" data-source-line="85" id="ent0013"><rect fill="#F1F1F1" height="49.0679" rx="2.5" ry="2.5" style="stroke:#181818;stroke-width:0.5;" width="135.8016" x="2778.93" y="270.5279"/><rect fill="#F1F1F1" height="10" style="stroke:#181818;stroke-width:0.5;" width="15" x="2894.7316" y="275.5279"/><rect fill="#F1F1F1" height="2" style="stroke:#181818;stroke-width:0.5;" width="4" x="2892.7316" y="277.5279"/><rect fill="#F1F1F1" height="2" style="stroke:#181818;stroke-width:0.5;" width="4" x="2892.7316" y="281.5279"/><text fill="#000000" font-family="sans-serif" font-size="14" lengthAdjust="spacing" textLength="95.8016" x="2793.93" y="305.4939">Output Engine</text></g><!--entity GL--><g class="entity" data-qualified-name="ITIR . SensibLaw.GL" data-source-line="86" id="ent0014"><rect fill="#F1F1F1" height="49.0679" rx="2.5" ry="2.5" style="stroke:#181818;stroke-width:0.5;" width="158.8735" x="470.9" y="286.5279"/><rect fill="#F1F1F1" height="10" style="stroke:#181818;stroke-width:0.5;" width="15" x="609.7735" y="291.5279"/><rect fill="#F1F1F1" height="2" style="stroke:#181818;stroke-width:0.5;" width="4" x="607.7735" y="293.5279"/><rect fill="#F1F1F1" height="2" style="stroke:#181818;stroke-width:0.5;" width="4" x="607.7735" y="297.5279"/><text fill="#000000" font-family="sans-serif" font-size="14" lengthAdjust="spacing" textLength="118.8735" x="485.9" y="321.4939">Governance Layer</text></g><!--entity AP--><g class="entity" data-qualified-name="ITIR . SensibLaw.AP" data-source-line="87" id="ent0015"><rect fill="#F1F1F1" height="49.0679" rx="2.5" ry="2.5" style="stroke:#181818;stroke-width:0.5;" width="268.8991" x="23" y="116.5279"/><rect fill="#F1F1F1" height="10" style="stroke:#181818;stroke-width:0.5;" width="15" x="271.8991" y="121.5279"/><rect fill="#F1F1F1" height="2" style="stroke:#181818;stroke-width:0.5;" width="4" x="269.8991" y="123.5279"/><rect fill="#F1F1F1" height="2" style="stroke:#181818;stroke-width:0.5;" width="4" x="269.8991" y="127.5279"/><text fill="#000000" font-family="sans-serif" font-size="14" lengthAdjust="spacing" textLength="228.8991" x="38" y="151.4939">Anti-Panopticon / Red-Team Guard</text></g><!--entity User--><g class="entity" data-qualified-name="User" data-source-line="73" id="ent0002"><ellipse cx="3123.0389" cy="582.0279" fill="#F1F1F1" rx="8" ry="8" style="stroke:#181818;stroke-width:0.5;"/><path d="M3123.0389,590.0279 L3123.0389,617.0279 M3110.0389,598.0279 L3136.0389,598.0279 M3123.0389,617.0279 L3110.0389,632.0279 M3123.0389,617.0279 L3136.0389,632.0279" fill="none" style="stroke:#181818;stroke-width:0.5;"/><text fill="#000000" font-family="sans-serif" font-size="14" lengthAdjust="spacing" textLength="30.6179" x="3107.73" y="648.4939">User</text></g><!--entity Reviewer--><g class="entity" data-qualified-name="Reviewer" data-source-line="74" id="ent0003"><ellipse cx="157.4529" cy="550.0279" fill="#F1F1F1" rx="8" ry="8" style="stroke:#181818;stroke-width:0.5;"/><path d="M157.4529,558.0279 L157.4529,585.0279 M144.4529,566.0279 L170.4529,566.0279 M157.4529,585.0279 L144.4529,600.0279 M157.4529,585.0279 L170.4529,600.0279" fill="none" style="stroke:#181818;stroke-width:0.5;"/><text fill="#000000" font-family="sans-serif" font-size="14" lengthAdjust="spacing" textLength="59.9057" x="127.5" y="616.4939">Reviewer</text></g><!--entity ES--><g class="entity" data-qualified-name="ES" data-source-line="90" id="ent0016"><path d="M1307.72,551.0279 C1307.72,541.0279 1366.1248,541.0279 1366.1248,541.0279 C1366.1248,541.0279 1424.5296,541.0279 1424.5296,551.0279 L1424.5296,579.0958 C1424.5296,589.0958 1366.1248,589.0958 1366.1248,589.0958 C1366.1248,589.0958 1307.72,589.0958 1307.72,579.0958 L1307.72,551.0279" fill="#F1F1F1" style="stroke:#181818;stroke-width:0.5;"/><path d="M1307.72,551.0279 C1307.72,561.0279 1366.1248,561.0279 1366.1248,561.0279 C1366.1248,561.0279 1424.5296,561.0279 1424.5296,551.0279" fill="none" style="stroke:#181818;stroke-width:0.5;"/><text fill="#000000" font-family="sans-serif" font-size="14" lengthAdjust="spacing" textLength="96.8096" x="1317.72" y="579.9939">Evidence Store</text></g><!--entity GS--><g class="entity" data-qualified-name="GS" data-source-line="91" id="ent0017"><path d="M2065.09,551.0279 C2065.09,541.0279 2114.8989,541.0279 2114.8989,541.0279 C2114.8989,541.0279 2164.7077,541.0279 2164.7077,551.0279 L2164.7077,579.0958 C2164.7077,589.0958 2114.8989,589.0958 2114.8989,589.0958 C2114.8989,589.0958 2065.09,589.0958 2065.09,579.0958 L2065.09,551.0279" fill="#F1F1F1" style="stroke:#181818;stroke-width:0.5;"/><path d="M2065.09,551.0279 C2065.09,561.0279 2114.8989,561.0279 2114.8989,561.0279 C2114.8989,561.0279 2164.7077,561.0279 2164.7077,551.0279" fill="none" style="stroke:#181818;stroke-width:0.5;"/><text fill="#000000" font-family="sans-serif" font-size="14" lengthAdjust="spacing" textLength="79.6177" x="2075.09" y="579.9939">Graph Store</text></g><!--entity AS--><g class="entity" data-qualified-name="AS" data-source-line="92" id="ent0018"><path d="M922.07,705.0279 C922.07,695.0279 968.7709,695.0279 968.7709,695.0279 C968.7709,695.0279 1015.4717,695.0279 1015.4717,705.0279 L1015.4717,733.0958 C1015.4717,743.0958 968.7709,743.0958 968.7709,743.0958 C968.7709,743.0958 922.07,743.0958 922.07,733.0958 L922.07,705.0279" fill="#F1F1F1" style="stroke:#181818;stroke-width:0.5;"/><path d="M922.07,705.0279 C922.07,715.0279 968.7709,715.0279 968.7709,715.0279 C968.7709,715.0279 1015.4717,715.0279 1015.4717,705.0279" fill="none" style="stroke:#181818;stroke-width:0.5;"/><text fill="#000000" font-family="sans-serif" font-size="14" lengthAdjust="spacing" textLength="73.4017" x="932.07" y="733.9939">Audit Store</text></g><!--link User to IN--><g class="link" data-entity-1="ent0002" data-entity-2="ent0005" data-link-type="dependency" data-source-line="94" id="lnk19"><path d="M3107.24,615.7379 C3066.19,622.9179 2947.4,642.0679 2847.83,642.0679 C967.77,642.0679 967.77,642.0679 967.77,642.0679 C816.73,642.0679 660.7532,549.1945 591.4132,502.3945" fill="none" id="User-to-IN" style="stroke:#181818;stroke-width:1;"/><polygon fill="#181818" points="586.44,499.0379,591.6621,507.3883,590.5844,501.8351,596.1376,500.7573,586.44,499.0379" style="stroke:#181818;stroke-width:1;"/><text fill="#000000" font-family="sans-serif" font-size="13" lengthAdjust="spacing" textLength="110.9681" x="1865.715" y="619.9649">uploads narrative,</text><text fill="#000000" font-family="sans-serif" font-size="13" lengthAdjust="spacing" textLength="149.5782" x="1846.41" y="637.6709">documents, audio, goals</text></g><!--link IN to PE--><g class="link" data-entity-1="ent0005" data-entity-2="ent0006" data-link-type="dependency" data-source-line="95" id="lnk20"><path d="M620.17,476.0179 C633.32,476.3779 646.97,476.7379 659.77,477.0679 C737.44,479.0179 820.1214,480.8768 882.3214,482.2368" fill="none" id="IN-to-PE" style="stroke:#181818;stroke-width:1;"/><polygon fill="#181818" points="888.32,482.3679,879.4096,478.1721,883.3212,482.2586,879.2347,486.1702,888.32,482.3679" style="stroke:#181818;stroke-width:1;"/><text fill="#000000" font-family="sans-serif" font-size="13" lengthAdjust="spacing" textLength="110.5781" x="691.27" y="472.9649">normalized inputs</text></g><!--link PE to ES--><g class="link" data-entity-1="ent0006" data-entity-2="ent0016" data-link-type="dependency" data-source-line="96" id="lnk21"><path d="M1049.3,500.3579 C1125.74,516.0179 1233.5321,538.1037 1301.6221,552.0537" fill="none" id="PE-to-ES" style="stroke:#181818;stroke-width:1;"/><polygon fill="#181818" points="1307.5,553.2579,1299.486,547.5329,1302.6017,552.2544,1297.8803,555.3702,1307.5,553.2579" style="stroke:#181818;stroke-width:1;"/><text fill="#000000" font-family="sans-serif" font-size="13" lengthAdjust="spacing" textLength="121.5891" x="1123.77" y="508.4749">structured evidence</text></g><!--link PE to PC--><g class="link" data-entity-1="ent0006" data-entity-2="ent0007" data-link-type="dependency" data-source-line="97" id="lnk22"><path d="M1049.3,467.7679 C1120.67,453.1479 1218.6121,433.082 1287.4921,418.972" fill="none" id="PE-to-PC" style="stroke:#181818;stroke-width:1;"/><polygon fill="#181818" points="1293.37,417.7679,1283.7504,415.6554,1288.4717,418.7713,1285.3558,423.4927,1293.37,417.7679" style="stroke:#181818;stroke-width:1;"/><text fill="#000000" font-family="sans-serif" font-size="13" lengthAdjust="spacing" textLength="127.6601" x="1120.77" y="420.6849">extracted candidates</text></g><!--link PC to GE--><g class="link" data-entity-1="ent0007" data-entity-2="ent0009" data-link-type="dependency" data-source-line="98" id="lnk23"><path d="M1438.9,386.8979 C1495.27,373.9279 1575.64,354.8579 1645.48,336.0679 C1655.09,333.4779 1659.4584,332.2823 1669.3684,329.4023" fill="none" id="PC-to-GE" style="stroke:#181818;stroke-width:1;"/><polygon fill="#181818" points="1675.13,327.7279,1665.3713,326.3985,1670.3286,329.1233,1667.6038,334.0806,1675.13,327.7279" style="stroke:#181818;stroke-width:1;"/><text fill="#000000" font-family="sans-serif" font-size="13" lengthAdjust="spacing" textLength="175.8512" x="1469.48" y="331.9649">promoted facts, rules, atoms</text></g><!--link GE to LG--><g class="link" data-entity-1="ent0009" data-entity-2="ent0010" data-link-type="dependency" data-source-line="99" id="lnk24"><path d="M1805.68,321.8979 C1815.59,323.5879 1825.75,325.0679 1835.41,326.0679 C1968.36,339.7579 2116.3413,339.942 2217.3413,337.852" fill="none" id="GE-to-LG" style="stroke:#181818;stroke-width:1;"/><polygon fill="#181818" points="2223.34,337.7279,2214.2592,333.915,2218.3411,337.8314,2214.4247,341.9133,2223.34,337.7279" style="stroke:#181818;stroke-width:1;"/><text fill="#000000" font-family="sans-serif" font-size="13" lengthAdjust="spacing" textLength="162.7471" x="1839.91" y="321.9649">derived legal / claim graph</text></g><!--link LG to OE--><g class="link" data-entity-1="ent0010" data-entity-2="ent0013" data-link-type="dependency" data-source-line="100" id="lnk25"><path d="M2444.67,328.0179 C2498.43,324.8479 2564.1,320.6679 2622.93,316.0679 C2675.24,311.9679 2728.3994,306.9408 2772.6094,302.5508" fill="none" id="LG-to-OE" style="stroke:#181818;stroke-width:1;"/><polygon fill="#181818" points="2778.58,301.9579,2769.2288,298.8668,2773.6045,302.452,2770.0193,306.8277,2778.58,301.9579" style="stroke:#181818;stroke-width:1;"/><text fill="#000000" font-family="sans-serif" font-size="13" lengthAdjust="spacing" textLength="94.4841" x="2501.6" y="311.9649">graph products</text></g><!--link IN to IE--><g class="link" data-entity-1="ent0005" data-entity-2="ent0008" data-link-type="dependency" data-source-line="101" id="lnk26"><path d="M579.42,449.1979 C600.3,431.8479 630.19,409.3279 659.77,395.0679 C701.74,374.8179 815.4337,345.9301 892.6537,327.5101" fill="none" id="IN-to-IE" style="stroke:#181818;stroke-width:1;"/><polygon fill="#181818" points="898.49,326.1179,888.8075,324.3153,893.6265,327.2781,890.6637,332.097,898.49,326.1179" style="stroke:#181818;stroke-width:1;"/><text fill="#000000" font-family="sans-serif" font-size="13" lengthAdjust="spacing" textLength="171.4572" x="660.77" y="338.9949">context, trust, friction, goals</text></g><!--link IE to GE--><g class="link" data-entity-1="ent0008" data-entity-2="ent0009" data-link-type="dependency" data-source-line="102" id="lnk27"><path d="M1038.75,309.8879 C1186.44,309.4979 1525.42,308.6238 1668.98,308.2438" fill="none" id="IE-to-GE" style="stroke:#181818;stroke-width:1;"/><polygon fill="#181818" points="1674.98,308.2279,1665.9694,304.2518,1669.98,308.2412,1665.9906,312.2517,1674.98,308.2279" style="stroke:#181818;stroke-width:1;"/><text fill="#000000" font-family="sans-serif" font-size="13" lengthAdjust="spacing" textLength="87.6981" x="1322.63" y="304.7649">identity atoms</text></g><!--link GE to GS--><g class="link" data-entity-1="ent0009" data-entity-2="ent0017" data-link-type="dependency" data-source-line="103" id="lnk28"><path d="M1765.47,332.8879 C1783.83,351.2679 1810.2,376.4279 1835.41,396.0679 C1919.17,461.2779 1944.48,471.9879 2036.41,525.0679 C2045.46,530.2879 2049.9471,532.8099 2059.4371,537.7899" fill="none" id="GE-to-GS" style="stroke:#181818;stroke-width:1;"/><polygon fill="#181818" points="2064.75,540.5779,2058.6393,532.854,2060.3226,538.2546,2054.922,539.9378,2064.75,540.5779" style="stroke:#181818;stroke-width:1;"/><text fill="#000000" font-family="sans-serif" font-size="13" lengthAdjust="spacing" textLength="169.7412" x="1836.41" y="391.9649">legal graph + identity graph</text></g><!--link GE to AE--><g class="link" data-entity-1="ent0009" data-entity-2="ent0011" data-link-type="dependency" data-source-line="104" id="lnk29"><path d="M1805.9,302.0079 C1869.82,295.9979 1961.8463,287.3491 2030.0763,280.9391" fill="none" id="GE-to-AE" style="stroke:#181818;stroke-width:1;"/><polygon fill="#181818" points="2036.05,280.3779,2026.7153,277.2373,2031.0719,280.8456,2027.4636,285.2022,2036.05,280.3779" style="stroke:#181818;stroke-width:1;"/><text fill="#000000" font-family="sans-serif" font-size="13" lengthAdjust="spacing" textLength="73.8011" x="1884.41" y="279.3049">graph views</text></g><!--link AE to OL--><g class="link" data-entity-1="ent0011" data-entity-2="ent0012" data-link-type="dependency" data-source-line="105" id="lnk30"><path d="M2193.58,269.8279 C2273.08,266.5079 2389.7252,261.6482 2467.7952,258.3882" fill="none" id="AE-to-OL" style="stroke:#181818;stroke-width:1;"/><polygon fill="#181818" points="2473.79,258.1379,2464.631,254.5169,2468.7944,258.3465,2464.9647,262.5099,2473.79,258.1379" style="stroke:#181818;stroke-width:1;"/><text fill="#000000" font-family="sans-serif" font-size="13" lengthAdjust="spacing" textLength="97.7471" x="2285.3795" y="237.3149">needs, conflicts,</text><text fill="#000000" font-family="sans-serif" font-size="13" lengthAdjust="spacing" textLength="99.8661" x="2284.32" y="255.0209">actions required</text></g><!--link OL to OE--><g class="link" data-entity-1="ent0012" data-entity-2="ent0013" data-link-type="dependency" data-source-line="106" id="lnk31"><path d="M2623.2,265.0079 C2670.75,271.4279 2726.214,278.9148 2772.484,285.1648" fill="none" id="OL-to-OE" style="stroke:#181818;stroke-width:1;"/><polygon fill="#181818" points="2778.43,285.9679,2770.0464,280.7992,2773.475,285.2986,2768.9756,288.7272,2778.43,285.9679" style="stroke:#181818;stroke-width:1;"/><text fill="#000000" font-family="sans-serif" font-size="13" lengthAdjust="spacing" textLength="94.4971" x="2653.93" y="247.0449">actor, deadline,</text><text fill="#000000" font-family="sans-serif" font-size="13" lengthAdjust="spacing" textLength="90.9741" x="2655.6915" y="264.7509">fallback, status</text></g><!--link OE to User--><g class="link" data-entity-1="ent0013" data-entity-2="ent0002" data-link-type="dependency" data-source-line="107" id="lnk32"><path d="M2869.35,320.0179 C2923.01,382.2479 3057.7822,538.5336 3103.3622,591.4036" fill="none" id="OE-to-User" style="stroke:#181818;stroke-width:1;"/><polygon fill="#181818" points="3107.28,595.9479,3104.4329,586.5195,3104.0152,592.161,3098.3738,591.7432,3107.28,595.9479" style="stroke:#181818;stroke-width:1;"/><text fill="#000000" font-family="sans-serif" font-size="13" lengthAdjust="spacing" textLength="129.2201" x="2947.73" y="394.1249">reports, next actions,</text><text fill="#000000" font-family="sans-serif" font-size="13" lengthAdjust="spacing" textLength="64.207" x="2980.2365" y="411.8309">case views</text></g><!--link GL to PE--><g class="link" data-entity-1="ent0014" data-entity-2="ent0006" data-link-type="dependency" data-source-line="109" id="lnk33"><path d="M568.18,335.7079 C587.25,361.5679 620.79,401.2679 659.77,422.0679 C728.77,458.8679 756.15,438.4679 832.77,454.0679 C850.77,457.7279 864.2111,460.5845 882.4211,464.6045" fill="none" id="GL-to-PE" style="stroke:#181818;stroke-width:1;"/><polygon fill="#181818" points="888.28,465.8979,880.3539,460.0519,883.3976,464.8201,878.6293,467.8638,888.28,465.8979" style="stroke:#181818;stroke-width:1;"/><text fill="#000000" font-family="sans-serif" font-size="13" lengthAdjust="spacing" textLength="88.4651" x="702.27" y="417.9649">policy controls</text></g><!--link GL to PC--><g class="link" data-entity-1="ent0014" data-entity-2="ent0007" data-link-type="dependency" data-source-line="110" id="lnk34"><path d="M629.92,317.3279 C711.61,323.9479 828.25,333.7379 832.77,336.0679 C850.99,345.4379 844.44,361.9179 862.77,371.0679 C872.27,375.8079 1150.9588,391.4723 1287.4688,398.8923" fill="none" id="GL-to-PC" style="stroke:#181818;stroke-width:1;"/><polygon fill="#181818" points="1293.46,399.2179,1284.6904,394.7353,1288.4674,398.9465,1284.2562,402.7235,1293.46,399.2179" style="stroke:#181818;stroke-width:1;"/><text fill="#000000" font-family="sans-serif" font-size="13" lengthAdjust="spacing" textLength="210.0152" x="863.77" y="366.9649">anti-panopticon + promotion rules</text></g><!--link GL to IE--><g class="link" data-entity-1="ent0014" data-entity-2="ent0008" data-link-type="dependency" data-source-line="111" id="lnk35"><path d="M630.15,310.8779 C707.61,310.6879 818.66,310.4225 892.61,310.2425" fill="none" id="GL-to-IE" style="stroke:#181818;stroke-width:1;"/><polygon fill="#181818" points="898.61,310.2279,889.6003,306.2498,893.61,310.2401,889.6198,314.2498,898.61,310.2279" style="stroke:#181818;stroke-width:1;"/><text fill="#000000" font-family="sans-serif" font-size="13" lengthAdjust="spacing" textLength="100.4251" x="696.27" y="306.3149">trust constraints</text></g><!--link GL to GE--><g class="link" data-entity-1="ent0014" data-entity-2="ent0009" data-link-type="dependency" data-source-line="112" id="lnk36"><path d="M630.05,288.9879 C640,286.7179 650.08,284.6579 659.77,283.0679 C749.04,268.3579 772.37,271.3979 862.77,268.0679 C1118.54,258.6279 1183,266.6679 1438.48,282.0679 C1520.28,286.9979 1608.3685,295.0034 1669.2585,300.9634" fill="none" id="GL-to-GE" style="stroke:#181818;stroke-width:1;"/><polygon fill="#181818" points="1675.23,301.5479,1666.6625,296.6902,1670.2538,301.0608,1665.8831,304.6521,1675.23,301.5479" style="stroke:#181818;stroke-width:1;"/><text fill="#000000" font-family="sans-serif" font-size="13" lengthAdjust="spacing" textLength="157.4561" x="1105.77" y="260.4449">derived graph constraints</text></g><!--link GL to OL--><g class="link" data-entity-1="ent0014" data-entity-2="ent0012" data-link-type="dependency" data-source-line="113" id="lnk37"><path d="M606.55,286.0679 C623.38,279.1579 642.11,272.1679 659.77,267.0679 C793.37,228.4879 828.72,212.0679 967.77,212.0679 C967.77,212.0679 967.77,212.0679 2115.9,212.0679 C2261.86,212.0679 2300.76,190.3879 2444.26,217.0679 C2459.48,219.8979 2469.777,222.6992 2484.447,227.9992" fill="none" id="GL-to-OL" style="stroke:#181818;stroke-width:1;"/><polygon fill="#181818" points="2490.09,230.0379,2482.9846,223.2178,2485.3875,228.339,2480.2663,230.7419,2490.09,230.0379" style="stroke:#181818;stroke-width:1;"/><text fill="#000000" font-family="sans-serif" font-size="13" lengthAdjust="spacing" textLength="100.5031" x="1506.98" y="207.9649">escalation policy</text></g><!--link GL to AS--><g class="link" data-entity-1="ent0014" data-entity-2="ent0018" data-link-type="dependency" data-source-line="114" id="lnk38"><path d="M569.38,335.6779 C586.35,359.5279 611.78,397.1179 629.77,432.0679 C646.4,464.3479 637.14,479.6679 659.77,508.0679 C732.5,599.2879 849.8207,663.9519 916.2707,695.8419" fill="none" id="GL-to-AS" style="stroke:#181818;stroke-width:1;"/><polygon fill="#181818" points="921.68,698.4379,915.2967,690.9377,917.1722,696.2746,911.8353,698.1502,921.68,698.4379" style="stroke:#181818;stroke-width:1;"/><text fill="#000000" font-family="sans-serif" font-size="13" lengthAdjust="spacing" textLength="58.8121" x="717.27" y="503.9649">audit trail</text></g><!--link AP to GL--><g class="link" data-entity-1="ent0015" data-entity-2="ent0014" data-link-type="dependency" data-source-line="115" id="lnk39"><path d="M215.71,165.9679 C289.71,198.1479 412.3378,251.4851 486.4278,283.7051" fill="none" id="AP-to-GL" style="stroke:#181818;stroke-width:1;"/><polygon fill="#181818" points="491.93,286.0979,485.2718,278.8406,487.3448,284.1039,482.0815,286.1769,491.93,286.0979" style="stroke:#181818;stroke-width:1;"/><text fill="#000000" font-family="sans-serif" font-size="13" lengthAdjust="spacing" textLength="116.9741" x="323.4" y="193.7849">refusal constraints,</text><text fill="#000000" font-family="sans-serif" font-size="13" lengthAdjust="spacing" textLength="100.7501" x="331.512" y="211.4909">red-team checks</text></g><!--link AP to GE--><g class="link" data-entity-1="ent0015" data-entity-2="ent0009" data-link-type="dependency" data-source-line="116" id="lnk40"><path d="M292.3,138.5079 C635.28,132.8679 1527.06,124.3179 1645.48,185.0679 C1686.24,205.9779 1711.7781,248.1963 1726.0281,277.6663" fill="none" id="AP-to-GE" style="stroke:#181818;stroke-width:1;"/><polygon fill="#181818" points="1728.64,283.0679,1728.3232,273.2242,1726.4634,278.5665,1721.121,276.7067,1728.64,283.0679" style="stroke:#181818;stroke-width:1;"/><text fill="#000000" font-family="sans-serif" font-size="13" lengthAdjust="spacing" textLength="127.1921" x="905.27" y="130.7949">anti-overclaim guard</text></g><!--link AP to OE--><g class="link" data-entity-1="ent0015" data-entity-2="ent0013" data-link-type="dependency" data-source-line="117" id="lnk41"><path d="M292.22,129.9579 C302.26,129.2679 312.24,128.6279 321.9,128.0679 C950.94,91.4379 1109.33,104.0679 1739.45,104.0679 C1739.45,104.0679 1739.45,104.0679 2549.6,104.0679 C2670.76,104.0679 2777.8222,213.7479 2821.8722,265.5279" fill="none" id="AP-to-OE" style="stroke:#181818;stroke-width:1;"/><polygon fill="#181818" points="2825.76,270.0979,2822.975,260.651,2822.5202,266.2896,2816.8816,265.8347,2825.76,270.0979" style="stroke:#181818;stroke-width:1;"/><text fill="#000000" font-family="sans-serif" font-size="13" lengthAdjust="spacing" textLength="133.0811" x="1490.48" y="99.2549">descriptive-only limits</text></g><!--link Reviewer to GL--><g class="link" data-entity-1="ent0003" data-entity-2="ent0014" data-link-type="dependency" data-source-line="119" id="lnk42"><path d="M187.76,571.5979 C215.62,561.9579 258.18,545.5279 291.9,525.0679 C385.56,468.2279 476.5943,383.2772 520.3443,340.2072" fill="none" id="Reviewer-to-GL" style="stroke:#181818;stroke-width:1;"/><polygon fill="#181818" points="524.62,335.9979,515.4002,339.4613,521.0569,339.5057,521.0126,345.1623,524.62,335.9979" style="stroke:#181818;stroke-width:1;"/><text fill="#000000" font-family="sans-serif" font-size="13" lengthAdjust="spacing" textLength="112.9181" x="325.0385" y="394.2849">review, correction,</text><text fill="#000000" font-family="sans-serif" font-size="13" lengthAdjust="spacing" textLength="117.1951" x="322.9" y="411.9909">exception handling</text></g><?plantuml-src RLJ1Rjim3BthAuXUcw3t7WOOgMS4C9QWwMwxi9BY29KbJvBJPiF-VQHi9wwtKnppwUdnyT799AjX-x9zXWSuQ1VDQutli8QDTmcDqm6U33O1Mo6iFYP87e9fJWcK2LecuvqGA9CFy3tgC3u-wxFHx_HNC0PTGtVSBI-vWzy2GFgsyqwxH03NzGcsBkbmHAdl02Diltt6x8ENEaRZ6YXTG_eoQb_-WsezQwCsmWZPB2vJz6FIPKwpNT1K0RlJ750j04ywcBDMKEi6BNprrlftoASolAu-mmjh6jVouuopM73kNWc5MNoD5nqoQ5SlG7rYhsOqkwLsVzR1ePDwHbCjQ0goOBr7vxja95tuG9DJwnUDBLGz1ZK8t8i_GYXC-8gHvbYU3Nb7l8SqcLiUPlN1jLkncXUBNfaqAnO78JWui5v_eM738_ITzQWYE0o1R3ZhrG-dlEpPjxW290A_WiQZZO8EyBbzIUUS3orQyul6OJX8KT1hhfO7giOKUfdwG5Kzwf_g-mtLzKSAb5qgItJAa61D19iCg9Y-ov6YEaMJTOJUQfQJV1j5DJ3L5G7Lc0cRC_40qg9feM5J104OjsF2_8Pf5GcxjhBb4eqYaQ0LaEX8FyTWygPTsovlkioKuqzAAkvvK33SSty33b96O76JmYiRHJ6ytzLigTQAUYGvHskuwnyEiv08GV_iwGEW106lBUNbNv43g2pbak17jFOLvTkA1e2fZs8tqEUHFn9BvmExwQXT6BdfcEIi37f4LTzct7dISSd-14z6J3MU87AMkrkMxyUHyIBbOKteR75sbeae6FIPIzTgDdMQuM3CVr3P7Xqbsc5J1s5JjM3tCIUTprbHx0VkElTyx2FDPSPA7PELwyHx9qzQliNhYNBgZDTvZ19lvWJO3NAZ3ARZPLbxPozWJMj8h9Y-m_FR-GtFD8oVRxfSVqZTvJvE57uQNVCN?></g></svg>