<?plantuml 1.2026.2?><svg xmlns="http://www.w3.org/2000/svg" xmlns:xlink="http://www.w3.org/1999/xlink" contentStyleType="text/css" data-diagram-type="DESCRIPTION" height="849px" preserveAspectRatio="none" style="width:1297px;height:849px;background:#FFFFFF;" version="1.1" viewBox="0 0 1297 849" width="1297px" zoomAndPan="magnify"><title>ITIR / SensibLaw - Local-first Secure Deployment</title><defs/><g><g class="title" data-source-line="477"><text fill="#000000" font-family="sans-serif" font-size="14" font-weight="bold" lengthAdjust="spacing" textLength="336.0828" x="473.4586" y="24.9659">ITIR / SensibLaw - Local-first Secure Deployment</text></g><!--cluster user_device--><g class="cluster" data-qualified-name="user_device" data-source-line="479" id="ent0002"><polygon fill="none" points="16,56.0679,26,46.0679,566,46.0679,566,813.9779,556,823.9779,16,823.9779,16,56.0679" style="stroke:#181818;stroke-width:1;"/><line style="stroke:#181818;stroke-width:1;" x1="556" x2="566" y1="56.0679" y2="46.0679"/><line style="stroke:#181818;stroke-width:1;" x1="16" x2="556" y1="56.0679" y2="56.0679"/><line style="stroke:#181818;stroke-width:1;" x1="556" x2="556" y1="56.0679" y2="823.9779"/><text fill="#000000" font-family="sans-serif" font-size="14" font-weight="bold" lengthAdjust="spacing" textLength="82.2357" x="245.8822" y="74.0339">User Device</text></g><!--cluster sync_node--><g class="cluster" data-qualified-name="sync_node" data-source-line="492" id="ent0013"><polygon fill="none" points="603,718.4079,613,708.4079,1069,708.4079,1069,822.4779,1059,832.4779,603,832.4779,603,718.4079" style="stroke:#181818;stroke-width:1;"/><line style="stroke:#181818;stroke-width:1;" x1="1059" x2="1069" y1="718.4079" y2="708.4079"/><line style="stroke:#181818;stroke-width:1;" x1="603" x2="1059" y1="718.4079" y2="718.4079"/><line style="stroke:#181818;stroke-width:1;" x1="1059" x2="1059" y1="718.4079" y2="832.4779"/><text fill="#000000" font-family="sans-serif" font-size="14" font-weight="bold" lengthAdjust="spacing" textLength="194.6272" x="734.6864" y="736.3739">Optional Trusted Sync Node</text></g><!--cluster reviewer_node--><g class="cluster" data-qualified-name="reviewer_node" data-source-line="497" id="ent0016"><polygon fill="none" points="674,551.3379,684,541.3379,1280,541.3379,1280,639.4079,1270,649.4079,674,649.4079,674,551.3379" style="stroke:#181818;stroke-width:1;"/><line style="stroke:#181818;stroke-width:1;" x1="1270" x2="1280" y1="551.3379" y2="541.3379"/><line style="stroke:#181818;stroke-width:1;" x1="674" x2="1270" y1="551.3379" y2="551.3379"/><line style="stroke:#181818;stroke-width:1;" x1="1270" x2="1270" y1="551.3379" y2="649.4079"/><text fill="#000000" font-family="sans-serif" font-size="14" font-weight="bold" lengthAdjust="spacing" textLength="209.6212" x="868.1894" y="569.3039">Optional Reviewer Workspace</text></g><!--entity app--><g class="entity" data-qualified-name="user_device.app" data-source-line="480" id="ent0003"><rect fill="#F1F1F1" height="49.0679" rx="2.5" ry="2.5" style="stroke:#181818;stroke-width:0.5;" width="170.7175" x="299.64" y="89.0679"/><rect fill="#F1F1F1" height="10" style="stroke:#181818;stroke-width:0.5;" width="15" x="450.3575" y="94.0679"/><rect fill="#F1F1F1" height="2" style="stroke:#181818;stroke-width:0.5;" width="4" x="448.3575" y="96.0679"/><rect fill="#F1F1F1" height="2" style="stroke:#181818;stroke-width:0.5;" width="4" x="448.3575" y="100.0679"/><text fill="#000000" font-family="sans-serif" font-size="14" lengthAdjust="spacing" textLength="130.7175" x="314.64" y="124.0339">Desktop / Local App</text></g><!--entity mode--><g class="entity" data-qualified-name="user_device.mode" data-source-line="481" id="ent0004"><rect fill="#F1F1F1" height="49.0679" rx="2.5" ry="2.5" style="stroke:#181818;stroke-width:0.5;" width="147.4916" x="402.25" y="199.1379"/><rect fill="#F1F1F1" height="10" style="stroke:#181818;stroke-width:0.5;" width="15" x="529.7416" y="204.1379"/><rect fill="#F1F1F1" height="2" style="stroke:#181818;stroke-width:0.5;" width="4" x="527.7416" y="206.1379"/><rect fill="#F1F1F1" height="2" style="stroke:#181818;stroke-width:0.5;" width="4" x="527.7416" y="210.1379"/><text fill="#000000" font-family="sans-serif" font-size="14" lengthAdjust="spacing" textLength="107.4916" x="417.25" y="234.1039">Mode Controller</text></g><!--entity processing--><g class="entity" data-qualified-name="user_device.processing" data-source-line="482" id="ent0005"><rect fill="#F1F1F1" height="49.0679" rx="2.5" ry="2.5" style="stroke:#181818;stroke-width:0.5;" width="160.4695" x="31.77" y="199.1379"/><rect fill="#F1F1F1" height="10" style="stroke:#181818;stroke-width:0.5;" width="15" x="172.2395" y="204.1379"/><rect fill="#F1F1F1" height="2" style="stroke:#181818;stroke-width:0.5;" width="4" x="170.2395" y="206.1379"/><rect fill="#F1F1F1" height="2" style="stroke:#181818;stroke-width:0.5;" width="4" x="170.2395" y="210.1379"/><text fill="#000000" font-family="sans-serif" font-size="14" lengthAdjust="spacing" textLength="120.4695" x="46.77" y="234.1039">Processing Engine</text></g><!--entity identity--><g class="entity" data-qualified-name="user_device.identity" data-source-line="483" id="ent0006"><rect fill="#F1F1F1" height="49.0679" rx="2.5" ry="2.5" style="stroke:#181818;stroke-width:0.5;" width="139.6096" x="227.2" y="199.1379"/><rect fill="#F1F1F1" height="10" style="stroke:#181818;stroke-width:0.5;" width="15" x="346.8096" y="204.1379"/><rect fill="#F1F1F1" height="2" style="stroke:#181818;stroke-width:0.5;" width="4" x="344.8096" y="206.1379"/><rect fill="#F1F1F1" height="2" style="stroke:#181818;stroke-width:0.5;" width="4" x="344.8096" y="210.1379"/><text fill="#000000" font-family="sans-serif" font-size="14" lengthAdjust="spacing" textLength="99.6096" x="242.2" y="234.1039">Identity Engine</text></g><!--entity graph--><g class="entity" data-qualified-name="user_device.graph" data-source-line="484" id="ent0007"><rect fill="#F1F1F1" height="49.0679" rx="2.5" ry="2.5" style="stroke:#181818;stroke-width:0.5;" width="210.5473" x="308.73" y="313.2079"/><rect fill="#F1F1F1" height="10" style="stroke:#181818;stroke-width:0.5;" width="15" x="499.2773" y="318.2079"/><rect fill="#F1F1F1" height="2" style="stroke:#181818;stroke-width:0.5;" width="4" x="497.2773" y="320.2079"/><rect fill="#F1F1F1" height="2" style="stroke:#181818;stroke-width:0.5;" width="4" x="497.2773" y="324.2079"/><text fill="#000000" font-family="sans-serif" font-size="14" lengthAdjust="spacing" textLength="170.5473" x="323.73" y="348.1739">Graph / Alignment Engine</text></g><!--entity obligations--><g class="entity" data-qualified-name="user_device.obligations" data-source-line="485" id="ent0008"><rect fill="#F1F1F1" height="49.0679" rx="2.5" ry="2.5" style="stroke:#181818;stroke-width:0.5;" width="159.3635" x="346.32" y="445.2779"/><rect fill="#F1F1F1" height="10" style="stroke:#181818;stroke-width:0.5;" width="15" x="485.6835" y="450.2779"/><rect fill="#F1F1F1" height="2" style="stroke:#181818;stroke-width:0.5;" width="4" x="483.6835" y="452.2779"/><rect fill="#F1F1F1" height="2" style="stroke:#181818;stroke-width:0.5;" width="4" x="483.6835" y="456.2779"/><text fill="#000000" font-family="sans-serif" font-size="14" lengthAdjust="spacing" textLength="119.3635" x="361.32" y="480.2439">Obligation Service</text></g><!--entity output--><g class="entity" data-qualified-name="user_device.output" data-source-line="486" id="ent0009"><rect fill="#F1F1F1" height="49.0679" rx="2.5" ry="2.5" style="stroke:#181818;stroke-width:0.5;" width="135.8016" x="383.1" y="584.3379"/><rect fill="#F1F1F1" height="10" style="stroke:#181818;stroke-width:0.5;" width="15" x="498.9016" y="589.3379"/><rect fill="#F1F1F1" height="2" style="stroke:#181818;stroke-width:0.5;" width="4" x="496.9016" y="591.3379"/><rect fill="#F1F1F1" height="2" style="stroke:#181818;stroke-width:0.5;" width="4" x="496.9016" y="595.3379"/><text fill="#000000" font-family="sans-serif" font-size="14" lengthAdjust="spacing" textLength="95.8016" x="398.1" y="619.3039">Output Engine</text></g><!--entity localdb--><g class="entity" data-qualified-name="user_device.localdb" data-source-line="487" id="ent0010"><path d="M253.52,769.9079 C253.52,759.9079 291.9959,759.9079 291.9959,759.9079 C291.9959,759.9079 330.4718,759.9079 330.4718,769.9079 L330.4718,797.9758 C330.4718,807.9758 291.9959,807.9758 291.9959,807.9758 C291.9959,807.9758 253.52,807.9758 253.52,797.9758 L253.52,769.9079" fill="#F1F1F1" style="stroke:#181818;stroke-width:0.5;"/><path d="M253.52,769.9079 C253.52,779.9079 291.9959,779.9079 291.9959,779.9079 C291.9959,779.9079 330.4718,779.9079 330.4718,769.9079" fill="none" style="stroke:#181818;stroke-width:0.5;"/><text fill="#000000" font-family="sans-serif" font-size="14" lengthAdjust="spacing" textLength="56.9518" x="263.52" y="798.8739">Local DB</text></g><!--entity blobs--><g class="entity" data-qualified-name="user_device.blobs" data-source-line="488" id="ent0011"><path d="M34.4,309.2079 L75.4,309.2079 A3.75,3.75 0 0 1 77.9,311.7079 L84.9,330.2079 L197.6075,330.2079 A2.5,2.5 0 0 1 200.1075,332.7079 L200.1075,363.7758 A2.5,2.5 0 0 1 197.6075,366.2758 L34.4,366.2758 A2.5,2.5 0 0 1 31.9,363.7758 L31.9,311.7079 A2.5,2.5 0 0 1 34.4,309.2079" fill="#F1F1F1" style="stroke:#181818;stroke-width:0.5;"/><line style="stroke:#181818;stroke-width:0.5;" x1="31.9" x2="84.9" y1="330.2079" y2="330.2079"/><text fill="#000000" font-family="sans-serif" font-size="14" lengthAdjust="spacing" textLength="138.2075" x="41.9" y="352.1739">Encrypted Blob Store</text></g><!--entity audit--><g class="entity" data-qualified-name="user_device.audit" data-source-line="489" id="ent0012"><rect fill="#F1F1F1" height="49.0679" rx="2.5" ry="2.5" style="stroke:#181818;stroke-width:0.5;" width="125.2177" x="74.39" y="584.3379"/><rect fill="#F1F1F1" height="10" style="stroke:#181818;stroke-width:0.5;" width="15" x="179.6077" y="589.3379"/><rect fill="#F1F1F1" height="2" style="stroke:#181818;stroke-width:0.5;" width="4" x="177.6077" y="591.3379"/><rect fill="#F1F1F1" height="2" style="stroke:#181818;stroke-width:0.5;" width="4" x="177.6077" y="595.3379"/><text fill="#000000" font-family="sans-serif" font-size="14" lengthAdjust="spacing" textLength="85.2177" x="89.39" y="619.3039">Audit Logger</text></g><!--entity syncdb--><g class="entity" data-qualified-name="sync_node.syncdb" data-source-line="493" id="ent0014"><path d="M886.69,769.9079 C886.69,759.9079 965.9967,759.9079 965.9967,759.9079 C965.9967,759.9079 1045.3035,759.9079 1045.3035,769.9079 L1045.3035,797.9758 C1045.3035,807.9758 965.9967,807.9758 965.9967,807.9758 C965.9967,807.9758 886.69,807.9758 886.69,797.9758 L886.69,769.9079" fill="#F1F1F1" style="stroke:#181818;stroke-width:0.5;"/><path d="M886.69,769.9079 C886.69,779.9079 965.9967,779.9079 965.9967,779.9079 C965.9967,779.9079 1045.3035,779.9079 1045.3035,769.9079" fill="none" style="stroke:#181818;stroke-width:0.5;"/><text fill="#000000" font-family="sans-serif" font-size="14" lengthAdjust="spacing" textLength="138.6135" x="896.69" y="798.8739">Encrypted Sync Store</text></g><!--entity exchange--><g class="entity" data-qualified-name="sync_node.exchange" data-source-line="494" id="ent0015"><rect fill="#F1F1F1" height="49.0679" rx="2.5" ry="2.5" style="stroke:#181818;stroke-width:0.5;" width="205.3954" x="646.3" y="759.4079"/><rect fill="#F1F1F1" height="10" style="stroke:#181818;stroke-width:0.5;" width="15" x="831.6954" y="764.4079"/><rect fill="#F1F1F1" height="2" style="stroke:#181818;stroke-width:0.5;" width="4" x="829.6954" y="766.4079"/><rect fill="#F1F1F1" height="2" style="stroke:#181818;stroke-width:0.5;" width="4" x="829.6954" y="770.4079"/><text fill="#000000" font-family="sans-serif" font-size="14" lengthAdjust="spacing" textLength="165.3954" x="661.3" y="794.3739">Artifact Exchange Service</text></g><!--entity reviewer_ui--><g class="entity" data-qualified-name="reviewer_node.reviewer_ui" data-source-line="498" id="ent0017"><rect fill="#F1F1F1" height="49.0679" rx="2.5" ry="2.5" style="stroke:#181818;stroke-width:0.5;" width="118.5257" x="689.74" y="584.3379"/><rect fill="#F1F1F1" height="10" style="stroke:#181818;stroke-width:0.5;" width="15" x="788.2657" y="589.3379"/><rect fill="#F1F1F1" height="2" style="stroke:#181818;stroke-width:0.5;" width="4" x="786.2657" y="591.3379"/><rect fill="#F1F1F1" height="2" style="stroke:#181818;stroke-width:0.5;" width="4" x="786.2657" y="595.3379"/><text fill="#000000" font-family="sans-serif" font-size="14" lengthAdjust="spacing" textLength="78.5257" x="704.74" y="619.3039">Reviewer UI</text></g><!--entity governance_ui--><g class="entity" data-qualified-name="reviewer_node.governance_ui" data-source-line="499" id="ent0018"><rect fill="#F1F1F1" height="49.0679" rx="2.5" ry="2.5" style="stroke:#181818;stroke-width:0.5;" width="195.6234" x="1068.19" y="584.3379"/><rect fill="#F1F1F1" height="10" style="stroke:#181818;stroke-width:0.5;" width="15" x="1243.8134" y="589.3379"/><rect fill="#F1F1F1" height="2" style="stroke:#181818;stroke-width:0.5;" width="4" x="1241.8134" y="591.3379"/><rect fill="#F1F1F1" height="2" style="stroke:#181818;stroke-width:0.5;" width="4" x="1241.8134" y="595.3379"/><text fill="#000000" font-family="sans-serif" font-size="14" lengthAdjust="spacing" textLength="155.6234" x="1083.19" y="619.3039">Governance Dashboard</text></g><!--entity operations_ui--><g class="entity" data-qualified-name="reviewer_node.operations_ui" data-source-line="500" id="ent0019"><rect fill="#F1F1F1" height="49.0679" rx="2.5" ry="2.5" style="stroke:#181818;stroke-width:0.5;" width="189.9675" x="843.02" y="584.3379"/><rect fill="#F1F1F1" height="10" style="stroke:#181818;stroke-width:0.5;" width="15" x="1012.9875" y="589.3379"/><rect fill="#F1F1F1" height="2" style="stroke:#181818;stroke-width:0.5;" width="4" x="1010.9875" y="591.3379"/><rect fill="#F1F1F1" height="2" style="stroke:#181818;stroke-width:0.5;" width="4" x="1010.9875" y="595.3379"/><text fill="#000000" font-family="sans-serif" font-size="14" lengthAdjust="spacing" textLength="149.9675" x="858.02" y="619.3039">Operations Dashboard</text></g><!--link app to mode--><g class="link" data-entity-1="ent0003" data-entity-2="ent0004" data-link-type="dependency" data-source-line="503" id="lnk20"><path d="M405.2,138.5879 C420.28,156.4979 436.9245,176.279 451.9945,194.169" fill="none" id="app-to-mode" style="stroke:#181818;stroke-width:1;"/><polygon fill="#181818" points="455.86,198.7579,453.121,189.2976,452.6387,194.9339,447.0025,194.4516,455.86,198.7579" style="stroke:#181818;stroke-width:1;"/></g><!--link app to processing--><g class="link" data-entity-1="ent0003" data-entity-2="ent0005" data-link-type="dependency" data-source-line="504" id="lnk21"><path d="M324.41,138.5879 C279.17,156.4979 223.1989,178.6598 177.9989,196.5498" fill="none" id="app-to-processing" style="stroke:#181818;stroke-width:1;"/><polygon fill="#181818" points="172.42,198.7579,182.2604,199.165,177.0691,196.9178,179.3163,191.7265,172.42,198.7579" style="stroke:#181818;stroke-width:1;"/></g><!--link app to identity--><g class="link" data-entity-1="ent0003" data-entity-2="ent0006" data-link-type="dependency" data-source-line="505" id="lnk22"><path d="M365.47,138.5879 C350.89,156.4979 334.8389,176.2156 320.2689,194.1056" fill="none" id="app-to-identity" style="stroke:#181818;stroke-width:1;"/><polygon fill="#181818" points="316.48,198.7579,325.2649,194.3054,319.6374,194.881,319.0619,189.2535,316.48,198.7579" style="stroke:#181818;stroke-width:1;"/></g><!--link processing to graph--><g class="link" data-entity-1="ent0005" data-entity-2="ent0007" data-link-type="dependency" data-source-line="506" id="lnk23"><path d="M176.42,248.5779 C227.43,267.5079 292.7349,291.7403 343.7949,310.6903" fill="none" id="processing-to-graph" style="stroke:#181818;stroke-width:1;"/><polygon fill="#181818" points="349.42,312.7779,342.3741,305.8964,344.7324,311.0382,339.5906,313.3965,349.42,312.7779" style="stroke:#181818;stroke-width:1;"/></g><!--link identity to graph--><g class="link" data-entity-1="ent0006" data-entity-2="ent0007" data-link-type="dependency" data-source-line="507" id="lnk24"><path d="M321.81,248.4379 C341.67,267.4579 365.0477,289.8469 384.8877,308.8569" fill="none" id="identity-to-graph" style="stroke:#181818;stroke-width:1;"/><polygon fill="#181818" points="389.22,313.0079,385.4889,303.8931,385.6098,309.5487,379.9542,309.6695,389.22,313.0079" style="stroke:#181818;stroke-width:1;"/></g><!--link graph to obligations--><g class="link" data-entity-1="ent0007" data-entity-2="ent0008" data-link-type="dependency" data-source-line="508" id="lnk25"><path d="M416.2,362.5979 C418.37,386.0679 421.0987,415.7133 423.2587,439.1233" fill="none" id="graph-to-obligations" style="stroke:#181818;stroke-width:1;"/><polygon fill="#181818" points="423.81,445.0979,426.9662,435.7685,423.3506,440.1191,419,436.5035,423.81,445.0979" style="stroke:#181818;stroke-width:1;"/></g><!--link obligations to output--><g class="link" data-entity-1="ent0008" data-entity-2="ent0009" data-link-type="dependency" data-source-line="509" id="lnk26"><path d="M430.35,494.6879 C434.94,519.8379 441.0536,553.3153 445.6236,578.3753" fill="none" id="obligations-to-output" style="stroke:#181818;stroke-width:1;"/><polygon fill="#181818" points="446.7,584.2779,449.0205,574.7063,445.803,579.359,441.1503,576.1416,446.7,584.2779" style="stroke:#181818;stroke-width:1;"/></g><!--link processing to localdb--><g class="link" data-entity-1="ent0005" data-entity-2="ent0010" data-link-type="dependency" data-source-line="511" id="lnk27"><path d="M166.75,248.6279 C199.97,267.2579 236,296.6979 236,336.7379 C236,336.7379 236,336.7379 236,609.8779 C236,665.7779 260.0532,721.7582 276.5732,754.2882" fill="none" id="processing-to-localdb" style="stroke:#181818;stroke-width:1;"/><polygon fill="#181818" points="279.29,759.6379,278.7813,749.8022,277.026,755.1798,271.6484,753.4246,279.29,759.6379" style="stroke:#181818;stroke-width:1;"/></g><!--link identity to localdb--><g class="link" data-entity-1="ent0006" data-entity-2="ent0010" data-link-type="dependency" data-source-line="512" id="lnk28"><path d="M288.87,248.4079 C281.91,270.8779 273,305.6979 273,336.7379 C273,336.7379 273,336.7379 273,609.8779 C273,663.6779 281.1932,720.4213 286.7832,753.6013" fill="none" id="identity-to-localdb" style="stroke:#181818;stroke-width:1;"/><polygon fill="#181818" points="287.78,759.5179,290.2292,749.9785,286.9493,754.5874,282.3404,751.3075,287.78,759.5179" style="stroke:#181818;stroke-width:1;"/></g><!--link graph to localdb--><g class="link" data-entity-1="ent0007" data-entity-2="ent0010" data-link-type="dependency" data-source-line="513" id="lnk29"><path d="M388.11,362.7479 C368.32,382.7679 342.27,413.1179 329,445.2779 C283.34,555.9479 286.4684,697.4388 289.8684,753.7588" fill="none" id="graph-to-localdb" style="stroke:#181818;stroke-width:1;"/><polygon fill="#181818" points="290.23,759.7479,293.6804,750.5232,289.9287,754.757,285.6949,751.0053,290.23,759.7479" style="stroke:#181818;stroke-width:1;"/></g><!--link obligations to localdb--><g class="link" data-entity-1="ent0008" data-entity-2="ent0010" data-link-type="dependency" data-source-line="514" id="lnk30"><path d="M397.83,494.6679 C386.56,505.4779 374.32,519.0379 366,533.3379 C360.14,543.4279 317.2155,693.8751 300.2055,753.9151" fill="none" id="obligations-to-localdb" style="stroke:#181818;stroke-width:1;"/><polygon fill="#181818" points="298.57,759.6879,304.8718,752.1191,299.9329,754.8773,297.1747,749.9384,298.57,759.6879" style="stroke:#181818;stroke-width:1;"/></g><!--link output to localdb--><g class="link" data-entity-1="ent0009" data-entity-2="ent0010" data-link-type="dependency" data-source-line="515" id="lnk31"><path d="M429.23,633.5779 C398.78,666.7179 347.8794,722.1196 317.5694,755.1096" fill="none" id="output-to-localdb" style="stroke:#181818;stroke-width:1;"/><polygon fill="#181818" points="313.51,759.5279,322.5446,755.6067,316.8928,755.846,316.6535,750.1942,313.51,759.5279" style="stroke:#181818;stroke-width:1;"/></g><!--link audit to localdb--><g class="link" data-entity-1="ent0012" data-entity-2="ent0010" data-link-type="dependency" data-source-line="516" id="lnk32"><path d="M158.23,633.5779 C187.91,666.7179 237.4875,722.068 267.0275,755.058" fill="none" id="audit-to-localdb" style="stroke:#181818;stroke-width:1;"/><polygon fill="#181818" points="271.03,759.5279,268.0062,750.1547,267.6946,755.803,262.0463,755.4913,271.03,759.5279" style="stroke:#181818;stroke-width:1;"/></g><!--link processing to blobs--><g class="link" data-entity-1="ent0005" data-entity-2="ent0011" data-link-type="dependency" data-source-line="517" id="lnk33"><path d="M112.85,248.4379 C113.48,266.1679 114.1373,305.4517 114.7973,324.0617" fill="none" id="processing-to-blobs" style="stroke:#181818;stroke-width:1;"/><polygon fill="#181818" points="115.01,330.0579,118.6885,320.9218,114.8328,325.0611,110.6935,321.2053,115.01,330.0579" style="stroke:#181818;stroke-width:1;"/></g><!--link app to sync_node--><g class="link" data-entity-1="ent0003" data-entity-2="ent0013" data-link-type="dependency" data-source-line="519" id="lnk34"><path d="M470.55,121.1479 C535.24,131.3279 613,157.1879 613,222.6679 C613,222.6679 613,222.6679 613,609.8779 C613,628.8079 612.8788,648.9023 612.6959,668.4415 C612.6045,678.2111 612.4977,687.8419 612.383,697.119 C612.3543,699.4383 612.3251,701.7355 612.2956,704.0072 C612.2808,705.143 612.2659,706.2725 612.251,707.3952 C612.2473,707.6759 612.3239,701.9567 612.3201,702.2365" fill="none" id="app-to-sync_node" style="stroke:#181818;stroke-width:1;"/><polygon fill="#181818" points="612.2398,708.2359,616.3599,699.2903,612.3067,703.2364,608.3607,699.1832,612.2398,708.2359" style="stroke:#181818;stroke-width:1;"/><text fill="#000000" font-family="sans-serif" font-size="13" lengthAdjust="spacing" textLength="121.3941" x="614" y="411.1749">encrypted sync only</text></g><!--link output to exchange--><g class="link" data-entity-1="ent0009" data-entity-2="ent0015" data-link-type="dependency" data-source-line="520" id="lnk35"><path d="M490.81,633.8179 C519.86,650.3079 560.7,671.4979 599,684.4079 C617.42,690.6179 624.44,684.0779 642,692.4079 C675.86,708.4779 703.5569,733.638 723.5569,754.588" fill="none" id="output-to-exchange" style="stroke:#181818;stroke-width:1;"/><polygon fill="#181818" points="727.7,758.9279,724.3786,749.656,724.2474,755.3113,718.5921,755.1801,727.7,758.9279" style="stroke:#181818;stroke-width:1;"/><text fill="#000000" font-family="sans-serif" font-size="13" lengthAdjust="spacing" textLength="140.7251" x="600" y="680.3049">approved artifacts only</text></g><!--link reviewer_ui to exchange--><g class="link" data-entity-1="ent0017" data-entity-2="ent0015" data-link-type="dependency" data-source-line="521" id="lnk36"><path d="M749,633.5779 C749,666.5379 749,719.8779 749,752.9779" fill="none" id="reviewer_ui-to-exchange" style="stroke:#181818;stroke-width:1;"/><polygon fill="#181818" points="749,758.9779,753,749.9779,749,753.9779,745,749.9779,749,758.9779" style="stroke:#181818;stroke-width:1;"/><text fill="#000000" font-family="sans-serif" font-size="13" lengthAdjust="spacing" textLength="121.3811" x="750" y="680.3049">pull shared artifacts</text></g><!--link governance_ui to syncdb--><g class="link" data-entity-1="ent0018" data-entity-2="ent0014" data-link-type="dependency" data-source-line="522" id="lnk37"><path d="M1138.61,633.5779 C1100.31,666.7179 1035.7169,722.6116 997.5969,755.6016" fill="none" id="governance_ui-to-syncdb" style="stroke:#181818;stroke-width:1;"/><polygon fill="#181818" points="993.06,759.5279,1002.483,756.663,996.8408,756.2559,997.2478,750.6138,993.06,759.5279" style="stroke:#181818;stroke-width:1;"/></g><!--link operations_ui to syncdb--><g class="link" data-entity-1="ent0019" data-entity-2="ent0014" data-link-type="dependency" data-source-line="523" id="lnk38"><path d="M941.83,633.5779 C947.2,666.7179 955.9113,720.615 961.2513,753.605" fill="none" id="operations_ui-to-syncdb" style="stroke:#181818;stroke-width:1;"/><polygon fill="#181818" points="962.21,759.5279,964.7205,750.0044,961.4111,754.5922,956.8233,751.2827,962.21,759.5279" style="stroke:#181818;stroke-width:1;"/></g><?plantuml-src RLB1Rjim3BtxAuZSWzvt690knH2WNOQcHO-5R2cEK4KK9BcTKUpVHqcsB7cznE7ZUoH5FY-z4d1uEZp23Po4ThAzPn-mXNlicDgUfNMUy6wm0lR2A1olGlkcqSW5R9wTi0I_oqviW3aOA7xbCORF1g33gq5D0jZiXNlpQAXBh0mxOwA46LCJ7qBb7wYzHQM4ZQGhOJNhjyLEE2Tr3tUwbphrDncjsGTE7-d7aYidh6R-jCnSQCYTahqEJoqbVKZM_6DBHEObQjgIpOl03BiLV_1cg8fYH8Z5cMSjSxJMjA7zRSoh4F2M26TKdFQzkTET7OqN76uLjd3oQ5Efbi9Llzt0fQULz_sqIXQ0vkzymQC9GrAt9pkuKF8qwWv-KIwo7KMlaVbPJRYC4FdB244GXordi5wUMKUl_jDTcEv5jIenWL_Cz4XE4X_qv1UqRywmIM4dU1ciQ9OrpuUQFCZLfV5TMCqqMNNFtAL5PdcwSaxyfpaQOTDLLnhCYQ2Xbv2jORlzdfmx1uKzPoYxSCb5F5bjpXPG_8rnwR7YVyebKwshpbwgwixWKdb6rbKpdanSGj5M5R9gdRoPtxqOwnk8RAQ00cerbYrcWn2Jr9Qkmu5DbdA9NHnvBJ63Kk0kp9Qgfhfn7YWyhJnaaVW7?></g></svg>