<?plantuml 1.2026.2?><svg xmlns="http://www.w3.org/2000/svg" xmlns:xlink="http://www.w3.org/1999/xlink" contentStyleType="text/css" data-diagram-type="DESCRIPTION" height="932px" preserveAspectRatio="none" style="width:477px;height:932px;background:#FFFFFF;" version="1.1" viewBox="0 0 477 932" width="477px" zoomAndPan="magnify"><title>Container Model (Compact)</title><defs/><g><g class="title" data-source-line="123"><text fill="#000000" font-family="sans-serif" font-size="14" font-weight="bold" lengthAdjust="spacing" textLength="191.2253" x="135.8874" y="24.9659">Container Model (Compact)</text></g><!--cluster ITIR System--><g class="cluster" data-qualified-name="ITIR System" data-source-line="127" id="ent0003"><rect fill="none" height="757.47" rx="2.5" ry="2.5" style="stroke:#181818;stroke-width:1;" width="295" x="7" y="47.0679"/><text fill="#000000" font-family="sans-serif" font-size="14" font-weight="bold" lengthAdjust="spacing" textLength="82.6137" x="113.1932" y="64.0339">ITIR System</text></g><!--entity Input--><g class="entity" data-qualified-name="ITIR System.Input" data-source-line="128" id="ent0004"><rect fill="#F1F1F1" height="49.0679" rx="2.5" ry="2.5" style="stroke:#181818;stroke-width:0.5;" width="75.7139" x="192.14" y="85.0679"/><rect fill="#F1F1F1" height="10" style="stroke:#181818;stroke-width:0.5;" width="15" x="247.8539" y="90.0679"/><rect fill="#F1F1F1" height="2" style="stroke:#181818;stroke-width:0.5;" width="4" x="245.8539" y="92.0679"/><rect fill="#F1F1F1" height="2" style="stroke:#181818;stroke-width:0.5;" width="4" x="245.8539" y="96.0679"/><text fill="#000000" font-family="sans-serif" font-size="14" lengthAdjust="spacing" textLength="35.7139" x="207.14" y="120.0339">Input</text></g><!--entity Processing--><g class="entity" data-qualified-name="ITIR System.Processing" data-source-line="129" id="ent0005"><rect fill="#F1F1F1" height="49.0679" rx="2.5" ry="2.5" style="stroke:#181818;stroke-width:0.5;" width="111.6237" x="174.19" y="194.1279"/><rect fill="#F1F1F1" height="10" style="stroke:#181818;stroke-width:0.5;" width="15" x="265.8137" y="199.1279"/><rect fill="#F1F1F1" height="2" style="stroke:#181818;stroke-width:0.5;" width="4" x="263.8137" y="201.1279"/><rect fill="#F1F1F1" height="2" style="stroke:#181818;stroke-width:0.5;" width="4" x="263.8137" y="205.1279"/><text fill="#000000" font-family="sans-serif" font-size="14" lengthAdjust="spacing" textLength="71.6237" x="189.19" y="229.0939">Processing</text></g><!--entity Identity--><g class="entity" data-qualified-name="ITIR System.Identity" data-source-line="130" id="ent0006"><rect fill="#F1F1F1" height="49.0679" rx="2.5" ry="2.5" style="stroke:#181818;stroke-width:0.5;" width="90.7638" x="48.62" y="194.1279"/><rect fill="#F1F1F1" height="10" style="stroke:#181818;stroke-width:0.5;" width="15" x="119.3838" y="199.1279"/><rect fill="#F1F1F1" height="2" style="stroke:#181818;stroke-width:0.5;" width="4" x="117.3838" y="201.1279"/><rect fill="#F1F1F1" height="2" style="stroke:#181818;stroke-width:0.5;" width="4" x="117.3838" y="205.1279"/><text fill="#000000" font-family="sans-serif" font-size="14" lengthAdjust="spacing" textLength="50.7638" x="63.62" y="229.0939">Identity</text></g><!--entity Graph--><g class="entity" data-qualified-name="ITIR System.Graph" data-source-line="131" id="ent0007"><rect fill="#F1F1F1" height="49.0679" rx="2.5" ry="2.5" style="stroke:#181818;stroke-width:0.5;" width="81.0898" x="121.46" y="303.1979"/><rect fill="#F1F1F1" height="10" style="stroke:#181818;stroke-width:0.5;" width="15" x="182.5498" y="308.1979"/><rect fill="#F1F1F1" height="2" style="stroke:#181818;stroke-width:0.5;" width="4" x="180.5498" y="310.1979"/><rect fill="#F1F1F1" height="2" style="stroke:#181818;stroke-width:0.5;" width="4" x="180.5498" y="314.1979"/><text fill="#000000" font-family="sans-serif" font-size="14" lengthAdjust="spacing" textLength="41.0898" x="136.46" y="338.1639">Graph</text></g><!--entity Alignment--><g class="entity" data-qualified-name="ITIR System.Alignment" data-source-line="132" id="ent0008"><rect fill="#F1F1F1" height="49.0679" rx="2.5" ry="2.5" style="stroke:#181818;stroke-width:0.5;" width="108.1237" x="22.94" y="412.2679"/><rect fill="#F1F1F1" height="10" style="stroke:#181818;stroke-width:0.5;" width="15" x="111.0637" y="417.2679"/><rect fill="#F1F1F1" height="2" style="stroke:#181818;stroke-width:0.5;" width="4" x="109.0637" y="419.2679"/><rect fill="#F1F1F1" height="2" style="stroke:#181818;stroke-width:0.5;" width="4" x="109.0637" y="423.2679"/><text fill="#000000" font-family="sans-serif" font-size="14" lengthAdjust="spacing" textLength="68.1237" x="37.94" y="447.2339">Alignment</text></g><!--entity ModeController--><g class="entity" data-qualified-name="ITIR System.ModeController" data-source-line="133" id="ent0009"><rect fill="#F1F1F1" height="49.0679" rx="2.5" ry="2.5" style="stroke:#181818;stroke-width:0.5;" width="143.8516" x="46.07" y="521.3379"/><rect fill="#F1F1F1" height="10" style="stroke:#181818;stroke-width:0.5;" width="15" x="169.9216" y="526.3379"/><rect fill="#F1F1F1" height="2" style="stroke:#181818;stroke-width:0.5;" width="4" x="167.9216" y="528.3379"/><rect fill="#F1F1F1" height="2" style="stroke:#181818;stroke-width:0.5;" width="4" x="167.9216" y="532.3379"/><text fill="#000000" font-family="sans-serif" font-size="14" lengthAdjust="spacing" textLength="103.8516" x="61.07" y="556.3039">ModeController</text></g><!--entity ObligationLayer--><g class="entity" data-qualified-name="ITIR System.ObligationLayer" data-source-line="134" id="ent0010"><rect fill="#F1F1F1" height="49.0679" rx="2.5" ry="2.5" style="stroke:#181818;stroke-width:0.5;" width="145.0276" x="140.49" y="630.4079"/><rect fill="#F1F1F1" height="10" style="stroke:#181818;stroke-width:0.5;" width="15" x="265.5176" y="635.4079"/><rect fill="#F1F1F1" height="2" style="stroke:#181818;stroke-width:0.5;" width="4" x="263.5176" y="637.4079"/><rect fill="#F1F1F1" height="2" style="stroke:#181818;stroke-width:0.5;" width="4" x="263.5176" y="641.4079"/><text fill="#000000" font-family="sans-serif" font-size="14" lengthAdjust="spacing" textLength="105.0276" x="155.49" y="665.3739">ObligationLayer</text></g><!--entity Output--><g class="entity" data-qualified-name="ITIR System.Output" data-source-line="135" id="ent0011"><rect fill="#F1F1F1" height="49.0679" rx="2.5" ry="2.5" style="stroke:#181818;stroke-width:0.5;" width="86.9558" x="184.52" y="739.4679"/><rect fill="#F1F1F1" height="10" style="stroke:#181818;stroke-width:0.5;" width="15" x="251.4758" y="744.4679"/><rect fill="#F1F1F1" height="2" style="stroke:#181818;stroke-width:0.5;" width="4" x="249.4758" y="746.4679"/><rect fill="#F1F1F1" height="2" style="stroke:#181818;stroke-width:0.5;" width="4" x="249.4758" y="750.4679"/><text fill="#000000" font-family="sans-serif" font-size="14" lengthAdjust="spacing" textLength="46.9558" x="199.52" y="774.4339">Output</text></g><!--entity Governance--><g class="entity" data-qualified-name="ITIR System.Governance" data-source-line="136" id="ent0012"><rect fill="#F1F1F1" height="49.0679" rx="2.5" ry="2.5" style="stroke:#181818;stroke-width:0.5;" width="119.2257" x="166.39" y="412.2679"/><rect fill="#F1F1F1" height="10" style="stroke:#181818;stroke-width:0.5;" width="15" x="265.6157" y="417.2679"/><rect fill="#F1F1F1" height="2" style="stroke:#181818;stroke-width:0.5;" width="4" x="263.6157" y="419.2679"/><rect fill="#F1F1F1" height="2" style="stroke:#181818;stroke-width:0.5;" width="4" x="263.6157" y="423.2679"/><text fill="#000000" font-family="sans-serif" font-size="14" lengthAdjust="spacing" textLength="79.2257" x="181.39" y="447.2339">Governance</text></g><!--entity User--><g class="entity" data-qualified-name="User" data-source-line="125" id="ent0002"><ellipse cx="355.9989" cy="857.0379" fill="#F1F1F1" rx="8" ry="8" style="stroke:#181818;stroke-width:0.5;"/><path d="M355.9989,865.0379 L355.9989,892.0379 M342.9989,873.0379 L368.9989,873.0379 M355.9989,892.0379 L342.9989,907.0379 M355.9989,892.0379 L368.9989,907.0379" fill="none" style="stroke:#181818;stroke-width:0.5;"/><text fill="#000000" font-family="sans-serif" font-size="14" lengthAdjust="spacing" textLength="30.6179" x="340.69" y="923.5039">User</text></g><!--entity Evidence--><g class="entity" data-qualified-name="Evidence" data-source-line="139" id="ent0013"><path d="M317.86,313.6979 C317.86,303.6979 357.0009,303.6979 357.0009,303.6979 C357.0009,303.6979 396.1418,303.6979 396.1418,313.6979 L396.1418,341.7658 C396.1418,351.7658 357.0009,351.7658 357.0009,351.7658 C357.0009,351.7658 317.86,351.7658 317.86,341.7658 L317.86,313.6979" fill="#F1F1F1" style="stroke:#181818;stroke-width:0.5;"/><path d="M317.86,313.6979 C317.86,323.6979 357.0009,323.6979 357.0009,323.6979 C357.0009,323.6979 396.1418,323.6979 396.1418,313.6979" fill="none" style="stroke:#181818;stroke-width:0.5;"/><text fill="#000000" font-family="sans-serif" font-size="14" lengthAdjust="spacing" textLength="58.2818" x="327.86" y="342.6639">Evidence</text></g><!--entity GraphStore--><g class="entity" data-qualified-name="GraphStore" data-source-line="140" id="ent0014"><path d="M321.01,422.7679 C321.01,412.7679 368.9989,412.7679 368.9989,412.7679 C368.9989,412.7679 416.9877,412.7679 416.9877,422.7679 L416.9877,450.8358 C416.9877,460.8358 368.9989,460.8358 368.9989,460.8358 C368.9989,460.8358 321.01,460.8358 321.01,450.8358 L321.01,422.7679" fill="#F1F1F1" style="stroke:#181818;stroke-width:0.5;"/><path d="M321.01,422.7679 C321.01,432.7679 368.9989,432.7679 368.9989,432.7679 C368.9989,432.7679 416.9877,432.7679 416.9877,422.7679" fill="none" style="stroke:#181818;stroke-width:0.5;"/><text fill="#000000" font-family="sans-serif" font-size="14" lengthAdjust="spacing" textLength="75.9777" x="331.01" y="451.7339">GraphStore</text></g><!--entity Audit--><g class="entity" data-qualified-name="Audit" data-source-line="141" id="ent0015"><path d="M317.56,531.8379 C317.56,521.8379 344.9969,521.8379 344.9969,521.8379 C344.9969,521.8379 372.4339,521.8379 372.4339,531.8379 L372.4339,559.9058 C372.4339,569.9058 344.9969,569.9058 344.9969,569.9058 C344.9969,569.9058 317.56,569.9058 317.56,559.9058 L317.56,531.8379" fill="#F1F1F1" style="stroke:#181818;stroke-width:0.5;"/><path d="M317.56,531.8379 C317.56,541.8379 344.9969,541.8379 344.9969,541.8379 C344.9969,541.8379 372.4339,541.8379 372.4339,531.8379" fill="none" style="stroke:#181818;stroke-width:0.5;"/><text fill="#000000" font-family="sans-serif" font-size="14" lengthAdjust="spacing" textLength="34.8739" x="327.56" y="560.8039">Audit</text></g><!--link User to Input--><g class="link" data-entity-1="ent0002" data-entity-2="ent0004" data-link-type="dependency" data-source-line="143" id="lnk16"><path d="M371.61,869.6679 C402.83,832.9879 470,743.8579 470,655.9379 C470,326.7379 470,326.7379 470,326.7379 C470,219.4979 341.6139,154.1037 273.8539,126.7537" fill="none" id="User-to-Input" style="stroke:#181818;stroke-width:1;"/><polygon fill="#181818" points="268.29,124.5079,275.1386,131.5858,272.9266,126.3794,278.133,124.1673,268.29,124.5079" style="stroke:#181818;stroke-width:1;"/></g><!--link Input to Processing--><g class="link" data-entity-1="ent0004" data-entity-2="ent0005" data-link-type="dependency" data-source-line="144" id="lnk17"><path d="M230,134.6279 C230,152.2579 230,170.1079 230,187.7179" fill="none" id="Input-to-Processing" style="stroke:#181818;stroke-width:1;"/><polygon fill="#181818" points="230,193.7179,234,184.7179,230,188.7179,226,184.7179,230,193.7179" style="stroke:#181818;stroke-width:1;"/></g><!--link Processing to Evidence--><g class="link" data-entity-1="ent0005" data-entity-2="ent0013" data-link-type="dependency" data-source-line="145" id="lnk18"><path d="M258.5,243.6979 C279.71,261.5779 303.9019,281.9715 324.8819,299.6515" fill="none" id="Processing-to-Evidence" style="stroke:#181818;stroke-width:1;"/><polygon fill="#181818" points="329.47,303.5179,325.1655,294.6595,325.6466,300.2959,320.0102,300.777,329.47,303.5179" style="stroke:#181818;stroke-width:1;"/></g><!--link Input to Identity--><g class="link" data-entity-1="ent0004" data-entity-2="ent0006" data-link-type="dependency" data-source-line="146" id="lnk19"><path d="M199.48,134.6279 C177.08,152.2579 151.5045,172.3966 129.1345,190.0066" fill="none" id="Input-to-Identity" style="stroke:#181818;stroke-width:1;"/><polygon fill="#181818" points="124.42,193.7179,133.9659,191.2939,128.3487,190.6252,129.0175,185.008,124.42,193.7179" style="stroke:#181818;stroke-width:1;"/></g><!--link Identity to Graph--><g class="link" data-entity-1="ent0006" data-entity-2="ent0007" data-link-type="dependency" data-source-line="147" id="lnk20"><path d="M109.26,243.6979 C120.46,261.3279 132.3834,280.103 143.5734,297.723" fill="none" id="Identity-to-Graph" style="stroke:#181818;stroke-width:1;"/><polygon fill="#181818" points="146.79,302.7879,145.3417,293.0461,144.1095,298.5671,138.5885,297.3349,146.79,302.7879" style="stroke:#181818;stroke-width:1;"/></g><!--link Processing to Graph--><g class="link" data-entity-1="ent0005" data-entity-2="ent0007" data-link-type="dependency" data-source-line="148" id="lnk21"><path d="M214.74,243.6979 C203.54,261.3279 191.6166,280.103 180.4266,297.723" fill="none" id="Processing-to-Graph" style="stroke:#181818;stroke-width:1;"/><polygon fill="#181818" points="177.21,302.7879,185.4115,297.3349,179.8905,298.5671,178.6583,293.0461,177.21,302.7879" style="stroke:#181818;stroke-width:1;"/></g><!--link Graph to GraphStore--><g class="link" data-entity-1="ent0007" data-entity-2="ent0014" data-link-type="dependency" data-source-line="149" id="lnk22"><path d="M202.9,349.8879 C237.65,367.8679 282.1709,390.8909 318.1809,409.5209" fill="none" id="Graph-to-GraphStore" style="stroke:#181818;stroke-width:1;"/><polygon fill="#181818" points="323.51,412.2779,317.3544,404.5897,319.0691,409.9804,313.6784,411.6951,323.51,412.2779" style="stroke:#181818;stroke-width:1;"/></g><!--link Graph to Alignment--><g class="link" data-entity-1="ent0007" data-entity-2="ent0008" data-link-type="dependency" data-source-line="150" id="lnk23"><path d="M142.92,352.7579 C128.93,370.3979 113.7309,389.5389 99.7409,407.1589" fill="none" id="Graph-to-Alignment" style="stroke:#181818;stroke-width:1;"/><polygon fill="#181818" points="96.01,411.8579,104.739,407.2967,99.1191,407.9421,98.4737,402.3222,96.01,411.8579" style="stroke:#181818;stroke-width:1;"/></g><!--link Alignment to ModeController--><g class="link" data-entity-1="ent0008" data-entity-2="ent0009" data-link-type="dependency" data-source-line="151" id="lnk24"><path d="M86.2,461.8279 C92.95,479.4679 99.9325,497.7054 106.6825,515.3154" fill="none" id="Alignment-to-ModeController" style="stroke:#181818;stroke-width:1;"/><polygon fill="#181818" points="108.83,520.9179,109.3438,511.0825,107.0404,516.2491,101.8738,513.9458,108.83,520.9179" style="stroke:#181818;stroke-width:1;"/></g><!--link ModeController to ObligationLayer--><g class="link" data-entity-1="ent0009" data-entity-2="ent0010" data-link-type="dependency" data-source-line="152" id="lnk25"><path d="M139.32,570.8979 C154.97,588.5279 172.1371,607.8905 187.7671,625.5005" fill="none" id="ModeController-to-ObligationLayer" style="stroke:#181818;stroke-width:1;"/><polygon fill="#181818" points="191.75,629.9879,188.7673,620.6016,188.4309,626.2484,182.7841,625.912,191.75,629.9879" style="stroke:#181818;stroke-width:1;"/></g><!--link ObligationLayer to Output--><g class="link" data-entity-1="ent0010" data-entity-2="ent0011" data-link-type="dependency" data-source-line="153" id="lnk26"><path d="M216.37,679.9679 C218.84,697.5979 221.3499,715.5056 223.8099,733.1156" fill="none" id="ObligationLayer-to-Output" style="stroke:#181818;stroke-width:1;"/><polygon fill="#181818" points="224.64,739.0579,227.3564,729.5911,223.9483,734.106,219.4333,730.6979,224.64,739.0579" style="stroke:#181818;stroke-width:1;"/></g><!--link Output to User--><g class="link" data-entity-1="ent0011" data-entity-2="ent0002" data-link-type="dependency" data-source-line="154" id="lnk27"><path d="M252.98,788.8279 C278.88,813.5279 314.2279,847.2371 336.0079,868.0071" fill="none" id="Output-to-User" style="stroke:#181818;stroke-width:1;"/><polygon fill="#181818" points="340.35,872.1479,336.5973,863.042,336.7316,868.6973,331.0763,868.8315,340.35,872.1479" style="stroke:#181818;stroke-width:1;"/></g><!--link Governance to Audit--><g class="link" data-entity-1="ent0012" data-entity-2="ent0015" data-link-type="dependency" data-source-line="155" id="lnk28"><path d="M252.71,461.8279 C272.58,479.7079 295.0897,499.9648 314.7397,517.6448" fill="none" id="Governance-to-Audit" style="stroke:#181818;stroke-width:1;"/><polygon fill="#181818" points="319.2,521.6579,315.1849,512.6646,315.4831,518.3136,309.8341,518.6117,319.2,521.6579" style="stroke:#181818;stroke-width:1;"/></g><!--link Governance to ModeController--><g class="link" data-entity-1="ent0012" data-entity-2="ent0009" data-link-type="dependency" data-source-line="156" id="lnk29"><path d="M201.76,461.8279 C183.98,479.4679 164.1806,499.0833 146.4206,516.6933" fill="none" id="Governance-to-ModeController" style="stroke:#181818;stroke-width:1;"/><polygon fill="#181818" points="142.16,520.9179,151.3673,517.4214,145.7105,517.3974,145.7345,511.7406,142.16,520.9179" style="stroke:#181818;stroke-width:1;"/></g><!--link Governance to ObligationLayer--><g class="link" data-entity-1="ent0012" data-entity-2="ent0010" data-link-type="dependency" data-source-line="157" id="lnk30"><path d="M224.56,461.7579 C222.05,503.4179 217.2794,582.7187 214.7894,624.2187" fill="none" id="Governance-to-ObligationLayer" style="stroke:#181818;stroke-width:1;"/><polygon fill="#181818" points="214.43,630.2079,218.9618,621.4636,214.7295,625.2169,210.9762,620.9845,214.43,630.2079" style="stroke:#181818;stroke-width:1;"/></g><?plantuml-src NPB1QiCm38RlVWhHKtVeAmnA6IMmiR9k3-0w8ZCaSh2LGYXxzpdo5iU-oD8dAVdzOxRS8vmSiRQ47jvSYptiJsuOjU4dfM9q7hu2UgKy6jRKnOLTyzbym7KEZCCE7Wh0n0r7I0mDZHCNvEATmH0iTULW6wFbkO1dhyVlWXnxsz4Giu8kGXVPtlLzrBPjlT_YXcRhw5NFTM_YMjtPtT6J9eFgHwbMixxfWF1ojr5VX2iHQTTenuOTfzQoKei_S3Wy_rrUejIRg-TKEklty_1go7yYD3bIRISeCTT9MuRPkJKJNdbNbZ9HMrZLQIPPcGuXyagodKc365J1Ia3LhNxs2m00?></g></svg>