<?plantuml 1.2026.2?><svg xmlns="http://www.w3.org/2000/svg" xmlns:xlink="http://www.w3.org/1999/xlink" contentStyleType="text/css" data-diagram-type="DESCRIPTION" height="501px" preserveAspectRatio="none" style="width:1299px;height:501px;background:#FFFFFF;" version="1.1" viewBox="0 0 1299 501" width="1299px" zoomAndPan="magnify"><title>Abuse / Institutional Accountability Library</title><defs/><g><g class="title" data-source-line="278"><text fill="#000000" font-family="sans-serif" font-size="14" font-weight="bold" lengthAdjust="spacing" textLength="301.8389" x="491.5806" y="24.9659">Abuse / Institutional Accountability Library</text></g><!--cluster Inputs--><g class="cluster" data-qualified-name="Inputs" data-source-line="280" id="ent0002"><path d="M36.5,46.6699 L83.0978,46.6699 A3.75,3.75 0 0 1 85.5978,49.1699 L92.5978,71.7378 L675.5,71.7378 A2.5,2.5 0 0 1 678,74.2378 L678,256.2999 A2.5,2.5 0 0 1 675.5,258.7999 L36.5,258.7999 A2.5,2.5 0 0 1 34,256.2999 L34,49.1699 A2.5,2.5 0 0 1 36.5,46.6699" fill="none" style="stroke:#000000;stroke-width:1.5;"/><line style="stroke:#000000;stroke-width:1.5;" x1="34" x2="92.5978" y1="71.7378" y2="71.7378"/><text fill="#000000" font-family="sans-serif" font-size="14" font-weight="bold" lengthAdjust="spacing" textLength="45.5978" x="38" y="63.6358">Inputs</text></g><!--cluster Rules--><g class="cluster" data-qualified-name="Rules" data-source-line="288" id="ent0008"><path d="M704.5,46.6699 L743.3418,46.6699 A3.75,3.75 0 0 1 745.8418,49.1699 L752.8418,71.7378 L1289.5,71.7378 A2.5,2.5 0 0 1 1292,74.2378 L1292,256.2999 A2.5,2.5 0 0 1 1289.5,258.7999 L704.5,258.7999 A2.5,2.5 0 0 1 702,256.2999 L702,49.1699 A2.5,2.5 0 0 1 704.5,46.6699" fill="none" style="stroke:#000000;stroke-width:1.5;"/><line style="stroke:#000000;stroke-width:1.5;" x1="702" x2="752.8418" y1="71.7378" y2="71.7378"/><text fill="#000000" font-family="sans-serif" font-size="14" font-weight="bold" lengthAdjust="spacing" textLength="37.8418" x="706" y="63.6358">Rules</text></g><!--cluster Identity / Trust--><g class="cluster" data-qualified-name="Identity . Trust" data-source-line="296" id="ent0014"><path d="M8.5,282.7999 L115.2136,282.7999 A3.75,3.75 0 0 1 117.7136,285.2999 L124.7136,307.8678 L436.5,307.8678 A2.5,2.5 0 0 1 439,310.3678 L439,492.4399 A2.5,2.5 0 0 1 436.5,494.9399 L8.5,494.9399 A2.5,2.5 0 0 1 6,492.4399 L6,285.2999 A2.5,2.5 0 0 1 8.5,282.7999" fill="none" style="stroke:#000000;stroke-width:1.5;"/><line style="stroke:#000000;stroke-width:1.5;" x1="6" x2="124.7136" y1="307.8678" y2="307.8678"/><text fill="#000000" font-family="sans-serif" font-size="14" font-weight="bold" lengthAdjust="spacing" textLength="105.7136" x="10" y="299.7658">Identity / Trust</text></g><!--cluster Outputs--><g class="cluster" data-qualified-name="Outputs" data-source-line="303" id="ent0019"><path d="M465.5,282.7999 L523.8018,282.7999 A3.75,3.75 0 0 1 526.3018,285.2999 L533.3018,307.8678 L848.5,307.8678 A2.5,2.5 0 0 1 851,310.3678 L851,492.4399 A2.5,2.5 0 0 1 848.5,494.9399 L465.5,494.9399 A2.5,2.5 0 0 1 463,492.4399 L463,285.2999 A2.5,2.5 0 0 1 465.5,282.7999" fill="none" style="stroke:#000000;stroke-width:1.5;"/><line style="stroke:#000000;stroke-width:1.5;" x1="463" x2="533.3018" y1="307.8678" y2="307.8678"/><text fill="#000000" font-family="sans-serif" font-size="14" font-weight="bold" lengthAdjust="spacing" textLength="57.3018" x="467" y="299.7658">Outputs</text></g><!--entity Narrative History--><g class="entity" data-qualified-name="Inputs.Narrative History" data-source-line="281" id="ent0003"><rect fill="#F1F1F1" height="49.0679" rx="2.5" ry="2.5" style="stroke:#181818;stroke-width:0.5;" width="152.3636" x="49.82" y="84.6699"/><rect fill="#F1F1F1" height="10" style="stroke:#181818;stroke-width:0.5;" width="15" x="182.1836" y="89.6699"/><rect fill="#F1F1F1" height="2" style="stroke:#181818;stroke-width:0.5;" width="4" x="180.1836" y="91.6699"/><rect fill="#F1F1F1" height="2" style="stroke:#181818;stroke-width:0.5;" width="4" x="180.1836" y="95.6699"/><text fill="#000000" font-family="sans-serif" font-size="14" lengthAdjust="spacing" textLength="112.3636" x="64.82" y="119.6358">Narrative History</text></g><!--entity Institutional Records--><g class="entity" data-qualified-name="Inputs.Institutional Records" data-source-line="282" id="ent0004"><rect fill="#F1F1F1" height="49.0679" rx="2.5" ry="2.5" style="stroke:#181818;stroke-width:0.5;" width="176.2615" x="236.87" y="84.6699"/><rect fill="#F1F1F1" height="10" style="stroke:#181818;stroke-width:0.5;" width="15" x="393.1315" y="89.6699"/><rect fill="#F1F1F1" height="2" style="stroke:#181818;stroke-width:0.5;" width="4" x="391.1315" y="91.6699"/><rect fill="#F1F1F1" height="2" style="stroke:#181818;stroke-width:0.5;" width="4" x="391.1315" y="95.6699"/><text fill="#000000" font-family="sans-serif" font-size="14" lengthAdjust="spacing" textLength="136.2615" x="251.87" y="119.6358">Institutional Records</text></g><!--entity Medical / Therapy Records--><g class="entity" data-qualified-name="Inputs.Medical . Therapy Records" data-source-line="283" id="ent0005"><rect fill="#F1F1F1" height="49.0679" rx="2.5" ry="2.5" style="stroke:#181818;stroke-width:0.5;" width="213.7393" x="448.13" y="84.6699"/><rect fill="#F1F1F1" height="10" style="stroke:#181818;stroke-width:0.5;" width="15" x="641.8693" y="89.6699"/><rect fill="#F1F1F1" height="2" style="stroke:#181818;stroke-width:0.5;" width="4" x="639.8693" y="91.6699"/><rect fill="#F1F1F1" height="2" style="stroke:#181818;stroke-width:0.5;" width="4" x="639.8693" y="95.6699"/><text fill="#000000" font-family="sans-serif" font-size="14" lengthAdjust="spacing" textLength="173.7393" x="463.13" y="119.6358">Medical / Therapy Records</text></g><!--entity Witness Material--><g class="entity" data-qualified-name="Inputs.Witness Material" data-source-line="284" id="ent0006"><rect fill="#F1F1F1" height="49.0679" rx="2.5" ry="2.5" style="stroke:#181818;stroke-width:0.5;" width="149.6476" x="51.18" y="193.7399"/><rect fill="#F1F1F1" height="10" style="stroke:#181818;stroke-width:0.5;" width="15" x="180.8276" y="198.7399"/><rect fill="#F1F1F1" height="2" style="stroke:#181818;stroke-width:0.5;" width="4" x="178.8276" y="200.7399"/><rect fill="#F1F1F1" height="2" style="stroke:#181818;stroke-width:0.5;" width="4" x="178.8276" y="204.7399"/><text fill="#000000" font-family="sans-serif" font-size="14" lengthAdjust="spacing" textLength="109.6476" x="66.18" y="228.7058">Witness Material</text></g><!--entity Chronology Notes--><g class="entity" data-qualified-name="Inputs.Chronology Notes" data-source-line="285" id="ent0007"><rect fill="#F1F1F1" height="49.0679" rx="2.5" ry="2.5" style="stroke:#181818;stroke-width:0.5;" width="159.1115" x="235.44" y="193.7399"/><rect fill="#F1F1F1" height="10" style="stroke:#181818;stroke-width:0.5;" width="15" x="374.5515" y="198.7399"/><rect fill="#F1F1F1" height="2" style="stroke:#181818;stroke-width:0.5;" width="4" x="372.5515" y="200.7399"/><rect fill="#F1F1F1" height="2" style="stroke:#181818;stroke-width:0.5;" width="4" x="372.5515" y="204.7399"/><text fill="#000000" font-family="sans-serif" font-size="14" lengthAdjust="spacing" textLength="119.1115" x="250.44" y="228.7058">Chronology Notes</text></g><!--entity Duty of Care--><g class="entity" data-qualified-name="Rules.Duty of Care" data-source-line="289" id="ent0009"><rect fill="#F1F1F1" height="49.0679" rx="2.5" ry="2.5" style="stroke:#181818;stroke-width:0.5;" width="122.0117" x="717.99" y="84.6699"/><rect fill="#F1F1F1" height="10" style="stroke:#181818;stroke-width:0.5;" width="15" x="820.0017" y="89.6699"/><rect fill="#F1F1F1" height="2" style="stroke:#181818;stroke-width:0.5;" width="4" x="818.0017" y="91.6699"/><rect fill="#F1F1F1" height="2" style="stroke:#181818;stroke-width:0.5;" width="4" x="818.0017" y="95.6699"/><text fill="#000000" font-family="sans-serif" font-size="14" lengthAdjust="spacing" textLength="82.0117" x="732.99" y="119.6358">Duty of Care</text></g><!--entity Vicarious Liability--><g class="entity" data-qualified-name="Rules.Vicarious Liability" data-source-line="290" id="ent0010"><rect fill="#F1F1F1" height="49.0679" rx="2.5" ry="2.5" style="stroke:#181818;stroke-width:0.5;" width="153.8896" x="875.06" y="84.6699"/><rect fill="#F1F1F1" height="10" style="stroke:#181818;stroke-width:0.5;" width="15" x="1008.9496" y="89.6699"/><rect fill="#F1F1F1" height="2" style="stroke:#181818;stroke-width:0.5;" width="4" x="1006.9496" y="91.6699"/><rect fill="#F1F1F1" height="2" style="stroke:#181818;stroke-width:0.5;" width="4" x="1006.9496" y="95.6699"/><text fill="#000000" font-family="sans-serif" font-size="14" lengthAdjust="spacing" textLength="113.8896" x="890.06" y="119.6358">Vicarious Liability</text></g><!--entity Interference / Obstruction--><g class="entity" data-qualified-name="Rules.Interference . Obstruction" data-source-line="291" id="ent0011"><rect fill="#F1F1F1" height="49.0679" rx="2.5" ry="2.5" style="stroke:#181818;stroke-width:0.5;" width="212.5213" x="1063.74" y="84.6699"/><rect fill="#F1F1F1" height="10" style="stroke:#181818;stroke-width:0.5;" width="15" x="1256.2613" y="89.6699"/><rect fill="#F1F1F1" height="2" style="stroke:#181818;stroke-width:0.5;" width="4" x="1254.2613" y="91.6699"/><rect fill="#F1F1F1" height="2" style="stroke:#181818;stroke-width:0.5;" width="4" x="1254.2613" y="95.6699"/><text fill="#000000" font-family="sans-serif" font-size="14" lengthAdjust="spacing" textLength="172.5213" x="1078.74" y="119.6358">Interference / Obstruction</text></g><!--entity Compensation / Redress--><g class="entity" data-qualified-name="Rules.Compensation . Redress" data-source-line="292" id="ent0012"><rect fill="#F1F1F1" height="49.0679" rx="2.5" ry="2.5" style="stroke:#181818;stroke-width:0.5;" width="200.7054" x="717.65" y="193.7399"/><rect fill="#F1F1F1" height="10" style="stroke:#181818;stroke-width:0.5;" width="15" x="898.3554" y="198.7399"/><rect fill="#F1F1F1" height="2" style="stroke:#181818;stroke-width:0.5;" width="4" x="896.3554" y="200.7399"/><rect fill="#F1F1F1" height="2" style="stroke:#181818;stroke-width:0.5;" width="4" x="896.3554" y="204.7399"/><text fill="#000000" font-family="sans-serif" font-size="14" lengthAdjust="spacing" textLength="160.7054" x="732.65" y="228.7058">Compensation / Redress</text></g><!--entity Human Rights Frameworks--><g class="entity" data-qualified-name="Rules.Human Rights Frameworks" data-source-line="293" id="ent0013"><rect fill="#F1F1F1" height="49.0679" rx="2.5" ry="2.5" style="stroke:#181818;stroke-width:0.5;" width="218.5693" x="953.72" y="193.7399"/><rect fill="#F1F1F1" height="10" style="stroke:#181818;stroke-width:0.5;" width="15" x="1152.2893" y="198.7399"/><rect fill="#F1F1F1" height="2" style="stroke:#181818;stroke-width:0.5;" width="4" x="1150.2893" y="200.7399"/><rect fill="#F1F1F1" height="2" style="stroke:#181818;stroke-width:0.5;" width="4" x="1150.2893" y="204.7399"/><text fill="#000000" font-family="sans-serif" font-size="14" lengthAdjust="spacing" textLength="178.5693" x="968.72" y="228.7058">Human Rights Frameworks</text></g><!--entity Dissociation--><g class="entity" data-qualified-name="Identity . Trust.Dissociation" data-source-line="297" id="ent0015"><rect fill="#F1F1F1" height="49.0679" rx="2.5" ry="2.5" style="stroke:#181818;stroke-width:0.5;" width="119.6877" x="66.16" y="320.7999"/><rect fill="#F1F1F1" height="10" style="stroke:#181818;stroke-width:0.5;" width="15" x="165.8477" y="325.7999"/><rect fill="#F1F1F1" height="2" style="stroke:#181818;stroke-width:0.5;" width="4" x="163.8477" y="327.7999"/><rect fill="#F1F1F1" height="2" style="stroke:#181818;stroke-width:0.5;" width="4" x="163.8477" y="331.7999"/><text fill="#000000" font-family="sans-serif" font-size="14" lengthAdjust="spacing" textLength="79.6877" x="81.16" y="355.7658">Dissociation</text></g><!--entity Retraumatization Risk--><g class="entity" data-qualified-name="Identity . Trust.Retraumatization Risk" data-source-line="298" id="ent0016"><rect fill="#F1F1F1" height="49.0679" rx="2.5" ry="2.5" style="stroke:#181818;stroke-width:0.5;" width="183.9194" x="233.04" y="320.7999"/><rect fill="#F1F1F1" height="10" style="stroke:#181818;stroke-width:0.5;" width="15" x="396.9594" y="325.7999"/><rect fill="#F1F1F1" height="2" style="stroke:#181818;stroke-width:0.5;" width="4" x="394.9594" y="327.7999"/><rect fill="#F1F1F1" height="2" style="stroke:#181818;stroke-width:0.5;" width="4" x="394.9594" y="331.7999"/><text fill="#000000" font-family="sans-serif" font-size="14" lengthAdjust="spacing" textLength="143.9194" x="248.04" y="355.7658">Retraumatization Risk</text></g><!--entity Memory Fragmentation--><g class="entity" data-qualified-name="Identity . Trust.Memory Fragmentation" data-source-line="299" id="ent0017"><rect fill="#F1F1F1" height="49.0679" rx="2.5" ry="2.5" style="stroke:#181818;stroke-width:0.5;" width="196.5614" x="21.72" y="429.8699"/><rect fill="#F1F1F1" height="10" style="stroke:#181818;stroke-width:0.5;" width="15" x="198.2814" y="434.8699"/><rect fill="#F1F1F1" height="2" style="stroke:#181818;stroke-width:0.5;" width="4" x="196.2814" y="436.8699"/><rect fill="#F1F1F1" height="2" style="stroke:#181818;stroke-width:0.5;" width="4" x="196.2814" y="440.8699"/><text fill="#000000" font-family="sans-serif" font-size="14" lengthAdjust="spacing" textLength="156.5614" x="36.72" y="464.8358">Memory Fragmentation</text></g><!--entity Need for Continuity--><g class="entity" data-qualified-name="Identity . Trust.Need for Continuity" data-source-line="300" id="ent0018"><rect fill="#F1F1F1" height="49.0679" rx="2.5" ry="2.5" style="stroke:#181818;stroke-width:0.5;" width="169.1355" x="253.43" y="429.8699"/><rect fill="#F1F1F1" height="10" style="stroke:#181818;stroke-width:0.5;" width="15" x="402.5655" y="434.8699"/><rect fill="#F1F1F1" height="2" style="stroke:#181818;stroke-width:0.5;" width="4" x="400.5655" y="436.8699"/><rect fill="#F1F1F1" height="2" style="stroke:#181818;stroke-width:0.5;" width="4" x="400.5655" y="440.8699"/><text fill="#000000" font-family="sans-serif" font-size="14" lengthAdjust="spacing" textLength="129.1355" x="268.43" y="464.8358">Need for Continuity</text></g><!--entity Master Timeline--><g class="entity" data-qualified-name="Outputs.Master Timeline" data-source-line="304" id="ent0020"><rect fill="#F1F1F1" height="49.0679" rx="2.5" ry="2.5" style="stroke:#181818;stroke-width:0.5;" width="145.7836" x="486.11" y="320.7999"/><rect fill="#F1F1F1" height="10" style="stroke:#181818;stroke-width:0.5;" width="15" x="611.8936" y="325.7999"/><rect fill="#F1F1F1" height="2" style="stroke:#181818;stroke-width:0.5;" width="4" x="609.8936" y="327.7999"/><rect fill="#F1F1F1" height="2" style="stroke:#181818;stroke-width:0.5;" width="4" x="609.8936" y="331.7999"/><text fill="#000000" font-family="sans-serif" font-size="14" lengthAdjust="spacing" textLength="105.7836" x="501.11" y="355.7658">Master Timeline</text></g><!--entity Institution Graph--><g class="entity" data-qualified-name="Outputs.Institution Graph" data-source-line="305" id="ent0021"><rect fill="#F1F1F1" height="49.0679" rx="2.5" ry="2.5" style="stroke:#181818;stroke-width:0.5;" width="152.9936" x="666.5" y="320.7999"/><rect fill="#F1F1F1" height="10" style="stroke:#181818;stroke-width:0.5;" width="15" x="799.4936" y="325.7999"/><rect fill="#F1F1F1" height="2" style="stroke:#181818;stroke-width:0.5;" width="4" x="797.4936" y="327.7999"/><rect fill="#F1F1F1" height="2" style="stroke:#181818;stroke-width:0.5;" width="4" x="797.4936" y="331.7999"/><text fill="#000000" font-family="sans-serif" font-size="14" lengthAdjust="spacing" textLength="112.9936" x="681.5" y="355.7658">Institution Graph</text></g><!--entity Duty / Breach Matrix--><g class="entity" data-qualified-name="Outputs.Duty . Breach Matrix" data-source-line="306" id="ent0022"><rect fill="#F1F1F1" height="49.0679" rx="2.5" ry="2.5" style="stroke:#181818;stroke-width:0.5;" width="175.6035" x="479.2" y="429.8699"/><rect fill="#F1F1F1" height="10" style="stroke:#181818;stroke-width:0.5;" width="15" x="634.8035" y="434.8699"/><rect fill="#F1F1F1" height="2" style="stroke:#181818;stroke-width:0.5;" width="4" x="632.8035" y="436.8699"/><rect fill="#F1F1F1" height="2" style="stroke:#181818;stroke-width:0.5;" width="4" x="632.8035" y="440.8699"/><text fill="#000000" font-family="sans-serif" font-size="14" lengthAdjust="spacing" textLength="135.6035" x="494.2" y="464.8358">Duty / Breach Matrix</text></g><!--entity Evidence Packet--><g class="entity" data-qualified-name="Outputs.Evidence Packet" data-source-line="307" id="ent0023"><rect fill="#F1F1F1" height="49.0679" rx="2.5" ry="2.5" style="stroke:#181818;stroke-width:0.5;" width="145.3916" x="689.3" y="429.8699"/><rect fill="#F1F1F1" height="10" style="stroke:#181818;stroke-width:0.5;" width="15" x="814.6916" y="434.8699"/><rect fill="#F1F1F1" height="2" style="stroke:#181818;stroke-width:0.5;" width="4" x="812.6916" y="436.8699"/><rect fill="#F1F1F1" height="2" style="stroke:#181818;stroke-width:0.5;" width="4" x="812.6916" y="440.8699"/><text fill="#000000" font-family="sans-serif" font-size="14" lengthAdjust="spacing" textLength="105.3916" x="704.3" y="464.8358">Evidence Packet</text></g><?plantuml-src TPBTRi8m38NlUGghBy0pCFO3qe2fGjkrcnfgqIQLux1rqzvzBji5jDrT59_4tpcsijO4Yo95WZciVLJMf1myrh1mBYIlM73Dsi4p5uBIpMOjkXCU2RArRvF63Bvc02uqRV3a5R8jYg3ocM35KODqsMtzjajEBaWP1veDbUoiEeTzHO9jzu_kZTLJZB119M6i1-Lb9S67EXmxs0ObU_rznP-dciRuzydCXWCiKMZmtQin2OSKBOo_M4RUZED0GjxrWUwAg99SRtL8PaVo4VkI2NCgnNmCHAlKe8USZvL6U1Hiw3t8QU1YNPgs7v1b9Idgs13761pZ14LEAcXDb3z_INAEfz4e6fjXt_xOsCNKDrkY4Wv1O1aCnQTBBjUCkwIJgxB1Q7d1dXkgsTF_Ym9FjWHLDZ6fETm9eQlw5H3-64WUpbnUPl5YAAH6zGC0?></g></svg>