<?plantuml 1.2026.2?><svg xmlns="http://www.w3.org/2000/svg" xmlns:xlink="http://www.w3.org/1999/xlink" contentStyleType="text/css" data-diagram-type="DESCRIPTION" height="501px" preserveAspectRatio="none" style="width:1015px;height:501px;background:#FFFFFF;" version="1.1" viewBox="0 0 1015 501" width="1015px" zoomAndPan="magnify"><title>Welfare / Support Services Library</title><defs/><g><g class="title" data-source-line="345"><text fill="#000000" font-family="sans-serif" font-size="14" font-weight="bold" lengthAdjust="spacing" textLength="237.3271" x="381.8364" y="24.9659">Welfare / Support Services Library</text></g><!--cluster Inputs--><g class="cluster" data-qualified-name="Inputs" data-source-line="347" id="ent0002"><path d="M11.5,46.6699 L58.0978,46.6699 A3.75,3.75 0 0 1 60.5978,49.1699 L67.5978,71.7378 L580.5,71.7378 A2.5,2.5 0 0 1 583,74.2378 L583,256.2999 A2.5,2.5 0 0 1 580.5,258.7999 L11.5,258.7999 A2.5,2.5 0 0 1 9,256.2999 L9,49.1699 A2.5,2.5 0 0 1 11.5,46.6699" fill="none" style="stroke:#000000;stroke-width:1.5;"/><line style="stroke:#000000;stroke-width:1.5;" x1="9" x2="67.5978" y1="71.7378" y2="71.7378"/><text fill="#000000" font-family="sans-serif" font-size="14" font-weight="bold" lengthAdjust="spacing" textLength="45.5978" x="13" y="63.6358">Inputs</text></g><!--cluster Rules--><g class="cluster" data-qualified-name="Rules" data-source-line="355" id="ent0008"><path d="M609.5,46.6699 L648.3418,46.6699 A3.75,3.75 0 0 1 650.8418,49.1699 L657.8418,71.7378 L1005.5,71.7378 A2.5,2.5 0 0 1 1008,74.2378 L1008,256.2999 A2.5,2.5 0 0 1 1005.5,258.7999 L609.5,258.7999 A2.5,2.5 0 0 1 607,256.2999 L607,49.1699 A2.5,2.5 0 0 1 609.5,46.6699" fill="none" style="stroke:#000000;stroke-width:1.5;"/><line style="stroke:#000000;stroke-width:1.5;" x1="607" x2="657.8418" y1="71.7378" y2="71.7378"/><text fill="#000000" font-family="sans-serif" font-size="14" font-weight="bold" lengthAdjust="spacing" textLength="37.8418" x="611" y="63.6358">Rules</text></g><!--cluster Identity / Trust--><g class="cluster" data-qualified-name="Identity . Trust" data-source-line="362" id="ent0013"><path d="M8.5,282.7999 L115.2136,282.7999 A3.75,3.75 0 0 1 117.7136,285.2999 L124.7136,307.8678 L355.5,307.8678 A2.5,2.5 0 0 1 358,310.3678 L358,492.4399 A2.5,2.5 0 0 1 355.5,494.9399 L8.5,494.9399 A2.5,2.5 0 0 1 6,492.4399 L6,285.2999 A2.5,2.5 0 0 1 8.5,282.7999" fill="none" style="stroke:#000000;stroke-width:1.5;"/><line style="stroke:#000000;stroke-width:1.5;" x1="6" x2="124.7136" y1="307.8678" y2="307.8678"/><text fill="#000000" font-family="sans-serif" font-size="14" font-weight="bold" lengthAdjust="spacing" textLength="105.7136" x="10" y="299.7658">Identity / Trust</text></g><!--cluster Outputs--><g class="cluster" data-qualified-name="Outputs" data-source-line="369" id="ent0018"><path d="M384.5,282.7999 L442.8018,282.7999 A3.75,3.75 0 0 1 445.3018,285.2999 L452.3018,307.8678 L774.5,307.8678 A2.5,2.5 0 0 1 777,310.3678 L777,492.4399 A2.5,2.5 0 0 1 774.5,494.9399 L384.5,494.9399 A2.5,2.5 0 0 1 382,492.4399 L382,285.2999 A2.5,2.5 0 0 1 384.5,282.7999" fill="none" style="stroke:#000000;stroke-width:1.5;"/><line style="stroke:#000000;stroke-width:1.5;" x1="382" x2="452.3018" y1="307.8678" y2="307.8678"/><text fill="#000000" font-family="sans-serif" font-size="14" font-weight="bold" lengthAdjust="spacing" textLength="57.3018" x="386" y="299.7658">Outputs</text></g><!--entity Benefit Records--><g class="entity" data-qualified-name="Inputs.Benefit Records" data-source-line="348" id="ent0003"><rect fill="#F1F1F1" height="49.0679" rx="2.5" ry="2.5" style="stroke:#181818;stroke-width:0.5;" width="143.5576" x="25.22" y="84.6699"/><rect fill="#F1F1F1" height="10" style="stroke:#181818;stroke-width:0.5;" width="15" x="148.7776" y="89.6699"/><rect fill="#F1F1F1" height="2" style="stroke:#181818;stroke-width:0.5;" width="4" x="146.7776" y="91.6699"/><rect fill="#F1F1F1" height="2" style="stroke:#181818;stroke-width:0.5;" width="4" x="146.7776" y="95.6699"/><text fill="#000000" font-family="sans-serif" font-size="14" lengthAdjust="spacing" textLength="103.5576" x="40.22" y="119.6358">Benefit Records</text></g><!--entity Provider Messages--><g class="entity" data-qualified-name="Inputs.Provider Messages" data-source-line="349" id="ent0004"><rect fill="#F1F1F1" height="49.0679" rx="2.5" ry="2.5" style="stroke:#181818;stroke-width:0.5;" width="164.4455" x="203.78" y="84.6699"/><rect fill="#F1F1F1" height="10" style="stroke:#181818;stroke-width:0.5;" width="15" x="348.2255" y="89.6699"/><rect fill="#F1F1F1" height="2" style="stroke:#181818;stroke-width:0.5;" width="4" x="346.2255" y="91.6699"/><rect fill="#F1F1F1" height="2" style="stroke:#181818;stroke-width:0.5;" width="4" x="346.2255" y="95.6699"/><text fill="#000000" font-family="sans-serif" font-size="14" lengthAdjust="spacing" textLength="124.4455" x="218.78" y="119.6358">Provider Messages</text></g><!--entity Referral Outcomes--><g class="entity" data-qualified-name="Inputs.Referral Outcomes" data-source-line="350" id="ent0005"><rect fill="#F1F1F1" height="49.0679" rx="2.5" ry="2.5" style="stroke:#181818;stroke-width:0.5;" width="163.5075" x="403.25" y="84.6699"/><rect fill="#F1F1F1" height="10" style="stroke:#181818;stroke-width:0.5;" width="15" x="546.7575" y="89.6699"/><rect fill="#F1F1F1" height="2" style="stroke:#181818;stroke-width:0.5;" width="4" x="544.7575" y="91.6699"/><rect fill="#F1F1F1" height="2" style="stroke:#181818;stroke-width:0.5;" width="4" x="544.7575" y="95.6699"/><text fill="#000000" font-family="sans-serif" font-size="14" lengthAdjust="spacing" textLength="123.5075" x="418.25" y="119.6358">Referral Outcomes</text></g><!--entity Case Notes--><g class="entity" data-qualified-name="Inputs.Case Notes" data-source-line="351" id="ent0006"><rect fill="#F1F1F1" height="49.0679" rx="2.5" ry="2.5" style="stroke:#181818;stroke-width:0.5;" width="113.7097" x="40.15" y="193.7399"/><rect fill="#F1F1F1" height="10" style="stroke:#181818;stroke-width:0.5;" width="15" x="133.8597" y="198.7399"/><rect fill="#F1F1F1" height="2" style="stroke:#181818;stroke-width:0.5;" width="4" x="131.8597" y="200.7399"/><rect fill="#F1F1F1" height="2" style="stroke:#181818;stroke-width:0.5;" width="4" x="131.8597" y="204.7399"/><text fill="#000000" font-family="sans-serif" font-size="14" lengthAdjust="spacing" textLength="73.7097" x="55.15" y="228.7058">Case Notes</text></g><!--entity Need Timeline--><g class="entity" data-qualified-name="Inputs.Need Timeline" data-source-line="352" id="ent0007"><rect fill="#F1F1F1" height="49.0679" rx="2.5" ry="2.5" style="stroke:#181818;stroke-width:0.5;" width="134.8356" x="188.58" y="193.7399"/><rect fill="#F1F1F1" height="10" style="stroke:#181818;stroke-width:0.5;" width="15" x="303.4156" y="198.7399"/><rect fill="#F1F1F1" height="2" style="stroke:#181818;stroke-width:0.5;" width="4" x="301.4156" y="200.7399"/><rect fill="#F1F1F1" height="2" style="stroke:#181818;stroke-width:0.5;" width="4" x="301.4156" y="204.7399"/><text fill="#000000" font-family="sans-serif" font-size="14" lengthAdjust="spacing" textLength="94.8356" x="203.58" y="228.7058">Need Timeline</text></g><!--entity Eligibility--><g class="entity" data-qualified-name="Rules.Eligibility" data-source-line="356" id="ent0009"><rect fill="#F1F1F1" height="49.0679" rx="2.5" ry="2.5" style="stroke:#181818;stroke-width:0.5;" width="98.8698" x="641.57" y="84.6699"/><rect fill="#F1F1F1" height="10" style="stroke:#181818;stroke-width:0.5;" width="15" x="720.4398" y="89.6699"/><rect fill="#F1F1F1" height="2" style="stroke:#181818;stroke-width:0.5;" width="4" x="718.4398" y="91.6699"/><rect fill="#F1F1F1" height="2" style="stroke:#181818;stroke-width:0.5;" width="4" x="718.4398" y="95.6699"/><text fill="#000000" font-family="sans-serif" font-size="14" lengthAdjust="spacing" textLength="58.8698" x="656.57" y="119.6358">Eligibility</text></g><!--entity Emergency Support--><g class="entity" data-qualified-name="Rules.Emergency Support" data-source-line="357" id="ent0010"><rect fill="#F1F1F1" height="49.0679" rx="2.5" ry="2.5" style="stroke:#181818;stroke-width:0.5;" width="170.0735" x="774.96" y="84.6699"/><rect fill="#F1F1F1" height="10" style="stroke:#181818;stroke-width:0.5;" width="15" x="925.0335" y="89.6699"/><rect fill="#F1F1F1" height="2" style="stroke:#181818;stroke-width:0.5;" width="4" x="923.0335" y="91.6699"/><rect fill="#F1F1F1" height="2" style="stroke:#181818;stroke-width:0.5;" width="4" x="923.0335" y="95.6699"/><text fill="#000000" font-family="sans-serif" font-size="14" lengthAdjust="spacing" textLength="130.0735" x="789.96" y="119.6358">Emergency Support</text></g><!--entity Provider Obligations--><g class="entity" data-qualified-name="Rules.Provider Obligations" data-source-line="358" id="ent0011"><rect fill="#F1F1F1" height="49.0679" rx="2.5" ry="2.5" style="stroke:#181818;stroke-width:0.5;" width="175.0995" x="623.45" y="193.7399"/><rect fill="#F1F1F1" height="10" style="stroke:#181818;stroke-width:0.5;" width="15" x="778.5495" y="198.7399"/><rect fill="#F1F1F1" height="2" style="stroke:#181818;stroke-width:0.5;" width="4" x="776.5495" y="200.7399"/><rect fill="#F1F1F1" height="2" style="stroke:#181818;stroke-width:0.5;" width="4" x="776.5495" y="204.7399"/><text fill="#000000" font-family="sans-serif" font-size="14" lengthAdjust="spacing" textLength="135.0995" x="638.45" y="228.7058">Provider Obligations</text></g><!--entity Referral / Handoff--><g class="entity" data-qualified-name="Rules.Referral . Handoff" data-source-line="359" id="ent0012"><rect fill="#F1F1F1" height="49.0679" rx="2.5" ry="2.5" style="stroke:#181818;stroke-width:0.5;" width="158.4255" x="833.79" y="193.7399"/><rect fill="#F1F1F1" height="10" style="stroke:#181818;stroke-width:0.5;" width="15" x="972.2155" y="198.7399"/><rect fill="#F1F1F1" height="2" style="stroke:#181818;stroke-width:0.5;" width="4" x="970.2155" y="200.7399"/><rect fill="#F1F1F1" height="2" style="stroke:#181818;stroke-width:0.5;" width="4" x="970.2155" y="204.7399"/><text fill="#000000" font-family="sans-serif" font-size="14" lengthAdjust="spacing" textLength="118.4255" x="848.79" y="228.7058">Referral / Handoff</text></g><!--entity Collapse of Trust--><g class="entity" data-qualified-name="Identity . Trust.Collapse of Trust" data-source-line="363" id="ent0014"><rect fill="#F1F1F1" height="49.0679" rx="2.5" ry="2.5" style="stroke:#181818;stroke-width:0.5;" width="150.1516" x="21.92" y="320.7999"/><rect fill="#F1F1F1" height="10" style="stroke:#181818;stroke-width:0.5;" width="15" x="152.0716" y="325.7999"/><rect fill="#F1F1F1" height="2" style="stroke:#181818;stroke-width:0.5;" width="4" x="150.0716" y="327.7999"/><rect fill="#F1F1F1" height="2" style="stroke:#181818;stroke-width:0.5;" width="4" x="150.0716" y="331.7999"/><text fill="#000000" font-family="sans-serif" font-size="14" lengthAdjust="spacing" textLength="110.1516" x="36.92" y="355.7658">Collapse of Trust</text></g><!--entity Survival Stress--><g class="entity" data-qualified-name="Identity . Trust.Survival Stress" data-source-line="364" id="ent0015"><rect fill="#F1F1F1" height="49.0679" rx="2.5" ry="2.5" style="stroke:#181818;stroke-width:0.5;" width="134.8916" x="207.55" y="320.7999"/><rect fill="#F1F1F1" height="10" style="stroke:#181818;stroke-width:0.5;" width="15" x="322.4416" y="325.7999"/><rect fill="#F1F1F1" height="2" style="stroke:#181818;stroke-width:0.5;" width="4" x="320.4416" y="327.7999"/><rect fill="#F1F1F1" height="2" style="stroke:#181818;stroke-width:0.5;" width="4" x="320.4416" y="331.7999"/><text fill="#000000" font-family="sans-serif" font-size="14" lengthAdjust="spacing" textLength="94.8916" x="222.55" y="355.7658">Survival Stress</text></g><!--entity Confusion--><g class="entity" data-qualified-name="Identity . Trust.Confusion" data-source-line="365" id="ent0016"><rect fill="#F1F1F1" height="49.0679" rx="2.5" ry="2.5" style="stroke:#181818;stroke-width:0.5;" width="106.8777" x="43.56" y="429.8699"/><rect fill="#F1F1F1" height="10" style="stroke:#181818;stroke-width:0.5;" width="15" x="130.4377" y="434.8699"/><rect fill="#F1F1F1" height="2" style="stroke:#181818;stroke-width:0.5;" width="4" x="128.4377" y="436.8699"/><rect fill="#F1F1F1" height="2" style="stroke:#181818;stroke-width:0.5;" width="4" x="128.4377" y="440.8699"/><text fill="#000000" font-family="sans-serif" font-size="14" lengthAdjust="spacing" textLength="66.8777" x="58.56" y="464.8358">Confusion</text></g><!--entity Resignation--><g class="entity" data-qualified-name="Identity . Trust.Resignation" data-source-line="366" id="ent0017"><rect fill="#F1F1F1" height="49.0679" rx="2.5" ry="2.5" style="stroke:#181818;stroke-width:0.5;" width="117.8257" x="185.09" y="429.8699"/><rect fill="#F1F1F1" height="10" style="stroke:#181818;stroke-width:0.5;" width="15" x="282.9157" y="434.8699"/><rect fill="#F1F1F1" height="2" style="stroke:#181818;stroke-width:0.5;" width="4" x="280.9157" y="436.8699"/><rect fill="#F1F1F1" height="2" style="stroke:#181818;stroke-width:0.5;" width="4" x="280.9157" y="440.8699"/><text fill="#000000" font-family="sans-serif" font-size="14" lengthAdjust="spacing" textLength="77.8257" x="200.09" y="464.8358">Resignation</text></g><!--entity Unmet Need Map--><g class="entity" data-qualified-name="Outputs.Unmet Need Map" data-source-line="370" id="ent0019"><rect fill="#F1F1F1" height="49.0679" rx="2.5" ry="2.5" style="stroke:#181818;stroke-width:0.5;" width="156.4095" x="397.8" y="320.7999"/><rect fill="#F1F1F1" height="10" style="stroke:#181818;stroke-width:0.5;" width="15" x="534.2095" y="325.7999"/><rect fill="#F1F1F1" height="2" style="stroke:#181818;stroke-width:0.5;" width="4" x="532.2095" y="327.7999"/><rect fill="#F1F1F1" height="2" style="stroke:#181818;stroke-width:0.5;" width="4" x="532.2095" y="331.7999"/><text fill="#000000" font-family="sans-serif" font-size="14" lengthAdjust="spacing" textLength="116.4095" x="412.8" y="355.7658">Unmet Need Map</text></g><!--entity Responsibility Chain--><g class="entity" data-qualified-name="Outputs.Responsibility Chain" data-source-line="371" id="ent0020"><rect fill="#F1F1F1" height="49.0679" rx="2.5" ry="2.5" style="stroke:#181818;stroke-width:0.5;" width="172.2575" x="588.87" y="320.7999"/><rect fill="#F1F1F1" height="10" style="stroke:#181818;stroke-width:0.5;" width="15" x="741.1275" y="325.7999"/><rect fill="#F1F1F1" height="2" style="stroke:#181818;stroke-width:0.5;" width="4" x="739.1275" y="327.7999"/><rect fill="#F1F1F1" height="2" style="stroke:#181818;stroke-width:0.5;" width="4" x="739.1275" y="331.7999"/><text fill="#000000" font-family="sans-serif" font-size="14" lengthAdjust="spacing" textLength="132.2575" x="603.87" y="355.7658">Responsibility Chain</text></g><!--entity Missed Handoff Log--><g class="entity" data-qualified-name="Outputs.Missed Handoff Log" data-source-line="372" id="ent0021"><rect fill="#F1F1F1" height="49.0679" rx="2.5" ry="2.5" style="stroke:#181818;stroke-width:0.5;" width="171.5155" x="398.24" y="429.8699"/><rect fill="#F1F1F1" height="10" style="stroke:#181818;stroke-width:0.5;" width="15" x="549.7555" y="434.8699"/><rect fill="#F1F1F1" height="2" style="stroke:#181818;stroke-width:0.5;" width="4" x="547.7555" y="436.8699"/><rect fill="#F1F1F1" height="2" style="stroke:#181818;stroke-width:0.5;" width="4" x="547.7555" y="440.8699"/><text fill="#000000" font-family="sans-serif" font-size="14" lengthAdjust="spacing" textLength="131.5155" x="413.24" y="464.8358">Missed Handoff Log</text></g><!--entity Escalation Ladder--><g class="entity" data-qualified-name="Outputs.Escalation Ladder" data-source-line="373" id="ent0022"><rect fill="#F1F1F1" height="49.0679" rx="2.5" ry="2.5" style="stroke:#181818;stroke-width:0.5;" width="156.0456" x="604.98" y="429.8699"/><rect fill="#F1F1F1" height="10" style="stroke:#181818;stroke-width:0.5;" width="15" x="741.0256" y="434.8699"/><rect fill="#F1F1F1" height="2" style="stroke:#181818;stroke-width:0.5;" width="4" x="739.0256" y="436.8699"/><rect fill="#F1F1F1" height="2" style="stroke:#181818;stroke-width:0.5;" width="4" x="739.0256" y="440.8699"/><text fill="#000000" font-family="sans-serif" font-size="14" lengthAdjust="spacing" textLength="116.0456" x="619.98" y="464.8358">Escalation Ladder</text></g><?plantuml-src TP7TQiCm34RlynGYBz1tM2cqq9_HTEnQJUHCpB6D9GVAsBjFb0wMPBqp_cJfw5XPFS4xUOUPO0LDIIbcXORoo2q9xFcQCT-gAc7xYJr1lGkfgDJmLG6qSKWnK52eNoYGOuKpjJ5tKa_Jrnn7xYZ3WKIipJm_awESqSEfg5qlyZKAmJ7g8ZWITN3XWJm7ggllFw3ducd9kV7SyvKzwstMQZDGxYcqjryBptOuNQq7AiVmT8qLR35qqRafqgwpCfji-IKNqGNTEdgFoNQDxb4npPjY_pBQW4QpcPnRYi4LCQu5bd0VxiHJ7hFzxsU-XO4KxcuFc9RTx2WFYR3-G9uFFB28lNquW7tivwwbHNy7WZrs9jMuVW00?></g></svg>