<?plantuml 1.2026.2?><svg xmlns="http://www.w3.org/2000/svg" xmlns:xlink="http://www.w3.org/1999/xlink" contentStyleType="text/css" data-diagram-type="ACTIVITY" height="577px" preserveAspectRatio="none" style="width:287px;height:577px;background:#FFFFFF;" version="1.1" viewBox="0 0 287 577" width="287px" zoomAndPan="magnify"><title>Obligation Lifecycle</title><defs/><g><g class="title" data-source-line="405"><text fill="#000000" font-family="sans-serif" font-size="14" font-weight="bold" lengthAdjust="spacing" textLength="138.0255" x="73.1212" y="34.9659">Obligation Lifecycle</text></g><ellipse cx="121.0479" cy="60.0679" fill="#222222" rx="10" ry="10" style="stroke:#222222;stroke-width:1;"/><rect fill="#F1F1F1" height="36.3441" rx="12.5" ry="12.5" style="stroke:#181818;stroke-width:0.5;" width="117.3087" x="62.3935" y="90.0679"/><text fill="#000000" font-family="sans-serif" font-size="12" lengthAdjust="spacing" textLength="97.3087" x="72.3935" y="112.896">Create obligation</text><rect fill="#F1F1F1" height="36.3441" rx="12.5" ry="12.5" style="stroke:#181818;stroke-width:0.5;" width="89.2165" x="76.4396" y="146.412"/><text fill="#000000" font-family="sans-serif" font-size="12" lengthAdjust="spacing" textLength="69.2165" x="86.4396" y="169.2401">Assign actor</text><rect fill="#F1F1F1" height="36.3441" rx="12.5" ry="12.5" style="stroke:#181818;stroke-width:0.5;" width="89.4445" x="76.3256" y="202.7561"/><text fill="#000000" font-family="sans-serif" font-size="12" lengthAdjust="spacing" textLength="69.4445" x="86.3256" y="225.5842">Set deadline</text><polygon fill="#F1F1F1" points="73.4622,259.1003,168.6336,259.1003,180.6336,271.1003,168.6336,283.1003,73.4622,283.1003,61.4622,271.1003,73.4622,259.1003" style="stroke:#181818;stroke-width:0.5;"/><text fill="#000000" font-family="sans-serif" font-size="11" lengthAdjust="spacing" textLength="95.1713" x="73.4622" y="275.3682">Action completed?</text><text fill="#000000" font-family="sans-serif" font-size="11" lengthAdjust="spacing" textLength="17.0829" x="44.3793" y="267.8773">yes</text><text fill="#000000" font-family="sans-serif" font-size="11" lengthAdjust="spacing" textLength="13.4529" x="180.6336" y="267.8773">no</text><rect fill="#F1F1F1" height="36.3441" rx="12.5" ry="12.5" style="stroke:#181818;stroke-width:0.5;" width="80.9244" x="11" y="293.1003"/><text fill="#000000" font-family="sans-serif" font-size="12" lengthAdjust="spacing" textLength="60.9244" x="21" y="315.9283">Mark done</text><rect fill="#F1F1F1" height="36.3441" rx="12.5" ry="12.5" style="stroke:#181818;stroke-width:0.5;" width="91.1125" x="145.0773" y="342.5912"/><text fill="#000000" font-family="sans-serif" font-size="12" lengthAdjust="spacing" textLength="71.1125" x="155.0773" y="365.4193">Mark breach</text><rect fill="#F1F1F1" height="36.3441" rx="12.5" ry="12.5" style="stroke:#181818;stroke-width:0.5;" width="121.2687" x="129.9992" y="413.9353"/><text fill="#000000" font-family="sans-serif" font-size="12" lengthAdjust="spacing" textLength="101.2687" x="139.9992" y="436.7634">Trigger escalation</text><polygon fill="#F1F1F1" points="145.6714,293.1003,235.5957,293.1003,247.5957,305.1003,235.5957,317.1003,145.6714,317.1003,133.6714,305.1003,145.6714,293.1003" style="stroke:#181818;stroke-width:0.5;"/><text fill="#000000" font-family="sans-serif" font-size="11" lengthAdjust="spacing" textLength="17.0829" x="194.6336" y="328.8592">yes</text><text fill="#000000" font-family="sans-serif" font-size="11" lengthAdjust="spacing" textLength="89.9244" x="145.6714" y="309.3682">Deadline passed?</text><polygon fill="#F1F1F1" points="190.6336,470.2794,202.6336,482.2794,190.6336,494.2794,178.6336,482.2794,190.6336,470.2794" style="stroke:#181818;stroke-width:0.5;"/><polygon fill="#F1F1F1" points="121.0479,500.2794,133.0479,512.2794,121.0479,524.2794,109.0479,512.2794,121.0479,500.2794" style="stroke:#181818;stroke-width:0.5;"/><ellipse cx="121.0479" cy="555.2794" fill="none" rx="11" ry="11" style="stroke:#222222;stroke-width:1;"/><ellipse cx="121.0479" cy="555.2794" fill="#222222" rx="6" ry="6" style="stroke:#222222;stroke-width:1;"/><line style="stroke:#181818;stroke-width:1;" x1="121.0479" x2="121.0479" y1="70.0679" y2="90.0679"/><polygon fill="#181818" points="117.0479,80.0679,121.0479,90.0679,125.0479,80.0679,121.0479,84.0679" style="stroke:#181818;stroke-width:1;"/><line style="stroke:#181818;stroke-width:1;" x1="121.0479" x2="121.0479" y1="126.412" y2="146.412"/><polygon fill="#181818" points="117.0479,136.412,121.0479,146.412,125.0479,136.412,121.0479,140.412" style="stroke:#181818;stroke-width:1;"/><line style="stroke:#181818;stroke-width:1;" x1="121.0479" x2="121.0479" y1="182.7561" y2="202.7561"/><polygon fill="#181818" points="117.0479,192.7561,121.0479,202.7561,125.0479,192.7561,121.0479,196.7561" style="stroke:#181818;stroke-width:1;"/><line style="stroke:#181818;stroke-width:1;" x1="190.6336" x2="190.6336" y1="378.9353" y2="413.9353"/><polygon fill="#181818" points="186.6336,403.9353,190.6336,413.9353,194.6336,403.9353,190.6336,407.9353" style="stroke:#181818;stroke-width:1;"/><line style="stroke:#181818;stroke-width:1;" x1="190.6336" x2="190.6336" y1="317.1003" y2="342.5912"/><polygon fill="#181818" points="186.6336,332.5912,190.6336,342.5912,194.6336,332.5912,190.6336,336.5912" style="stroke:#181818;stroke-width:1;"/><line style="stroke:#181818;stroke-width:1;" x1="247.5957" x2="261.2679" y1="305.1003" y2="305.1003"/><polygon fill="#181818" points="257.2679,386.4353,261.2679,396.4353,265.2679,386.4353,261.2679,390.4353" style="stroke:#181818;stroke-width:1;"/><line style="stroke:#181818;stroke-width:1;" x1="261.2679" x2="261.2679" y1="305.1003" y2="482.2794"/><line style="stroke:#181818;stroke-width:1;" x1="261.2679" x2="202.6336" y1="482.2794" y2="482.2794"/><polygon fill="#181818" points="212.6336,478.2794,202.6336,482.2794,212.6336,486.2794,208.6336,482.2794" style="stroke:#181818;stroke-width:1;"/><line style="stroke:#181818;stroke-width:1;" x1="190.6336" x2="190.6336" y1="450.2794" y2="470.2794"/><polygon fill="#181818" points="186.6336,460.2794,190.6336,470.2794,194.6336,460.2794,190.6336,464.2794" style="stroke:#181818;stroke-width:1;"/><line style="stroke:#181818;stroke-width:1;" x1="61.4622" x2="51.4622" y1="271.1003" y2="271.1003"/><line style="stroke:#181818;stroke-width:1;" x1="51.4622" x2="51.4622" y1="271.1003" y2="293.1003"/><polygon fill="#181818" points="47.4622,283.1003,51.4622,293.1003,55.4622,283.1003,51.4622,287.1003" style="stroke:#181818;stroke-width:1;"/><line style="stroke:#181818;stroke-width:1;" x1="180.6336" x2="190.6336" y1="271.1003" y2="271.1003"/><line style="stroke:#181818;stroke-width:1;" x1="190.6336" x2="190.6336" y1="271.1003" y2="293.1003"/><polygon fill="#181818" points="186.6336,283.1003,190.6336,293.1003,194.6336,283.1003,190.6336,287.1003" style="stroke:#181818;stroke-width:1;"/><line style="stroke:#181818;stroke-width:1;" x1="51.4622" x2="51.4622" y1="329.4444" y2="512.2794"/><line style="stroke:#181818;stroke-width:1;" x1="51.4622" x2="109.0479" y1="512.2794" y2="512.2794"/><polygon fill="#181818" points="99.0479,508.2794,109.0479,512.2794,99.0479,516.2794,103.0479,512.2794" style="stroke:#181818;stroke-width:1;"/><line style="stroke:#181818;stroke-width:1;" x1="190.6336" x2="190.6336" y1="494.2794" y2="512.2794"/><line style="stroke:#181818;stroke-width:1;" x1="190.6336" x2="133.0479" y1="512.2794" y2="512.2794"/><polygon fill="#181818" points="143.0479,508.2794,133.0479,512.2794,143.0479,516.2794,139.0479,512.2794" style="stroke:#181818;stroke-width:1;"/><line style="stroke:#181818;stroke-width:1;" x1="121.0479" x2="121.0479" y1="239.1003" y2="259.1003"/><polygon fill="#181818" points="117.0479,249.1003,121.0479,259.1003,125.0479,249.1003,121.0479,253.1003" style="stroke:#181818;stroke-width:1;"/><line style="stroke:#181818;stroke-width:1;" x1="121.0479" x2="121.0479" y1="524.2794" y2="544.2794"/><polygon fill="#181818" points="117.0479,534.2794,121.0479,544.2794,125.0479,534.2794,121.0479,538.2794" style="stroke:#181818;stroke-width:1;"/><?plantuml-src PO-n3i8m34HtVuN7zXVQ0LKmWXZW1zpaMYn2KYLU-lUqjB2mdEIJt-dEr0BusWSTnJH5Fki0Dxi0ecAIZQWvPeY1q--ffQOhHSV8uYpbvRp1s4Dyq8YMI0UkElV9S-ar1HZyeMPx878rezJ4t5maFzcd5K0eu2gcrL_Pqnx5avJoZtxXVYdc7ktctBEE8pAZE0bxJMP4hmDjkWnAqni0?></g></svg>