<?plantuml 1.2026.2?><svg xmlns="http://www.w3.org/2000/svg" xmlns:xlink="http://www.w3.org/1999/xlink" contentStyleType="text/css" data-diagram-type="ACTIVITY" height="873px" preserveAspectRatio="none" style="width:217px;height:873px;background:#FFFFFF;" version="1.1" viewBox="0 0 217 873" width="217px" zoomAndPan="magnify"><title>Standard Flow (Compact)</title><defs/><g><g class="title" data-source-line="219"><text fill="#000000" font-family="sans-serif" font-size="14" font-weight="bold" lengthAdjust="spacing" textLength="174.9013" x="20" y="34.9659">Standard Flow (Compact)</text></g><ellipse cx="104.5807" cy="60.0679" fill="#222222" rx="10" ry="10" style="stroke:#222222;stroke-width:1;"/><rect fill="#F1F1F1" height="36.3441" rx="12.5" ry="12.5" style="stroke:#181818;stroke-width:0.5;" width="78.7404" x="65.2105" y="90.0679"/><text fill="#000000" font-family="sans-serif" font-size="12" lengthAdjust="spacing" textLength="58.7404" x="75.2105" y="112.896">Input case</text><rect fill="#F1F1F1" height="36.3441" rx="12.5" ry="12.5" style="stroke:#181818;stroke-width:0.5;" width="104.5886" x="52.2864" y="146.412"/><text fill="#000000" font-family="sans-serif" font-size="12" lengthAdjust="spacing" textLength="84.5886" x="62.2864" y="169.2401">Classify signals</text><rect fill="#F1F1F1" height="36.3441" rx="12.5" ry="12.5" style="stroke:#181818;stroke-width:0.5;" width="89.0605" x="60.0505" y="202.7561"/><text fill="#000000" font-family="sans-serif" font-size="12" lengthAdjust="spacing" textLength="69.0605" x="70.0505" y="225.5842">Select mode</text><rect fill="#F1F1F1" height="36.3441" rx="12.5" ry="12.5" style="stroke:#181818;stroke-width:0.5;" width="88.9525" x="60.1045" y="259.1003"/><text fill="#000000" font-family="sans-serif" font-size="12" lengthAdjust="spacing" textLength="68.9525" x="70.1045" y="281.9283">Extract facts</text><rect fill="#F1F1F1" height="36.3441" rx="12.5" ry="12.5" style="stroke:#181818;stroke-width:0.5;" width="155.577" x="26.7922" y="315.4444"/><text fill="#000000" font-family="sans-serif" font-size="12" lengthAdjust="spacing" textLength="135.577" x="36.7922" y="338.2725">Extract identity patterns</text><rect fill="#F1F1F1" height="36.3441" rx="12.5" ry="12.5" style="stroke:#181818;stroke-width:0.5;" width="91.5205" x="58.8205" y="371.7885"/><text fill="#000000" font-family="sans-serif" font-size="12" lengthAdjust="spacing" textLength="71.5205" x="68.8205" y="394.6166">Build graphs</text><rect fill="#F1F1F1" height="36.3441" rx="12.5" ry="12.5" style="stroke:#181818;stroke-width:0.5;" width="91.3885" x="58.8865" y="428.1326"/><text fill="#000000" font-family="sans-serif" font-size="12" lengthAdjust="spacing" textLength="71.3885" x="68.8865" y="450.9607">Align graphs</text><rect fill="#F1F1F1" height="36.3441" rx="12.5" ry="12.5" style="stroke:#181818;stroke-width:0.5;" width="123.0567" x="43.0523" y="533.9677"/><text fill="#000000" font-family="sans-serif" font-size="12" lengthAdjust="spacing" textLength="103.0567" x="53.0523" y="556.7958">Create obligations</text><polygon fill="#F1F1F1" points="63.078,484.4767,146.0834,484.4767,158.0834,496.4767,146.0834,508.4767,63.078,508.4767,51.078,496.4767,63.078,484.4767" style="stroke:#181818;stroke-width:0.5;"/><text fill="#000000" font-family="sans-serif" font-size="11" lengthAdjust="spacing" textLength="17.0829" x="108.5807" y="520.2356">yes</text><text fill="#000000" font-family="sans-serif" font-size="11" lengthAdjust="spacing" textLength="83.0054" x="63.078" y="500.7447">Strict or Hybrid?</text><polygon fill="#F1F1F1" points="104.5807,590.3118,116.5807,602.3118,104.5807,614.3118,92.5807,602.3118,104.5807,590.3118" style="stroke:#181818;stroke-width:0.5;"/><rect fill="#F1F1F1" height="36.3441" rx="12.5" ry="12.5" style="stroke:#181818;stroke-width:0.5;" width="113.7327" x="47.7144" y="634.3118"/><text fill="#000000" font-family="sans-serif" font-size="12" lengthAdjust="spacing" textLength="93.7327" x="57.7144" y="657.1399">Generate output</text><rect fill="#F1F1F1" height="36.3441" rx="12.5" ry="12.5" style="stroke:#181818;stroke-width:0.5;" width="65.8403" x="71.6606" y="740.1468"/><text fill="#000000" font-family="sans-serif" font-size="12" lengthAdjust="spacing" textLength="45.8403" x="81.6606" y="762.9749">Escalate</text><polygon fill="#F1F1F1" points="84.1209,690.6559,125.0406,690.6559,137.0406,702.6559,125.0406,714.6559,84.1209,714.6559,72.1209,702.6559,84.1209,690.6559" style="stroke:#181818;stroke-width:0.5;"/><text fill="#000000" font-family="sans-serif" font-size="11" lengthAdjust="spacing" textLength="17.0829" x="108.5807" y="726.4148">yes</text><text fill="#000000" font-family="sans-serif" font-size="11" lengthAdjust="spacing" textLength="40.9197" x="84.1209" y="706.9239">Breach?</text><polygon fill="#F1F1F1" points="104.5807,796.4909,116.5807,808.4909,104.5807,820.4909,92.5807,808.4909,104.5807,796.4909" style="stroke:#181818;stroke-width:0.5;"/><ellipse cx="104.5807" cy="851.4909" fill="none" rx="11" ry="11" style="stroke:#222222;stroke-width:1;"/><ellipse cx="104.5807" cy="851.4909" fill="#222222" rx="6" ry="6" style="stroke:#222222;stroke-width:1;"/><line style="stroke:#181818;stroke-width:1;" x1="104.5807" x2="104.5807" y1="70.0679" y2="90.0679"/><polygon fill="#181818" points="100.5807,80.0679,104.5807,90.0679,108.5807,80.0679,104.5807,84.0679" style="stroke:#181818;stroke-width:1;"/><line style="stroke:#181818;stroke-width:1;" x1="104.5807" x2="104.5807" y1="126.412" y2="146.412"/><polygon fill="#181818" points="100.5807,136.412,104.5807,146.412,108.5807,136.412,104.5807,140.412" style="stroke:#181818;stroke-width:1;"/><line style="stroke:#181818;stroke-width:1;" x1="104.5807" x2="104.5807" y1="182.7561" y2="202.7561"/><polygon fill="#181818" points="100.5807,192.7561,104.5807,202.7561,108.5807,192.7561,104.5807,196.7561" style="stroke:#181818;stroke-width:1;"/><line style="stroke:#181818;stroke-width:1;" x1="104.5807" x2="104.5807" y1="239.1003" y2="259.1003"/><polygon fill="#181818" points="100.5807,249.1003,104.5807,259.1003,108.5807,249.1003,104.5807,253.1003" style="stroke:#181818;stroke-width:1;"/><line style="stroke:#181818;stroke-width:1;" x1="104.5807" x2="104.5807" y1="295.4444" y2="315.4444"/><polygon fill="#181818" points="100.5807,305.4444,104.5807,315.4444,108.5807,305.4444,104.5807,309.4444" style="stroke:#181818;stroke-width:1;"/><line style="stroke:#181818;stroke-width:1;" x1="104.5807" x2="104.5807" y1="351.7885" y2="371.7885"/><polygon fill="#181818" points="100.5807,361.7885,104.5807,371.7885,108.5807,361.7885,104.5807,365.7885" style="stroke:#181818;stroke-width:1;"/><line style="stroke:#181818;stroke-width:1;" x1="104.5807" x2="104.5807" y1="408.1326" y2="428.1326"/><polygon fill="#181818" points="100.5807,418.1326,104.5807,428.1326,108.5807,418.1326,104.5807,422.1326" style="stroke:#181818;stroke-width:1;"/><line style="stroke:#181818;stroke-width:1;" x1="104.5807" x2="104.5807" y1="508.4767" y2="533.9677"/><polygon fill="#181818" points="100.5807,523.9677,104.5807,533.9677,108.5807,523.9677,104.5807,527.9677" style="stroke:#181818;stroke-width:1;"/><line style="stroke:#181818;stroke-width:1;" x1="158.0834" x2="176.1091" y1="496.4767" y2="496.4767"/><polygon fill="#181818" points="172.1091,542.1397,176.1091,552.1397,180.1091,542.1397,176.1091,546.1397" style="stroke:#181818;stroke-width:1;"/><line style="stroke:#181818;stroke-width:1;" x1="176.1091" x2="176.1091" y1="496.4767" y2="602.3118"/><line style="stroke:#181818;stroke-width:1;" x1="176.1091" x2="116.5807" y1="602.3118" y2="602.3118"/><polygon fill="#181818" points="126.5807,598.3118,116.5807,602.3118,126.5807,606.3118,122.5807,602.3118" style="stroke:#181818;stroke-width:1;"/><line style="stroke:#181818;stroke-width:1;" x1="104.5807" x2="104.5807" y1="570.3118" y2="590.3118"/><polygon fill="#181818" points="100.5807,580.3118,104.5807,590.3118,108.5807,580.3118,104.5807,584.3118" style="stroke:#181818;stroke-width:1;"/><line style="stroke:#181818;stroke-width:1;" x1="104.5807" x2="104.5807" y1="464.4767" y2="484.4767"/><polygon fill="#181818" points="100.5807,474.4767,104.5807,484.4767,108.5807,474.4767,104.5807,478.4767" style="stroke:#181818;stroke-width:1;"/><line style="stroke:#181818;stroke-width:1;" x1="104.5807" x2="104.5807" y1="614.3118" y2="634.3118"/><polygon fill="#181818" points="100.5807,624.3118,104.5807,634.3118,108.5807,624.3118,104.5807,628.3118" style="stroke:#181818;stroke-width:1;"/><line style="stroke:#181818;stroke-width:1;" x1="104.5807" x2="104.5807" y1="714.6559" y2="740.1468"/><polygon fill="#181818" points="100.5807,730.1468,104.5807,740.1468,108.5807,730.1468,104.5807,734.1468" style="stroke:#181818;stroke-width:1;"/><line style="stroke:#181818;stroke-width:1;" x1="137.0406" x2="149.0406" y1="702.6559" y2="702.6559"/><polygon fill="#181818" points="145.0406,748.3189,149.0406,758.3189,153.0406,748.3189,149.0406,752.3189" style="stroke:#181818;stroke-width:1;"/><line style="stroke:#181818;stroke-width:1;" x1="149.0406" x2="149.0406" y1="702.6559" y2="808.4909"/><line style="stroke:#181818;stroke-width:1;" x1="149.0406" x2="116.5807" y1="808.4909" y2="808.4909"/><polygon fill="#181818" points="126.5807,804.4909,116.5807,808.4909,126.5807,812.4909,122.5807,808.4909" style="stroke:#181818;stroke-width:1;"/><line style="stroke:#181818;stroke-width:1;" x1="104.5807" x2="104.5807" y1="776.4909" y2="796.4909"/><polygon fill="#181818" points="100.5807,786.4909,104.5807,796.4909,108.5807,786.4909,104.5807,790.4909" style="stroke:#181818;stroke-width:1;"/><line style="stroke:#181818;stroke-width:1;" x1="104.5807" x2="104.5807" y1="670.6559" y2="690.6559"/><polygon fill="#181818" points="100.5807,680.6559,104.5807,690.6559,108.5807,680.6559,104.5807,684.6559" style="stroke:#181818;stroke-width:1;"/><line style="stroke:#181818;stroke-width:1;" x1="104.5807" x2="104.5807" y1="820.4909" y2="840.4909"/><polygon fill="#181818" points="100.5807,830.4909,104.5807,840.4909,108.5807,830.4909,104.5807,834.4909" style="stroke:#181818;stroke-width:1;"/><?plantuml-src POz1QiD034NtSmejxIkuYzAO9EtQ9r1cv5WmcHaacSQtZnn2A7GZ-Fh_VIHZomIJOKae2Kwv_a8trbl3Q7q8QYWMml1JsceGKUaZ36D6LPutKBuMpEghYJ95WrjDU-1uDt4UPX_wHtEYOcmRD3GZARjtM3adk0gsPPTVsJlVCl0CtMJ23bU1x-qYd3vxi8KAT1jf7m26KGYDe5wSHUEwzr99FFlXPoeaJtSrV-5LUN0YBl-AZXenU_YDgzNs0000?></g></svg>