<?plantuml 1.2026.2?><svg xmlns="http://www.w3.org/2000/svg" xmlns:xlink="http://www.w3.org/1999/xlink" contentStyleType="text/css" data-diagram-type="DESCRIPTION" height="270px" preserveAspectRatio="none" style="width:672px;height:270px;background:#FFFFFF;" version="1.1" viewBox="0 0 672 270" width="672px" zoomAndPan="magnify"><title>ITIR / SensibLaw - Context (Compact)</title><defs/><g><g class="title" data-source-line="43"><text fill="#000000" font-family="sans-serif" font-size="14" font-weight="bold" lengthAdjust="spacing" textLength="256.927" x="200.9665" y="24.9659">ITIR / SensibLaw - Context (Compact)</text></g><!--cluster EXT2--><g class="cluster" data-qualified-name="EXT2" data-source-line="53" id="ent0007"><rect fill="none" height="103.07" rx="2.5" ry="2.5" style="stroke:#181818;stroke-width:1;" width="481" x="185.86" y="161.6379"/><text fill="#000000" font-family="sans-serif" font-size="14" font-weight="bold" lengthAdjust="spacing" textLength="119.7695" x="366.4752" y="178.6039">External Systems</text></g><!--entity SYS2--><g class="entity" data-qualified-name="SYS2" data-source-line="50" id="ent0006"><rect fill="#F1F1F1" height="39.0679" rx="2.5" ry="2.5" style="stroke:#181818;stroke-width:0.5;" width="127.8276" x="244.94" y="65.5679"/><text fill="#000000" font-family="sans-serif" font-size="14" lengthAdjust="spacing" textLength="107.8276" x="254.94" y="90.5339">ITIR / SensibLaw</text></g><!--entity Legal--><g class="entity" data-qualified-name="EXT2.Legal" data-source-line="54" id="ent0008"><rect fill="#F1F1F1" height="49.0679" rx="2.5" ry="2.5" style="stroke:#181818;stroke-width:0.5;" width="75.3079" x="202.2" y="199.6379"/><rect fill="#F1F1F1" height="10" style="stroke:#181818;stroke-width:0.5;" width="15" x="257.5079" y="204.6379"/><rect fill="#F1F1F1" height="2" style="stroke:#181818;stroke-width:0.5;" width="4" x="255.5079" y="206.6379"/><rect fill="#F1F1F1" height="2" style="stroke:#181818;stroke-width:0.5;" width="4" x="255.5079" y="210.6379"/><text fill="#000000" font-family="sans-serif" font-size="14" lengthAdjust="spacing" textLength="35.3079" x="217.2" y="234.6039">Legal</text></g><!--entity Housing--><g class="entity" data-qualified-name="EXT2.Housing" data-source-line="55" id="ent0009"><rect fill="#F1F1F1" height="49.0679" rx="2.5" ry="2.5" style="stroke:#181818;stroke-width:0.5;" width="95.0758" x="312.32" y="199.6379"/><rect fill="#F1F1F1" height="10" style="stroke:#181818;stroke-width:0.5;" width="15" x="387.3958" y="204.6379"/><rect fill="#F1F1F1" height="2" style="stroke:#181818;stroke-width:0.5;" width="4" x="385.3958" y="206.6379"/><rect fill="#F1F1F1" height="2" style="stroke:#181818;stroke-width:0.5;" width="4" x="385.3958" y="210.6379"/><text fill="#000000" font-family="sans-serif" font-size="14" lengthAdjust="spacing" textLength="55.0758" x="327.32" y="234.6039">Housing</text></g><!--entity Health--><g class="entity" data-qualified-name="EXT2.Health" data-source-line="56" id="ent0010"><rect fill="#F1F1F1" height="49.0679" rx="2.5" ry="2.5" style="stroke:#181818;stroke-width:0.5;" width="83.4418" x="442.14" y="199.6379"/><rect fill="#F1F1F1" height="10" style="stroke:#181818;stroke-width:0.5;" width="15" x="505.5818" y="204.6379"/><rect fill="#F1F1F1" height="2" style="stroke:#181818;stroke-width:0.5;" width="4" x="503.5818" y="206.6379"/><rect fill="#F1F1F1" height="2" style="stroke:#181818;stroke-width:0.5;" width="4" x="503.5818" y="210.6379"/><text fill="#000000" font-family="sans-serif" font-size="14" lengthAdjust="spacing" textLength="43.4418" x="457.14" y="234.6039">Health</text></g><!--entity Welfare--><g class="entity" data-qualified-name="EXT2.Welfare" data-source-line="57" id="ent0011"><rect fill="#F1F1F1" height="49.0679" rx="2.5" ry="2.5" style="stroke:#181818;stroke-width:0.5;" width="90.8758" x="560.42" y="199.6379"/><rect fill="#F1F1F1" height="10" style="stroke:#181818;stroke-width:0.5;" width="15" x="631.2958" y="204.6379"/><rect fill="#F1F1F1" height="2" style="stroke:#181818;stroke-width:0.5;" width="4" x="629.2958" y="206.6379"/><rect fill="#F1F1F1" height="2" style="stroke:#181818;stroke-width:0.5;" width="4" x="629.2958" y="210.6379"/><text fill="#000000" font-family="sans-serif" font-size="14" lengthAdjust="spacing" textLength="50.8758" x="575.42" y="234.6039">Welfare</text></g><!--entity User--><g class="entity" data-qualified-name="User" data-source-line="45" id="ent0002"><ellipse cx="151.8589" cy="193.1379" fill="#F1F1F1" rx="8" ry="8" style="stroke:#181818;stroke-width:0.5;"/><path d="M151.8589,201.1379 L151.8589,228.1379 M138.8589,209.1379 L164.8589,209.1379 M151.8589,228.1379 L138.8589,243.1379 M151.8589,228.1379 L164.8589,243.1379" fill="none" style="stroke:#181818;stroke-width:0.5;"/><text fill="#000000" font-family="sans-serif" font-size="14" lengthAdjust="spacing" textLength="30.6179" x="136.55" y="259.6039">User</text></g><!--entity Lawyer--><g class="entity" data-qualified-name="Lawyer" data-source-line="46" id="ent0003"><ellipse cx="44.8559" cy="54.0679" fill="#F1F1F1" rx="8" ry="8" style="stroke:#181818;stroke-width:0.5;"/><path d="M44.8559,62.0679 L44.8559,89.0679 M31.8559,70.0679 L57.8559,70.0679 M44.8559,89.0679 L31.8559,104.0679 M44.8559,89.0679 L57.8559,104.0679" fill="none" style="stroke:#181818;stroke-width:0.5;"/><text fill="#000000" font-family="sans-serif" font-size="14" lengthAdjust="spacing" textLength="47.0118" x="21.35" y="120.5339">Lawyer</text></g><!--entity Clinician--><g class="entity" data-qualified-name="Clinician" data-source-line="47" id="ent0004"><ellipse cx="130.8569" cy="54.0679" fill="#F1F1F1" rx="8" ry="8" style="stroke:#181818;stroke-width:0.5;"/><path d="M130.8569,62.0679 L130.8569,89.0679 M117.8569,70.0679 L143.8569,70.0679 M130.8569,89.0679 L117.8569,104.0679 M130.8569,89.0679 L143.8569,104.0679" fill="none" style="stroke:#181818;stroke-width:0.5;"/><text fill="#000000" font-family="sans-serif" font-size="14" lengthAdjust="spacing" textLength="55.1738" x="103.27" y="120.5339">Clinician</text></g><!--entity Caseworker--><g class="entity" data-qualified-name="Caseworker" data-source-line="48" id="ent0005"><ellipse cx="44.8568" cy="193.1379" fill="#F1F1F1" rx="8" ry="8" style="stroke:#181818;stroke-width:0.5;"/><path d="M44.8568,201.1379 L44.8568,228.1379 M31.8568,209.1379 L57.8568,209.1379 M44.8568,228.1379 L31.8568,243.1379 M44.8568,228.1379 L57.8568,243.1379" fill="none" style="stroke:#181818;stroke-width:0.5;"/><text fill="#000000" font-family="sans-serif" font-size="14" lengthAdjust="spacing" textLength="77.7137" x="6" y="259.6039">Caseworker</text></g><!--link User to SYS2--><g class="link" data-entity-1="ent0002" data-entity-2="ent0006" data-link-type="dependency" data-source-line="60" id="lnk12"><path d="M167.65,210.7679 C177.66,195.7079 187.5,170.2679 203.36,153.6379 C223.53,132.4879 246.4458,118.9959 269.0058,107.7959" fill="none" id="User-to-SYS2" style="stroke:#181818;stroke-width:1;"/><polygon fill="#181818" points="274.38,105.1279,264.5401,105.5472,269.9015,107.3513,268.0974,112.7127,274.38,105.1279" style="stroke:#181818;stroke-width:1;"/></g><!--link SYS2 to User--><g class="link" data-entity-1="ent0006" data-entity-2="ent0002" data-link-type="dependency" data-source-line="61" id="lnk13"><path d="M244.62,104.4279 C218,115.6579 188.95,132.0479 168.36,153.6379 C160.01,162.3879 155.584,168.0274 151.194,178.8574" fill="none" id="SYS2-to-User" style="stroke:#181818;stroke-width:1;"/><polygon fill="#181818" points="148.94,184.4179,156.028,177.5798,150.8183,179.7841,148.614,174.5745,148.94,184.4179" style="stroke:#181818;stroke-width:1;"/></g><!--link SYS2 to Legal--><g class="link" data-entity-1="ent0006" data-entity-2="ent0008" data-link-type="dependency" data-source-line="62" id="lnk14"><path d="M299.41,104.8779 C287.01,129.5079 267.9393,167.3994 254.4293,194.2194" fill="none" id="SYS2-to-Legal" style="stroke:#181818;stroke-width:1;"/><polygon fill="#181818" points="251.73,199.5779,259.3512,193.3396,253.9794,195.1125,252.2065,189.7406,251.73,199.5779" style="stroke:#181818;stroke-width:1;"/></g><!--link SYS2 to Housing--><g class="link" data-entity-1="ent0006" data-entity-2="ent0009" data-link-type="dependency" data-source-line="63" id="lnk15"><path d="M315.84,104.8779 C325.01,129.5079 339.0075,167.1346 348.9875,193.9546" fill="none" id="SYS2-to-Housing" style="stroke:#181818;stroke-width:1;"/><polygon fill="#181818" points="351.08,199.5779,351.6901,189.748,349.3363,194.8918,344.1924,192.538,351.08,199.5779" style="stroke:#181818;stroke-width:1;"/></g><!--link SYS2 to Health--><g class="link" data-entity-1="ent0006" data-entity-2="ent0010" data-link-type="dependency" data-source-line="64" id="lnk16"><path d="M348.89,105.0879 C372.31,117.2079 401.72,134.2679 424.86,153.6379 C440.76,166.9579 452.1859,180.0813 463.1259,194.3913" fill="none" id="SYS2-to-Health" style="stroke:#181818;stroke-width:1;"/><polygon fill="#181818" points="466.77,199.1579,464.4816,189.5786,463.7333,195.1857,458.1261,194.4374,466.77,199.1579" style="stroke:#181818;stroke-width:1;"/></g><!--link SYS2 to Welfare--><g class="link" data-entity-1="ent0006" data-entity-2="ent0011" data-link-type="dependency" data-source-line="65" id="lnk17"><path d="M373.09,94.8379 C422.44,103.7679 490.75,121.1279 542.86,153.6379 C561.65,165.3679 574.6413,179.472 586.0813,194.602" fill="none" id="SYS2-to-Welfare" style="stroke:#181818;stroke-width:1;"/><polygon fill="#181818" points="589.7,199.3879,587.4626,189.7966,586.6844,195.3997,581.0813,194.6215,589.7,199.3879" style="stroke:#181818;stroke-width:1;"/></g><?plantuml-src NO_B2i8m44Nt-OgXArqKmGzmKmeANLb5NOvbhC4uaMIaBUA_cpwir4sOSxdap8WMGx3PRRQmW9pOwtE65SIGM1Qg1MQ9lJ-maBbIuRKEzfxSC8PcCq9YDEj28tyPFLNMtK91EIe4kGocw5yL0Nh8J_aINkezQQQra6Cqa3TUwEwxPdhSjKs08gnbcLWWenBD95dRfzTSJZD28zT9T21pGKUjjZqAudZLRQAwTLhgRXsf5utujVo2NZ7oyFy7?></g></svg>