<?plantuml 1.2026.2?><svg xmlns="http://www.w3.org/2000/svg" xmlns:xlink="http://www.w3.org/1999/xlink" contentStyleType="text/css" data-diagram-type="DESCRIPTION" height="356px" preserveAspectRatio="none" style="width:1470px;height:356px;background:#FFFFFF;" version="1.1" viewBox="0 0 1470 356" width="1470px" zoomAndPan="magnify"><title>Mode Controller - Container Alignment</title><defs/><g><g class="title" data-source-line="426"><text fill="#000000" font-family="sans-serif" font-size="14" font-weight="bold" lengthAdjust="spacing" textLength="271.459" x="592.475" y="24.9659">Mode Controller - Container Alignment</text></g><!--cluster ITIR / SensibLaw--><g class="cluster" data-qualified-name="ITIR . SensibLaw" data-source-line="430" id="ent0002"><rect fill="none" height="303" rx="2.5" ry="2.5" style="stroke:#181818;stroke-width:1;" width="1222.1" x="7" y="47.0679"/><text fill="#000000" font-family="sans-serif" font-size="14" font-weight="bold" lengthAdjust="spacing" textLength="114.6736" x="560.7132" y="64.0339">ITIR / SensibLaw</text></g><!--entity IN--><g class="entity" data-qualified-name="ITIR . SensibLaw.IN" data-source-line="431" id="ent0003"><rect fill="#F1F1F1" height="49.0679" rx="2.5" ry="2.5" style="stroke:#181818;stroke-width:0.5;" width="138.7696" x="23" y="168.5379"/><rect fill="#F1F1F1" height="10" style="stroke:#181818;stroke-width:0.5;" width="15" x="141.7696" y="173.5379"/><rect fill="#F1F1F1" height="2" style="stroke:#181818;stroke-width:0.5;" width="4" x="139.7696" y="175.5379"/><rect fill="#F1F1F1" height="2" style="stroke:#181818;stroke-width:0.5;" width="4" x="139.7696" y="179.5379"/><text fill="#000000" font-family="sans-serif" font-size="14" lengthAdjust="spacing" textLength="98.7696" x="38" y="203.5039">Input Interface</text></g><!--entity AE--><g class="entity" data-qualified-name="ITIR . SensibLaw.AE" data-source-line="432" id="ent0004"><rect fill="#F1F1F1" height="49.0679" rx="2.5" ry="2.5" style="stroke:#181818;stroke-width:0.5;" width="156.9695" x="344.77" y="168.5379"/><rect fill="#F1F1F1" height="10" style="stroke:#181818;stroke-width:0.5;" width="15" x="481.7395" y="173.5379"/><rect fill="#F1F1F1" height="2" style="stroke:#181818;stroke-width:0.5;" width="4" x="479.7395" y="175.5379"/><rect fill="#F1F1F1" height="2" style="stroke:#181818;stroke-width:0.5;" width="4" x="479.7395" y="179.5379"/><text fill="#000000" font-family="sans-serif" font-size="14" lengthAdjust="spacing" textLength="116.9695" x="359.77" y="203.5039">Alignment Engine</text></g><!--entity MC--><g class="entity" data-qualified-name="ITIR . SensibLaw.MC" data-source-line="433" id="ent0005"><rect fill="#F1F1F1" height="49.0679" rx="2.5" ry="2.5" style="stroke:#181818;stroke-width:0.5;" width="147.4916" x="674.74" y="168.5379"/><rect fill="#F1F1F1" height="10" style="stroke:#181818;stroke-width:0.5;" width="15" x="802.2316" y="173.5379"/><rect fill="#F1F1F1" height="2" style="stroke:#181818;stroke-width:0.5;" width="4" x="800.2316" y="175.5379"/><rect fill="#F1F1F1" height="2" style="stroke:#181818;stroke-width:0.5;" width="4" x="800.2316" y="179.5379"/><text fill="#000000" font-family="sans-serif" font-size="14" lengthAdjust="spacing" textLength="107.4916" x="689.74" y="203.5039">Mode Controller</text></g><!--entity OL--><g class="entity" data-qualified-name="ITIR . SensibLaw.OL" data-source-line="434" id="ent0006"><rect fill="#F1F1F1" height="49.0679" rx="2.5" ry="2.5" style="stroke:#181818;stroke-width:0.5;" width="148.6676" x="1059.33" y="278.5379"/><rect fill="#F1F1F1" height="10" style="stroke:#181818;stroke-width:0.5;" width="15" x="1187.9976" y="283.5379"/><rect fill="#F1F1F1" height="2" style="stroke:#181818;stroke-width:0.5;" width="4" x="1185.9976" y="285.5379"/><rect fill="#F1F1F1" height="2" style="stroke:#181818;stroke-width:0.5;" width="4" x="1185.9976" y="289.5379"/><text fill="#000000" font-family="sans-serif" font-size="14" lengthAdjust="spacing" textLength="108.6676" x="1074.33" y="313.5039">Obligation Layer</text></g><!--entity OE--><g class="entity" data-qualified-name="ITIR . SensibLaw.OE" data-source-line="435" id="ent0007"><rect fill="#F1F1F1" height="49.0679" rx="2.5" ry="2.5" style="stroke:#181818;stroke-width:0.5;" width="135.8016" x="1065.77" y="194.5379"/><rect fill="#F1F1F1" height="10" style="stroke:#181818;stroke-width:0.5;" width="15" x="1181.5716" y="199.5379"/><rect fill="#F1F1F1" height="2" style="stroke:#181818;stroke-width:0.5;" width="4" x="1179.5716" y="201.5379"/><rect fill="#F1F1F1" height="2" style="stroke:#181818;stroke-width:0.5;" width="4" x="1179.5716" y="205.5379"/><text fill="#000000" font-family="sans-serif" font-size="14" lengthAdjust="spacing" textLength="95.8016" x="1080.77" y="229.5039">Output Engine</text></g><!--entity GL--><g class="entity" data-qualified-name="ITIR . SensibLaw.GL" data-source-line="436" id="ent0008"><rect fill="#F1F1F1" height="49.0679" rx="2.5" ry="2.5" style="stroke:#181818;stroke-width:0.5;" width="158.8735" x="1054.23" y="96.5379"/><rect fill="#F1F1F1" height="10" style="stroke:#181818;stroke-width:0.5;" width="15" x="1193.1035" y="101.5379"/><rect fill="#F1F1F1" height="2" style="stroke:#181818;stroke-width:0.5;" width="4" x="1191.1035" y="103.5379"/><rect fill="#F1F1F1" height="2" style="stroke:#181818;stroke-width:0.5;" width="4" x="1191.1035" y="107.5379"/><text fill="#000000" font-family="sans-serif" font-size="14" lengthAdjust="spacing" textLength="118.8735" x="1069.23" y="131.5039">Governance Layer</text></g><!--entity User--><g class="entity" data-qualified-name="User" data-source-line="445" id="ent0015"><ellipse cx="1448.1" cy="219.0679" fill="#F1F1F1" rx="8" ry="8" style="stroke:#181818;stroke-width:0.5;"/><text fill="#000000" font-family="sans-serif" font-size="14" lengthAdjust="spacing" textLength="30.6179" x="1432.7911" y="251.0339">User</text></g><!--link IN to AE--><g class="link" data-entity-1="ent0003" data-entity-2="ent0004" data-link-type="dependency" data-source-line="439" id="lnk9"><path d="M161.93,193.0679 C215.11,193.0679 282.85,193.0679 338.28,193.0679" fill="none" id="IN-to-AE" style="stroke:#181818;stroke-width:1;"/><polygon fill="#181818" points="344.28,193.0679,335.28,189.0679,339.28,193.0679,335.28,197.0679,344.28,193.0679" style="stroke:#181818;stroke-width:1;"/><text fill="#000000" font-family="sans-serif" font-size="13" lengthAdjust="spacing" textLength="110.8901" x="198.1585" y="170.9649">risk, time, conflict,</text><text fill="#000000" font-family="sans-serif" font-size="13" lengthAdjust="spacing" textLength="121.6671" x="192.77" y="188.6709">evidence, user state</text></g><!--link AE to MC--><g class="link" data-entity-1="ent0004" data-entity-2="ent0005" data-link-type="dependency" data-source-line="440" id="lnk10"><path d="M502.09,193.0679 C554.49,193.0679 617.13,193.0679 668.48,193.0679" fill="none" id="AE-to-MC" style="stroke:#181818;stroke-width:1;"/><polygon fill="#181818" points="674.48,193.0679,665.48,189.0679,669.48,193.0679,665.48,197.0679,674.48,193.0679" style="stroke:#181818;stroke-width:1;"/><text fill="#000000" font-family="sans-serif" font-size="13" lengthAdjust="spacing" textLength="111.9301" x="532.74" y="188.9649">confirmed context</text></g><!--link MC to OE--><g class="link" data-entity-1="ent0005" data-entity-2="ent0007" data-link-type="dependency" data-source-line="441" id="lnk11"><path d="M819.85,218.0379 C830.58,220.9479 841.61,223.4479 852.23,225.0679 C924.45,236.0579 1002.3444,232.6482 1059.4144,227.4882" fill="none" id="MC-to-OE" style="stroke:#181818;stroke-width:1;"/><polygon fill="#181818" points="1065.39,226.9479,1056.0664,223.7746,1060.4103,227.3982,1056.7868,231.7421,1065.39,226.9479" style="stroke:#181818;stroke-width:1;"/><text fill="#000000" font-family="sans-serif" font-size="13" lengthAdjust="spacing" textLength="170.1182" x="853.23" y="220.9649">mode = light / hybrid / strict</text></g><!--link MC to OL--><g class="link" data-entity-1="ent0005" data-entity-2="ent0006" data-link-type="dependency" data-source-line="442" id="lnk12"><path d="M771.68,217.9979 C790.87,237.7279 820.46,264.0479 852.23,277.0679 C918.51,304.2279 994.771,308.925 1053.021,307.885" fill="none" id="MC-to-OL" style="stroke:#181818;stroke-width:1;"/><polygon fill="#181818" points="1059.02,307.7779,1049.95,303.9392,1054.0208,307.8672,1050.0928,311.9379,1059.02,307.7779" style="stroke:#181818;stroke-width:1;"/><text fill="#000000" font-family="sans-serif" font-size="13" lengthAdjust="spacing" textLength="170.1572" x="853.23" y="254.9649">activate obligation handling</text><text fill="#000000" font-family="sans-serif" font-size="13" lengthAdjust="spacing" textLength="102.6351" x="886.991" y="272.6709">for hybrid / strict</text></g><!--link MC to GL--><g class="link" data-entity-1="ent0005" data-entity-2="ent0008" data-link-type="dependency" data-source-line="443" id="lnk13"><path d="M822.5,191.7379 C878.45,189.3179 957.17,182.8779 1024.23,166.0679 C1043.41,161.2579 1058.1085,156.0093 1075.8185,148.3893" fill="none" id="MC-to-GL" style="stroke:#181818;stroke-width:1;"/><polygon fill="#181818" points="1081.33,146.0179,1071.4818,145.9007,1076.7371,147.9941,1074.6437,153.2493,1081.33,146.0179" style="stroke:#181818;stroke-width:1;"/><text fill="#000000" font-family="sans-serif" font-size="13" lengthAdjust="spacing" textLength="110.2141" x="883.23" y="161.9649">enforcement level</text></g><!--link GL to MC--><g class="link" data-entity-1="ent0008" data-entity-2="ent0005" data-link-type="dependency" data-source-line="444" id="lnk14"><path d="M1053.96,119.4579 C997,120.1579 918.68,124.9979 852.23,143.0679 C831.37,148.7479 814.9496,155.8536 796.8796,165.3636" fill="none" id="GL-to-MC" style="stroke:#181818;stroke-width:1;"/><polygon fill="#181818" points="791.57,168.1579,801.3973,167.5061,795.9946,165.8293,797.6715,160.4267,791.57,168.1579" style="stroke:#181818;stroke-width:1;"/><text fill="#000000" font-family="sans-serif" font-size="13" lengthAdjust="spacing" textLength="109.3171" x="883.73" y="116.0749">guardrails / policy</text></g><!--link OE to User--><g class="link" data-entity-1="ent0007" data-entity-2="ent0015" data-link-type="dependency" data-source-line="445" id="lnk16"><path d="M1201.69,219.0679 C1281.3,219.0679 1401.39,219.0679 1433.48,219.0679" fill="none" id="OE-to-User" style="stroke:#181818;stroke-width:1;"/><polygon fill="#181818" points="1439.48,219.0679,1430.48,215.0679,1434.48,219.0679,1430.48,223.0679,1439.48,219.0679" style="stroke:#181818;stroke-width:1;"/><text fill="#000000" font-family="sans-serif" font-size="13" lengthAdjust="spacing" textLength="144.3001" x="1246.1" y="214.9649">guidance or obligations</text></g><?plantuml-src TP5DQyCm38Rl_XMYvvJU1nkKKaeWRM0VjrxSM4t57BdOIhOozjydPwDVi9jiF--hLxAGU8HrS0YBm1A3znXXEXuiiTPpJorto6ACnxs018ZK7WGSHMo40XkJ2ykjEatAr_8PPl22d6XNsOy9V1c09dJ7m6gY01zxWP85uzusE06ReDpSCkUUiEHMKupGV7aBtOKUcVNYbgbtwcHpIAZiwG-ggpkebnpfgbLzrseL1enikS4hcrLbleqfDp2TFcauUD2zfFS2X3eiLCrxJuqKMyQ17AgsW3xfGfDOGQE2h5ilL9TPYXswN0b-Yj7h_5fdroxF-GX-NFeC3gTT9AT5agZ-PxHIrEf_3EeEuJBtmRBpnEsMzo7-frvbDMQYmN7l7WVqHg_F8TlUHXSj-QJgOz3PJgR-7U8jZvK9SkEEjCybGFe1?></g></svg>