<?plantuml 1.2026.2?><svg xmlns="http://www.w3.org/2000/svg" xmlns:xlink="http://www.w3.org/1999/xlink" contentStyleType="text/css" data-diagram-type="ACTIVITY" height="824px" preserveAspectRatio="none" style="width:472px;height:824px;background:#FFFFFF;" version="1.1" viewBox="0 0 472 824" width="472px" zoomAndPan="magnify"><title>Everyday UX Flow</title><defs/><g><g class="title" data-source-line="449"><text fill="#000000" font-family="sans-serif" font-size="14" font-weight="bold" lengthAdjust="spacing" textLength="123.5075" x="172.8576" y="34.9659">Everyday UX Flow</text></g><ellipse cx="236.5223" cy="60.0679" fill="#222222" rx="10" ry="10" style="stroke:#222222;stroke-width:1;"/><rect fill="#F1F1F1" height="36.3441" rx="12.5" ry="12.5" style="stroke:#181818;stroke-width:0.5;" width="98.5166" x="187.264" y="90.0679"/><text fill="#000000" font-family="sans-serif" font-size="12" lengthAdjust="spacing" textLength="78.5166" x="197.264" y="112.896">Quick capture</text><rect fill="#F1F1F1" height="36.3441" rx="12.5" ry="12.5" style="stroke:#181818;stroke-width:0.5;" width="118.7607" x="177.142" y="146.412"/><text fill="#000000" font-family="sans-serif" font-size="12" lengthAdjust="spacing" textLength="98.7607" x="187.142" y="169.2401">Auto-select mode</text><polygon fill="#F1F1F1" points="221.0674,202.7561,251.9772,202.7561,263.9772,214.7561,251.9772,226.7561,221.0674,226.7561,209.0674,214.7561,221.0674,202.7561" style="stroke:#181818;stroke-width:0.5;"/><text fill="#000000" font-family="sans-serif" font-size="11" lengthAdjust="spacing" textLength="30.9098" x="221.0674" y="219.0241">Light?</text><text fill="#000000" font-family="sans-serif" font-size="11" lengthAdjust="spacing" textLength="17.0829" x="191.9846" y="211.5332">yes</text><text fill="#000000" font-family="sans-serif" font-size="11" lengthAdjust="spacing" textLength="76.1085" x="263.9772" y="211.5332">strict or hybrid</text><rect fill="#F1F1F1" height="36.3441" rx="12.5" ry="12.5" style="stroke:#181818;stroke-width:0.5;" width="172.3411" x="27.2961" y="236.7561"/><text fill="#000000" font-family="sans-serif" font-size="12" lengthAdjust="spacing" textLength="152.3411" x="37.2961" y="259.5842">Show "What this looks like"</text><rect fill="#F1F1F1" height="36.3441" rx="12.5" ry="12.5" style="stroke:#181818;stroke-width:0.5;" width="140.4569" x="43.2382" y="293.1003"/><text fill="#000000" font-family="sans-serif" font-size="12" lengthAdjust="spacing" textLength="120.4569" x="53.2382" y="315.9283">Show "What matters"</text><rect fill="#F1F1F1" height="36.3441" rx="12.5" ry="12.5" style="stroke:#181818;stroke-width:0.5;" width="153.705" x="36.6142" y="349.4444"/><text fill="#000000" font-family="sans-serif" font-size="12" lengthAdjust="spacing" textLength="133.705" x="46.6142" y="372.2725">Show "What to do next"</text><rect fill="#F1F1F1" height="36.3441" rx="12.5" ry="12.5" style="stroke:#181818;stroke-width:0.5;" width="204.9333" x="11" y="455.2794"/><text fill="#000000" font-family="sans-serif" font-size="12" lengthAdjust="spacing" textLength="184.9333" x="21" y="478.1075">Show evidence / timeline / graph</text><polygon fill="#F1F1F1" points="65.3585,405.7885,161.5748,405.7885,173.5748,417.7885,161.5748,429.7885,65.3585,429.7885,53.3585,417.7885,65.3585,405.7885" style="stroke:#181818;stroke-width:0.5;"/><text fill="#000000" font-family="sans-serif" font-size="11" lengthAdjust="spacing" textLength="17.0829" x="117.4667" y="441.5474">yes</text><text fill="#000000" font-family="sans-serif" font-size="11" lengthAdjust="spacing" textLength="96.2163" x="65.3585" y="422.0565">Need more depth?</text><polygon fill="#F1F1F1" points="113.4667,511.6235,125.4667,523.6235,113.4667,535.6235,101.4667,523.6235,113.4667,511.6235" style="stroke:#181818;stroke-width:0.5;"/><rect fill="#F1F1F1" height="36.3441" rx="12.5" ry="12.5" style="stroke:#181818;stroke-width:0.5;" width="159.801" x="33.5662" y="605.1145"/><text fill="#000000" font-family="sans-serif" font-size="12" lengthAdjust="spacing" textLength="139.801" x="43.5662" y="627.9426">Switch to Hybrid or Strict</text><polygon fill="#F1F1F1" points="53.2586,555.6235,173.6747,555.6235,185.6747,567.6235,173.6747,579.6235,53.2586,579.6235,41.2586,567.6235,53.2586,555.6235" style="stroke:#181818;stroke-width:0.5;"/><text fill="#000000" font-family="sans-serif" font-size="11" lengthAdjust="spacing" textLength="17.0829" x="117.4667" y="591.3825">yes</text><text fill="#000000" font-family="sans-serif" font-size="11" lengthAdjust="spacing" textLength="120.4162" x="53.2586" y="571.8915">Need stricter handling?</text><polygon fill="#F1F1F1" points="113.4667,661.4586,125.4667,673.4586,113.4667,685.4586,101.4667,673.4586,113.4667,661.4586" style="stroke:#181818;stroke-width:0.5;"/><rect fill="#F1F1F1" height="36.3441" rx="12.5" ry="12.5" style="stroke:#181818;stroke-width:0.5;" width="136.0048" x="291.5756" y="236.7561"/><text fill="#000000" font-family="sans-serif" font-size="12" lengthAdjust="spacing" textLength="116.0048" x="301.5756" y="259.5842">Show obligations list</text><rect fill="#F1F1F1" height="36.3441" rx="12.5" ry="12.5" style="stroke:#181818;stroke-width:0.5;" width="179.3011" x="269.9274" y="293.1003"/><text fill="#000000" font-family="sans-serif" font-size="12" lengthAdjust="spacing" textLength="159.3011" x="279.9274" y="315.9283">Show deadlines and fallback</text><rect fill="#F1F1F1" height="36.3441" rx="12.5" ry="12.5" style="stroke:#181818;stroke-width:0.5;" width="203.2894" x="257.9333" y="349.4444"/><text fill="#000000" font-family="sans-serif" font-size="12" lengthAdjust="spacing" textLength="183.2894" x="267.9333" y="372.2725">Offer generate / notify / escalate</text><polygon fill="#F1F1F1" points="236.5223,691.4586,248.5223,703.4586,236.5223,715.4586,224.5223,703.4586,236.5223,691.4586" style="stroke:#181818;stroke-width:0.5;"/><rect fill="#F1F1F1" height="36.3441" rx="12.5" ry="12.5" style="stroke:#181818;stroke-width:0.5;" width="177.4531" x="147.7958" y="735.4586"/><text fill="#000000" font-family="sans-serif" font-size="12" lengthAdjust="spacing" textLength="157.4531" x="157.7958" y="758.2867">Trust controls always visible</text><ellipse cx="236.5223" cy="802.8027" fill="none" rx="11" ry="11" style="stroke:#222222;stroke-width:1;"/><ellipse cx="236.5223" cy="802.8027" fill="#222222" rx="6" ry="6" style="stroke:#222222;stroke-width:1;"/><line style="stroke:#181818;stroke-width:1;" x1="236.5223" x2="236.5223" y1="70.0679" y2="90.0679"/><polygon fill="#181818" points="232.5223,80.0679,236.5223,90.0679,240.5223,80.0679,236.5223,84.0679" style="stroke:#181818;stroke-width:1;"/><line style="stroke:#181818;stroke-width:1;" x1="236.5223" x2="236.5223" y1="126.412" y2="146.412"/><polygon fill="#181818" points="232.5223,136.412,236.5223,146.412,240.5223,136.412,236.5223,140.412" style="stroke:#181818;stroke-width:1;"/><line style="stroke:#181818;stroke-width:1;" x1="113.4667" x2="113.4667" y1="273.1003" y2="293.1003"/><polygon fill="#181818" points="109.4667,283.1003,113.4667,293.1003,117.4667,283.1003,113.4667,287.1003" style="stroke:#181818;stroke-width:1;"/><line style="stroke:#181818;stroke-width:1;" x1="113.4667" x2="113.4667" y1="329.4444" y2="349.4444"/><polygon fill="#181818" points="109.4667,339.4444,113.4667,349.4444,117.4667,339.4444,113.4667,343.4444" style="stroke:#181818;stroke-width:1;"/><line style="stroke:#181818;stroke-width:1;" x1="113.4667" x2="113.4667" y1="429.7885" y2="455.2794"/><polygon fill="#181818" points="109.4667,445.2794,113.4667,455.2794,117.4667,445.2794,113.4667,449.2794" style="stroke:#181818;stroke-width:1;"/><line style="stroke:#181818;stroke-width:1;" x1="173.5748" x2="225.9333" y1="417.7885" y2="417.7885"/><polygon fill="#181818" points="221.9333,463.4515,225.9333,473.4515,229.9333,463.4515,225.9333,467.4515" style="stroke:#181818;stroke-width:1;"/><line style="stroke:#181818;stroke-width:1;" x1="225.9333" x2="225.9333" y1="417.7885" y2="523.6235"/><line style="stroke:#181818;stroke-width:1;" x1="225.9333" x2="125.4667" y1="523.6235" y2="523.6235"/><polygon fill="#181818" points="135.4667,519.6235,125.4667,523.6235,135.4667,527.6235,131.4667,523.6235" style="stroke:#181818;stroke-width:1;"/><line style="stroke:#181818;stroke-width:1;" x1="113.4667" x2="113.4667" y1="491.6235" y2="511.6235"/><polygon fill="#181818" points="109.4667,501.6235,113.4667,511.6235,117.4667,501.6235,113.4667,505.6235" style="stroke:#181818;stroke-width:1;"/><line style="stroke:#181818;stroke-width:1;" x1="113.4667" x2="113.4667" y1="385.7885" y2="405.7885"/><polygon fill="#181818" points="109.4667,395.7885,113.4667,405.7885,117.4667,395.7885,113.4667,399.7885" style="stroke:#181818;stroke-width:1;"/><line style="stroke:#181818;stroke-width:1;" x1="113.4667" x2="113.4667" y1="579.6235" y2="605.1145"/><polygon fill="#181818" points="109.4667,595.1145,113.4667,605.1145,117.4667,595.1145,113.4667,599.1145" style="stroke:#181818;stroke-width:1;"/><line style="stroke:#181818;stroke-width:1;" x1="185.6747" x2="203.3672" y1="567.6235" y2="567.6235"/><polygon fill="#181818" points="199.3672,613.2865,203.3672,623.2865,207.3672,613.2865,203.3672,617.2865" style="stroke:#181818;stroke-width:1;"/><line style="stroke:#181818;stroke-width:1;" x1="203.3672" x2="203.3672" y1="567.6235" y2="673.4586"/><line style="stroke:#181818;stroke-width:1;" x1="203.3672" x2="125.4667" y1="673.4586" y2="673.4586"/><polygon fill="#181818" points="135.4667,669.4586,125.4667,673.4586,135.4667,677.4586,131.4667,673.4586" style="stroke:#181818;stroke-width:1;"/><line style="stroke:#181818;stroke-width:1;" x1="113.4667" x2="113.4667" y1="641.4586" y2="661.4586"/><polygon fill="#181818" points="109.4667,651.4586,113.4667,661.4586,117.4667,651.4586,113.4667,655.4586" style="stroke:#181818;stroke-width:1;"/><line style="stroke:#181818;stroke-width:1;" x1="113.4667" x2="113.4667" y1="535.6235" y2="555.6235"/><polygon fill="#181818" points="109.4667,545.6235,113.4667,555.6235,117.4667,545.6235,113.4667,549.6235" style="stroke:#181818;stroke-width:1;"/><line style="stroke:#181818;stroke-width:1;" x1="359.578" x2="359.578" y1="273.1003" y2="293.1003"/><polygon fill="#181818" points="355.578,283.1003,359.578,293.1003,363.578,283.1003,359.578,287.1003" style="stroke:#181818;stroke-width:1;"/><line style="stroke:#181818;stroke-width:1;" x1="359.578" x2="359.578" y1="329.4444" y2="349.4444"/><polygon fill="#181818" points="355.578,339.4444,359.578,349.4444,363.578,339.4444,359.578,343.4444" style="stroke:#181818;stroke-width:1;"/><line style="stroke:#181818;stroke-width:1;" x1="209.0674" x2="113.4667" y1="214.7561" y2="214.7561"/><line style="stroke:#181818;stroke-width:1;" x1="113.4667" x2="113.4667" y1="214.7561" y2="236.7561"/><polygon fill="#181818" points="109.4667,226.7561,113.4667,236.7561,117.4667,226.7561,113.4667,230.7561" style="stroke:#181818;stroke-width:1;"/><line style="stroke:#181818;stroke-width:1;" x1="263.9772" x2="359.578" y1="214.7561" y2="214.7561"/><line style="stroke:#181818;stroke-width:1;" x1="359.578" x2="359.578" y1="214.7561" y2="236.7561"/><polygon fill="#181818" points="355.578,226.7561,359.578,236.7561,363.578,226.7561,359.578,230.7561" style="stroke:#181818;stroke-width:1;"/><line style="stroke:#181818;stroke-width:1;" x1="113.4667" x2="113.4667" y1="685.4586" y2="703.4586"/><line style="stroke:#181818;stroke-width:1;" x1="113.4667" x2="224.5223" y1="703.4586" y2="703.4586"/><polygon fill="#181818" points="214.5223,699.4586,224.5223,703.4586,214.5223,707.4586,218.5223,703.4586" style="stroke:#181818;stroke-width:1;"/><line style="stroke:#181818;stroke-width:1;" x1="359.578" x2="359.578" y1="385.7885" y2="703.4586"/><line style="stroke:#181818;stroke-width:1;" x1="359.578" x2="248.5223" y1="703.4586" y2="703.4586"/><polygon fill="#181818" points="258.5223,699.4586,248.5223,703.4586,258.5223,707.4586,254.5223,703.4586" style="stroke:#181818;stroke-width:1;"/><line style="stroke:#181818;stroke-width:1;" x1="236.5223" x2="236.5223" y1="182.7561" y2="202.7561"/><polygon fill="#181818" points="232.5223,192.7561,236.5223,202.7561,240.5223,192.7561,236.5223,196.7561" style="stroke:#181818;stroke-width:1;"/><line style="stroke:#181818;stroke-width:1;" x1="236.5223" x2="236.5223" y1="715.4586" y2="735.4586"/><polygon fill="#181818" points="232.5223,725.4586,236.5223,735.4586,240.5223,725.4586,236.5223,729.4586" style="stroke:#181818;stroke-width:1;"/><line style="stroke:#181818;stroke-width:1;" x1="236.5223" x2="236.5223" y1="771.8027" y2="791.8027"/><polygon fill="#181818" points="232.5223,781.8027,236.5223,791.8027,240.5223,781.8027,236.5223,785.8027" style="stroke:#181818;stroke-width:1;"/><?plantuml-src RL2nJiGm3Dtp5HRJtO3OUmDY034W43eGh6dYDbPpSHMxL_ht93sXGmUBPRrdl_Ti9Oq8zqVCYxSBl7_2G-JP656RrPZcTI8tWBEZJXbtfhcRbAy58pg50_i26UfWyqHzqDijQC04cmLbQm2QVU0PhZw2rKAGG6GUIgK1htON_C6gOfO_k39uXeHVkbBLwndH5--Cu77KSEdwiuz7yfWSmWqe7J1IgcsVxHYg4YPFtMz5qKokP81Wao_J_N_2CwaBDTJZqcRom1dswzvP4gCWR4vgbG_hvFaVt4RghHAd-WhHyyKURJL6WP80EXjZQzsmyYzTLvBrc31RhNSaLkgMqg0u6mksCoTxqxpbIHGS9yqSYrQSxI9m9A4sbZ5H7hy1?></g></svg>