<?plantuml 1.2026.2?><svg xmlns="http://www.w3.org/2000/svg" xmlns:xlink="http://www.w3.org/1999/xlink" contentStyleType="text/css" data-diagram-type="DESCRIPTION" height="974px" preserveAspectRatio="none" style="width:1168px;height:974px;background:#FFFFFF;" version="1.1" viewBox="0 0 1168 974" width="1168px" zoomAndPan="magnify"><title>ITIR / SensibLaw - System Context</title><defs/><g><g class="title" data-source-line="1"><text fill="#000000" font-family="sans-serif" font-size="14" font-weight="bold" lengthAdjust="spacing" textLength="236.3331" x="459.2435" y="24.9659">ITIR / SensibLaw - System Context</text></g><!--cluster EXT--><g class="cluster" data-qualified-name="EXT" data-source-line="11" id="ent0007"><rect fill="none" height="307" rx="2.5" ry="2.5" style="stroke:#181818;stroke-width:1;" width="427.3" x="735.52" y="661.0979"/><text fill="#000000" font-family="sans-serif" font-size="14" font-weight="bold" lengthAdjust="spacing" textLength="144.0734" x="877.1333" y="678.0639">External Institutions</text></g><!--entity Landlord / Agent--><g class="entity" data-qualified-name="EXT.Landlord . Agent" data-source-line="12" id="ent0008"><rect fill="#F1F1F1" height="49.0679" rx="2.5" ry="2.5" style="stroke:#181818;stroke-width:0.5;" width="150.5716" x="768.26" y="894.5679"/><rect fill="#F1F1F1" height="10" style="stroke:#181818;stroke-width:0.5;" width="15" x="898.8316" y="899.5679"/><rect fill="#F1F1F1" height="2" style="stroke:#181818;stroke-width:0.5;" width="4" x="896.8316" y="901.5679"/><rect fill="#F1F1F1" height="2" style="stroke:#181818;stroke-width:0.5;" width="4" x="896.8316" y="905.5679"/><text fill="#000000" font-family="sans-serif" font-size="14" lengthAdjust="spacing" textLength="110.5716" x="783.26" y="929.5339">Landlord / Agent</text></g><!--entity Church / Institution--><g class="entity" data-qualified-name="EXT.Church . Institution" data-source-line="13" id="ent0009"><rect fill="#F1F1F1" height="49.0679" rx="2.5" ry="2.5" style="stroke:#181818;stroke-width:0.5;" width="168.0575" x="759.52" y="810.5679"/><rect fill="#F1F1F1" height="10" style="stroke:#181818;stroke-width:0.5;" width="15" x="907.5775" y="815.5679"/><rect fill="#F1F1F1" height="2" style="stroke:#181818;stroke-width:0.5;" width="4" x="905.5775" y="817.5679"/><rect fill="#F1F1F1" height="2" style="stroke:#181818;stroke-width:0.5;" width="4" x="905.5775" y="821.5679"/><text fill="#000000" font-family="sans-serif" font-size="14" lengthAdjust="spacing" textLength="128.0575" x="774.52" y="845.5339">Church / Institution</text></g><!--entity Health Service--><g class="entity" data-qualified-name="EXT.Health Service" data-source-line="14" id="ent0010"><rect fill="#F1F1F1" height="49.0679" rx="2.5" ry="2.5" style="stroke:#181818;stroke-width:0.5;" width="133.7856" x="776.65" y="726.5679"/><rect fill="#F1F1F1" height="10" style="stroke:#181818;stroke-width:0.5;" width="15" x="890.4356" y="731.5679"/><rect fill="#F1F1F1" height="2" style="stroke:#181818;stroke-width:0.5;" width="4" x="888.4356" y="733.5679"/><rect fill="#F1F1F1" height="2" style="stroke:#181818;stroke-width:0.5;" width="4" x="888.4356" y="737.5679"/><text fill="#000000" font-family="sans-serif" font-size="14" lengthAdjust="spacing" textLength="93.7856" x="791.65" y="761.5339">Health Service</text></g><!--entity Welfare Provider--><g class="entity" data-qualified-name="EXT.Welfare Provider" data-source-line="15" id="ent0011"><rect fill="#F1F1F1" height="49.0679" rx="2.5" ry="2.5" style="stroke:#181818;stroke-width:0.5;" width="150.2496" x="988.57" y="894.5679"/><rect fill="#F1F1F1" height="10" style="stroke:#181818;stroke-width:0.5;" width="15" x="1118.8196" y="899.5679"/><rect fill="#F1F1F1" height="2" style="stroke:#181818;stroke-width:0.5;" width="4" x="1116.8196" y="901.5679"/><rect fill="#F1F1F1" height="2" style="stroke:#181818;stroke-width:0.5;" width="4" x="1116.8196" y="905.5679"/><text fill="#000000" font-family="sans-serif" font-size="14" lengthAdjust="spacing" textLength="110.2496" x="1003.57" y="929.5339">Welfare Provider</text></g><!--entity Tribunal / Court--><g class="entity" data-qualified-name="EXT.Tribunal . Court" data-source-line="16" id="ent0012"><rect fill="#F1F1F1" height="49.0679" rx="2.5" ry="2.5" style="stroke:#181818;stroke-width:0.5;" width="143.8516" x="991.77" y="810.5679"/><rect fill="#F1F1F1" height="10" style="stroke:#181818;stroke-width:0.5;" width="15" x="1115.6216" y="815.5679"/><rect fill="#F1F1F1" height="2" style="stroke:#181818;stroke-width:0.5;" width="4" x="1113.6216" y="817.5679"/><rect fill="#F1F1F1" height="2" style="stroke:#181818;stroke-width:0.5;" width="4" x="1113.6216" y="821.5679"/><text fill="#000000" font-family="sans-serif" font-size="14" lengthAdjust="spacing" textLength="103.8516" x="1006.77" y="845.5339">Tribunal / Court</text></g><!--entity User--><g class="entity" data-qualified-name="User" data-source-line="5" id="ent0002"><ellipse cx="843.5489" cy="54.0679" fill="#F1F1F1" rx="8" ry="8" style="stroke:#181818;stroke-width:0.5;"/><path d="M843.5489,62.0679 L843.5489,89.0679 M830.5489,70.0679 L856.5489,70.0679 M843.5489,89.0679 L830.5489,104.0679 M843.5489,89.0679 L856.5489,104.0679" fill="none" style="stroke:#181818;stroke-width:0.5;"/><text fill="#000000" font-family="sans-serif" font-size="14" lengthAdjust="spacing" textLength="30.6179" x="828.24" y="120.5339">User</text></g><!--entity Advocate--><g class="entity" data-qualified-name="Advocate" data-source-line="6" id="ent0003"><ellipse cx="843.5409" cy="173.0679" fill="#F1F1F1" rx="8" ry="8" style="stroke:#181818;stroke-width:0.5;"/><path d="M843.5409,181.0679 L843.5409,208.0679 M830.5409,189.0679 L856.5409,189.0679 M843.5409,208.0679 L830.5409,223.0679 M843.5409,208.0679 L856.5409,223.0679" fill="none" style="stroke:#181818;stroke-width:0.5;"/><text fill="#000000" font-family="sans-serif" font-size="14" lengthAdjust="spacing" textLength="60.6618" x="813.21" y="239.5339">Advocate</text></g><!--entity Lawyer--><g class="entity" data-qualified-name="Lawyer" data-source-line="7" id="ent0004"><ellipse cx="843.5459" cy="290.0679" fill="#F1F1F1" rx="8" ry="8" style="stroke:#181818;stroke-width:0.5;"/><path d="M843.5459,298.0679 L843.5459,325.0679 M830.5459,306.0679 L856.5459,306.0679 M843.5459,325.0679 L830.5459,340.0679 M843.5459,325.0679 L856.5459,340.0679" fill="none" style="stroke:#181818;stroke-width:0.5;"/><text fill="#000000" font-family="sans-serif" font-size="14" lengthAdjust="spacing" textLength="47.0118" x="820.04" y="356.5339">Lawyer</text></g><!--entity Clinician--><g class="entity" data-qualified-name="Clinician" data-source-line="8" id="ent0005"><ellipse cx="843.5469" cy="418.0679" fill="#F1F1F1" rx="8" ry="8" style="stroke:#181818;stroke-width:0.5;"/><path d="M843.5469,426.0679 L843.5469,453.0679 M830.5469,434.0679 L856.5469,434.0679 M843.5469,453.0679 L830.5469,468.0679 M843.5469,453.0679 L856.5469,468.0679" fill="none" style="stroke:#181818;stroke-width:0.5;"/><text fill="#000000" font-family="sans-serif" font-size="14" lengthAdjust="spacing" textLength="55.1738" x="815.96" y="484.5339">Clinician</text></g><!--entity Caseworker--><g class="entity" data-qualified-name="Caseworker" data-source-line="9" id="ent0006"><ellipse cx="843.5468" cy="545.0679" fill="#F1F1F1" rx="8" ry="8" style="stroke:#181818;stroke-width:0.5;"/><path d="M843.5468,553.0679 L843.5468,580.0679 M830.5468,561.0679 L856.5468,561.0679 M843.5468,580.0679 L830.5468,595.0679 M843.5468,580.0679 L856.5468,595.0679" fill="none" style="stroke:#181818;stroke-width:0.5;"/><text fill="#000000" font-family="sans-serif" font-size="14" lengthAdjust="spacing" textLength="77.7137" x="804.69" y="611.5339">Caseworker</text></g><!--entity SYS--><g class="entity" data-qualified-name="SYS" data-source-line="19" id="ent0013"><rect fill="#F1F1F1" height="39.0679" rx="2.5" ry="2.5" style="stroke:#181818;stroke-width:0.5;" width="127.8276" x="171.34" y="358.5679"/><text fill="#000000" font-family="sans-serif" font-size="14" lengthAdjust="spacing" textLength="107.8276" x="181.34" y="383.5339">ITIR / SensibLaw</text></g><g class="entity" data-qualified-name="GMN25" data-source-line="36" id="ent0026"><path d="M6,432.5379 L6,495.656 A0,0 0 0 0 6,495.656 L464.5153,495.656 A0,0 0 0 0 464.5153,495.656 L464.5153,442.5379 L454.5153,432.5379 L239.26,432.5379 L235.26,397.9579 L231.26,432.5379 L6,432.5379 A0,0 0 0 0 6,432.5379" fill="#FEFFDD" style="stroke:#181818;stroke-width:0.5;"/><path d="M454.5153,432.5379 L454.5153,442.5379 L464.5153,442.5379 L454.5153,432.5379" fill="#FEFFDD" style="stroke:#181818;stroke-width:0.5;"/><text fill="#000000" font-family="sans-serif" font-size="13" lengthAdjust="spacing" textLength="126.2691" x="12" y="451.4349">Plain-language read:</text><text fill="#000000" font-family="sans-serif" font-size="13" lengthAdjust="spacing" textLength="437.5153" x="12" y="469.1409">case material comes in, gets normalized into evidence and graphs, then</text><text fill="#000000" font-family="sans-serif" font-size="13" lengthAdjust="spacing" textLength="403.2083" x="12" y="486.847">turns into obligations, outputs, and audit trails under governance.</text></g><!--link User to SYS--><g class="link" data-entity-1="ent0002" data-entity-2="ent0013" data-link-type="dependency" data-source-line="21" id="lnk14"><path d="M828.11,93.2579 C804.49,106.2479 755.78,131.5579 711.52,145.0979 C618.03,173.6979 584.25,142.3079 494.52,181.0979 C392.8,225.0679 299.2856,313.3286 259.3456,353.9686" fill="none" id="User-to-SYS" style="stroke:#181818;stroke-width:1;"/><polygon fill="#181818" points="255.14,358.2479,264.3013,354.6327,258.6447,354.6818,258.5955,349.0252,255.14,358.2479" style="stroke:#181818;stroke-width:1;"/><text fill="#000000" font-family="sans-serif" font-size="13" lengthAdjust="spacing" textLength="156.0261" x="525.02" y="140.9949">narrative, evidence, goals</text></g><!--link SYS to User--><g class="link" data-entity-1="ent0013" data-entity-2="ent0002" data-link-type="dependency" data-source-line="27" id="lnk19"><path d="M249,358.2779 C282.33,308.3879 377.61,177.6279 494.52,122.0979 C612.79,65.9179 772.5937,77.4626 822.0837,82.7326" fill="none" id="SYS-to-User" style="stroke:#181818;stroke-width:1;"/><polygon fill="#181818" points="828.05,83.3679,819.5241,78.4374,823.0781,82.8385,818.677,86.3924,828.05,83.3679" style="stroke:#181818;stroke-width:1;"/><text fill="#000000" font-family="sans-serif" font-size="13" lengthAdjust="spacing" textLength="215.0332" x="495.52" y="74.8549">guidance, actions, timeline, reports</text></g><!--link Advocate to SYS--><g class="link" data-entity-1="ent0003" data-entity-2="ent0013" data-link-type="dependency" data-source-line="22" id="lnk15"><path d="M812.84,219.7379 C786.75,232.9079 747.47,251.4279 711.52,263.0979 C617.83,293.4979 590.31,285.2079 494.52,308.0979 C427.65,324.0779 357.5521,343.34 305.4321,358.13" fill="none" id="Advocate-to-SYS" style="stroke:#181818;stroke-width:1;"/><polygon fill="#181818" points="299.66,359.7679,309.4101,361.1591,304.4701,358.403,307.2262,353.4629,299.66,359.7679" style="stroke:#181818;stroke-width:1;"/><text fill="#000000" font-family="sans-serif" font-size="13" lengthAdjust="spacing" textLength="78.6501" x="564.02" y="258.9949">case support</text></g><!--link SYS to Advocate--><g class="link" data-entity-1="ent0013" data-entity-2="ent0003" data-link-type="dependency" data-source-line="28" id="lnk20"><path d="M264.45,358.2379 C310.27,327.1079 404.83,267.5379 494.52,240.0979 C608.36,205.2679 745.8904,202.5991 806.9104,203.2991" fill="none" id="SYS-to-Advocate" style="stroke:#181818;stroke-width:1;"/><polygon fill="#181818" points="812.91,203.3679,803.9565,199.2649,807.9103,203.3106,803.8647,207.2644,812.91,203.3679" style="stroke:#181818;stroke-width:1;"/><text fill="#000000" font-family="sans-serif" font-size="13" lengthAdjust="spacing" textLength="145.3792" x="530.52" y="201.8449">structured case outputs</text></g><!--link Lawyer to SYS--><g class="link" data-entity-1="ent0004" data-entity-2="ent0013" data-link-type="dependency" data-source-line="23" id="lnk16"><path d="M819.93,335.1179 C794.62,349.9179 751.85,372.2979 711.52,381.0979 C566.81,412.6579 397.3253,399.2087 305.4053,387.9287" fill="none" id="Lawyer-to-SYS" style="stroke:#181818;stroke-width:1;"/><polygon fill="#181818" points="299.45,387.1979,307.8958,392.2644,304.4128,387.8069,308.8702,384.3239,299.45,387.1979" style="stroke:#181818;stroke-width:1;"/><text fill="#000000" font-family="sans-serif" font-size="13" lengthAdjust="spacing" textLength="72.917" x="567.02" y="376.9949">legal review</text></g><!--link SYS to Lawyer--><g class="link" data-entity-1="ent0013" data-entity-2="ent0004" data-link-type="dependency" data-source-line="29" id="lnk21"><path d="M299.43,372.1579 C432.12,359.6879 728.6263,331.8094 813.8463,323.7994" fill="none" id="SYS-to-Lawyer" style="stroke:#181818;stroke-width:1;"/><polygon fill="#181818" points="819.82,323.2379,810.4852,320.0977,814.8419,323.7058,811.2338,328.0626,819.82,323.2379" style="stroke:#181818;stroke-width:1;"/><text fill="#000000" font-family="sans-serif" font-size="13" lengthAdjust="spacing" textLength="175.4352" x="515.52" y="330.7649">evidence packet, duty matrix</text></g><!--link Clinician to SYS--><g class="link" data-entity-1="ent0005" data-entity-2="ent0013" data-link-type="dependency" data-source-line="24" id="lnk17"><path d="M815.61,464.5679 C752.94,498.2879 595.06,569.9479 494.52,499.0979 C462.11,476.2579 494.98,440.4579 464.52,415.0979 C418.85,377.0879 355.6979,370.4979 305.4679,371.8379" fill="none" id="Clinician-to-SYS" style="stroke:#181818;stroke-width:1;"/><polygon fill="#181818" points="299.47,371.9979,308.5735,375.7565,304.4682,371.8646,308.3601,367.7593,299.47,371.9979" style="stroke:#181818;stroke-width:1;"/><text fill="#000000" font-family="sans-serif" font-size="13" lengthAdjust="spacing" textLength="113.1781" x="546.52" y="494.9949">clinical documents</text></g><!--link SYS to Clinician--><g class="link" data-entity-1="ent0013" data-entity-2="ent0005" data-link-type="dependency" data-source-line="30" id="lnk22"><path d="M299.55,384.5679 C345.81,390.2079 409.78,399.9179 464.52,415.0979 C478.35,418.9379 480.51,423.9379 494.52,427.0979 C611.75,453.5379 750.4232,452.3938 809.5032,450.4638" fill="none" id="SYS-to-Clinician" style="stroke:#181818;stroke-width:1;"/><polygon fill="#181818" points="815.5,450.2679,806.3742,446.5639,810.5027,450.4312,806.6354,454.5596,815.5,450.2679" style="stroke:#181818;stroke-width:1;"/><text fill="#000000" font-family="sans-serif" font-size="13" lengthAdjust="spacing" textLength="214.7992" x="496.02" y="422.9949">continuity / contradiction summary</text></g><!--link Caseworker to SYS--><g class="link" data-entity-1="ent0006" data-entity-2="ent0013" data-link-type="dependency" data-source-line="25" id="lnk18"><path d="M804.29,591.4479 C778.54,600.9379 743.56,612.1979 711.52,617.0979 C616.18,631.6679 567.55,680.0879 494.52,617.0979 C425.78,557.8179 528.27,479.6979 464.52,415.0979 C422.22,372.2379 357.1104,366.5579 305.4904,369.4879" fill="none" id="Caseworker-to-SYS" style="stroke:#181818;stroke-width:1;"/><polygon fill="#181818" points="299.5,369.8279,308.7122,373.3115,304.492,369.5446,308.2589,365.3243,299.5,369.8279" style="stroke:#181818;stroke-width:1;"/><text fill="#000000" font-family="sans-serif" font-size="13" lengthAdjust="spacing" textLength="95.147" x="555.52" y="612.9949">welfare records</text></g><!--link SYS to Caseworker--><g class="link" data-entity-1="ent0013" data-entity-2="ent0006" data-link-type="dependency" data-source-line="31" id="lnk23"><path d="M299.59,370.4779 C350.74,368.0579 421.12,373.7779 464.52,415.0979 C510.91,459.2779 445.9,514.3679 494.52,556.0979 C540.04,595.1679 717.788,586.1819 798.368,579.9319" fill="none" id="SYS-to-Caseworker" style="stroke:#181818;stroke-width:1;"/><polygon fill="#181818" points="804.35,579.4679,795.0676,576.1759,799.365,579.8546,795.6863,584.1519,804.35,579.4679" style="stroke:#181818;stroke-width:1;"/><text fill="#000000" font-family="sans-serif" font-size="13" lengthAdjust="spacing" textLength="178.5422" x="514.02" y="551.9949">unmet need / obligation map</text></g><!--link SYS to EXT--><g class="link" data-entity-1="ent0013" data-entity-2="ent0007" data-link-type="dependency" data-source-line="33" id="lnk24"><path d="M299.43,369.4279 C351.37,366.1679 422.95,371.2479 464.52,415.0979 C507.41,460.3579 448.12,652.4279 494.52,694.0979 C523.06,719.7379 608.935,719.2004 688.2338,712.1479 C698.1461,711.2664 707.9557,710.283 717.5377,709.2362 C722.3287,708.7129 727.0628,708.1736 731.7244,707.6234 C732.8898,707.4858 728.0935,708.0631 729.2496,707.9243" fill="none" id="SYS-to-EXT" style="stroke:#181818;stroke-width:1;stroke-dasharray:7,7;"/><polygon fill="#181818" points="735.2068,707.2087,725.794,704.3106,730.2425,707.805,726.7481,712.2535,735.2068,707.2087" style="stroke:#181818;stroke-width:1;"/><text fill="#000000" font-family="sans-serif" font-size="13" lengthAdjust="spacing" textLength="177.1122" x="514.52" y="671.9949">references rules, obligations,</text><text fill="#000000" font-family="sans-serif" font-size="13" lengthAdjust="spacing" textLength="166.2442" x="519.954" y="689.7009">provider actions, outcomes</text></g><?plantuml-src NLF1Rjim3BthAuYSa_JkGu4YAB00FHHDXst0BepDE4HboQ2efDcmVn_b98wRcoG-KkyzFIch9rY_hz_W0JOK4czVy0WBs9oIKWUh69G-rJbFEmMD8Dpk5HeMgfLZS0vhZGBV4ybb-TGSOerAbwsDEusrbUV0DMEuxZ7HCSg70LoPYA4rEhFdJoK9w64TahBcSbEQ0IPu_laEVnr07Ri-1WeAinSCZO_Ic82dravcNykhVPPwRyN9h3l8DqAlUvCl1wxfhlY3_0w5u5NYWHkIk_Axy3ONgW_cLHQx_TyNAVVM3YeslpRE5SjWiNWiEwWWe0Wg7sWEL2uAjQtQY3wvgwCJT6t6GSfz7qNTsU99rLDhZCJcqD6Dda_RXpF3DB7EdGb9xlOK4zpn8ju4cSF9kN9SoWFv2jhC3GvCSOX3ceDoHpRTZeGAkpJsZ38gI2gvrYpKd9N4h7sUG2-Agj4AwB7-89r3a_K47QhmvuY-AJHb5bWEcGtrC6m46nwucLrTXtAwjTqKLv13Hmg1gEGeRZstE3Hrs9zLBvUFG_egqxKZAQGIIFPacc_uDFyT-ajIRfwOF8iCcNyXclvjL8qTnDqG181NZnmMtXAJiIrcOrELb1LdJ2e9sqiD0u23XO8qGOZIeUS_nfU3_SlHAFiDq0hs-_8MUmeso8mEwGoRChswFXzwC3TiFroGVJ8t2lys7ietjAbBHmOfvFy3?></g></svg>