<?plantuml 1.2026.2?><svg xmlns="http://www.w3.org/2000/svg" xmlns:xlink="http://www.w3.org/1999/xlink" contentStyleType="text/css" data-diagram-type="DESCRIPTION" height="501px" preserveAspectRatio="none" style="width:1101px;height:501px;background:#FFFFFF;" version="1.1" viewBox="0 0 1101 501" width="1101px" zoomAndPan="magnify"><title>Medical / Trauma-Informed Care Library</title><defs/><g><g class="title" data-source-line="312"><text fill="#000000" font-family="sans-serif" font-size="14" font-weight="bold" lengthAdjust="spacing" textLength="280.657" x="403.1715" y="24.9659">Medical / Trauma-Informed Care Library</text></g><!--cluster Inputs--><g class="cluster" data-qualified-name="Inputs" data-source-line="314" id="ent0002"><path d="M42.5,46.6699 L89.0978,46.6699 A3.75,3.75 0 0 1 91.5978,49.1699 L98.5978,71.7378 L606.5,71.7378 A2.5,2.5 0 0 1 609,74.2378 L609,256.2999 A2.5,2.5 0 0 1 606.5,258.7999 L42.5,258.7999 A2.5,2.5 0 0 1 40,256.2999 L40,49.1699 A2.5,2.5 0 0 1 42.5,46.6699" fill="none" style="stroke:#000000;stroke-width:1.5;"/><line style="stroke:#000000;stroke-width:1.5;" x1="40" x2="98.5978" y1="71.7378" y2="71.7378"/><text fill="#000000" font-family="sans-serif" font-size="14" font-weight="bold" lengthAdjust="spacing" textLength="45.5978" x="44" y="63.6358">Inputs</text></g><!--cluster Rules--><g class="cluster" data-qualified-name="Rules" data-source-line="322" id="ent0008"><path d="M635.5,46.6699 L674.3418,46.6699 A3.75,3.75 0 0 1 676.8418,49.1699 L683.8418,71.7378 L1091.5,71.7378 A2.5,2.5 0 0 1 1094,74.2378 L1094,256.2999 A2.5,2.5 0 0 1 1091.5,258.7999 L635.5,258.7999 A2.5,2.5 0 0 1 633,256.2999 L633,49.1699 A2.5,2.5 0 0 1 635.5,46.6699" fill="none" style="stroke:#000000;stroke-width:1.5;"/><line style="stroke:#000000;stroke-width:1.5;" x1="633" x2="683.8418" y1="71.7378" y2="71.7378"/><text fill="#000000" font-family="sans-serif" font-size="14" font-weight="bold" lengthAdjust="spacing" textLength="37.8418" x="637" y="63.6358">Rules</text></g><!--cluster Identity / Trust--><g class="cluster" data-qualified-name="Identity . Trust" data-source-line="329" id="ent0013"><path d="M8.5,282.7999 L115.2136,282.7999 A3.75,3.75 0 0 1 117.7136,285.2999 L124.7136,307.8678 L410.5,307.8678 A2.5,2.5 0 0 1 413,310.3678 L413,492.4399 A2.5,2.5 0 0 1 410.5,494.9399 L8.5,494.9399 A2.5,2.5 0 0 1 6,492.4399 L6,285.2999 A2.5,2.5 0 0 1 8.5,282.7999" fill="none" style="stroke:#000000;stroke-width:1.5;"/><line style="stroke:#000000;stroke-width:1.5;" x1="6" x2="124.7136" y1="307.8678" y2="307.8678"/><text fill="#000000" font-family="sans-serif" font-size="14" font-weight="bold" lengthAdjust="spacing" textLength="105.7136" x="10" y="299.7658">Identity / Trust</text></g><!--cluster Outputs--><g class="cluster" data-qualified-name="Outputs" data-source-line="336" id="ent0018"><path d="M439.5,282.7999 L497.8018,282.7999 A3.75,3.75 0 0 1 500.3018,285.2999 L507.3018,307.8678 L855.5,307.8678 A2.5,2.5 0 0 1 858,310.3678 L858,492.4399 A2.5,2.5 0 0 1 855.5,494.9399 L439.5,494.9399 A2.5,2.5 0 0 1 437,492.4399 L437,285.2999 A2.5,2.5 0 0 1 439.5,282.7999" fill="none" style="stroke:#000000;stroke-width:1.5;"/><line style="stroke:#000000;stroke-width:1.5;" x1="437" x2="507.3018" y1="307.8678" y2="307.8678"/><text fill="#000000" font-family="sans-serif" font-size="14" font-weight="bold" lengthAdjust="spacing" textLength="57.3018" x="441" y="299.7658">Outputs</text></g><!--entity Clinical Notes--><g class="entity" data-qualified-name="Inputs.Clinical Notes" data-source-line="315" id="ent0003"><rect fill="#F1F1F1" height="49.0679" rx="2.5" ry="2.5" style="stroke:#181818;stroke-width:0.5;" width="128.9276" x="55.54" y="84.6699"/><rect fill="#F1F1F1" height="10" style="stroke:#181818;stroke-width:0.5;" width="15" x="164.4676" y="89.6699"/><rect fill="#F1F1F1" height="2" style="stroke:#181818;stroke-width:0.5;" width="4" x="162.4676" y="91.6699"/><rect fill="#F1F1F1" height="2" style="stroke:#181818;stroke-width:0.5;" width="4" x="162.4676" y="95.6699"/><text fill="#000000" font-family="sans-serif" font-size="14" lengthAdjust="spacing" textLength="88.9276" x="70.54" y="119.6358">Clinical Notes</text></g><!--entity Assessment Records--><g class="entity" data-qualified-name="Inputs.Assessment Records" data-source-line="316" id="ent0004"><rect fill="#F1F1F1" height="49.0679" rx="2.5" ry="2.5" style="stroke:#181818;stroke-width:0.5;" width="174.8895" x="219.56" y="84.6699"/><rect fill="#F1F1F1" height="10" style="stroke:#181818;stroke-width:0.5;" width="15" x="374.4495" y="89.6699"/><rect fill="#F1F1F1" height="2" style="stroke:#181818;stroke-width:0.5;" width="4" x="372.4495" y="91.6699"/><rect fill="#F1F1F1" height="2" style="stroke:#181818;stroke-width:0.5;" width="4" x="372.4495" y="95.6699"/><text fill="#000000" font-family="sans-serif" font-size="14" lengthAdjust="spacing" textLength="134.8895" x="234.56" y="119.6358">Assessment Records</text></g><!--entity Medication History--><g class="entity" data-qualified-name="Inputs.Medication History" data-source-line="317" id="ent0005"><rect fill="#F1F1F1" height="49.0679" rx="2.5" ry="2.5" style="stroke:#181818;stroke-width:0.5;" width="163.9555" x="429.02" y="84.6699"/><rect fill="#F1F1F1" height="10" style="stroke:#181818;stroke-width:0.5;" width="15" x="572.9755" y="89.6699"/><rect fill="#F1F1F1" height="2" style="stroke:#181818;stroke-width:0.5;" width="4" x="570.9755" y="91.6699"/><rect fill="#F1F1F1" height="2" style="stroke:#181818;stroke-width:0.5;" width="4" x="570.9755" y="95.6699"/><text fill="#000000" font-family="sans-serif" font-size="14" lengthAdjust="spacing" textLength="123.9555" x="444.02" y="119.6358">Medication History</text></g><!--entity Care Plans--><g class="entity" data-qualified-name="Inputs.Care Plans" data-source-line="318" id="ent0006"><rect fill="#F1F1F1" height="49.0679" rx="2.5" ry="2.5" style="stroke:#181818;stroke-width:0.5;" width="109.3137" x="65.34" y="193.7399"/><rect fill="#F1F1F1" height="10" style="stroke:#181818;stroke-width:0.5;" width="15" x="154.6537" y="198.7399"/><rect fill="#F1F1F1" height="2" style="stroke:#181818;stroke-width:0.5;" width="4" x="152.6537" y="200.7399"/><rect fill="#F1F1F1" height="2" style="stroke:#181818;stroke-width:0.5;" width="4" x="152.6537" y="204.7399"/><text fill="#000000" font-family="sans-serif" font-size="14" lengthAdjust="spacing" textLength="69.3137" x="80.34" y="228.7058">Care Plans</text></g><!--entity Patient Narrative--><g class="entity" data-qualified-name="Inputs.Patient Narrative" data-source-line="319" id="ent0007"><rect fill="#F1F1F1" height="49.0679" rx="2.5" ry="2.5" style="stroke:#181818;stroke-width:0.5;" width="151.8176" x="210.09" y="193.7399"/><rect fill="#F1F1F1" height="10" style="stroke:#181818;stroke-width:0.5;" width="15" x="341.9076" y="198.7399"/><rect fill="#F1F1F1" height="2" style="stroke:#181818;stroke-width:0.5;" width="4" x="339.9076" y="200.7399"/><rect fill="#F1F1F1" height="2" style="stroke:#181818;stroke-width:0.5;" width="4" x="339.9076" y="204.7399"/><text fill="#000000" font-family="sans-serif" font-size="14" lengthAdjust="spacing" textLength="111.8176" x="225.09" y="228.7058">Patient Narrative</text></g><!--entity Consent / Capacity--><g class="entity" data-qualified-name="Rules.Consent . Capacity" data-source-line="323" id="ent0009"><rect fill="#F1F1F1" height="49.0679" rx="2.5" ry="2.5" style="stroke:#181818;stroke-width:0.5;" width="162.4575" x="649.77" y="84.6699"/><rect fill="#F1F1F1" height="10" style="stroke:#181818;stroke-width:0.5;" width="15" x="792.2275" y="89.6699"/><rect fill="#F1F1F1" height="2" style="stroke:#181818;stroke-width:0.5;" width="4" x="790.2275" y="91.6699"/><rect fill="#F1F1F1" height="2" style="stroke:#181818;stroke-width:0.5;" width="4" x="790.2275" y="95.6699"/><text fill="#000000" font-family="sans-serif" font-size="14" lengthAdjust="spacing" textLength="122.4575" x="664.77" y="119.6358">Consent / Capacity</text></g><!--entity Care Continuity--><g class="entity" data-qualified-name="Rules.Care Continuity" data-source-line="324" id="ent0010"><rect fill="#F1F1F1" height="49.0679" rx="2.5" ry="2.5" style="stroke:#181818;stroke-width:0.5;" width="141.7656" x="847.12" y="84.6699"/><rect fill="#F1F1F1" height="10" style="stroke:#181818;stroke-width:0.5;" width="15" x="968.8856" y="89.6699"/><rect fill="#F1F1F1" height="2" style="stroke:#181818;stroke-width:0.5;" width="4" x="966.8856" y="91.6699"/><rect fill="#F1F1F1" height="2" style="stroke:#181818;stroke-width:0.5;" width="4" x="966.8856" y="95.6699"/><text fill="#000000" font-family="sans-serif" font-size="14" lengthAdjust="spacing" textLength="101.7656" x="862.12" y="119.6358">Care Continuity</text></g><!--entity Complaint / Review--><g class="entity" data-qualified-name="Rules.Complaint . Review" data-source-line="325" id="ent0011"><rect fill="#F1F1F1" height="49.0679" rx="2.5" ry="2.5" style="stroke:#181818;stroke-width:0.5;" width="166.5175" x="648.74" y="193.7399"/><rect fill="#F1F1F1" height="10" style="stroke:#181818;stroke-width:0.5;" width="15" x="795.2575" y="198.7399"/><rect fill="#F1F1F1" height="2" style="stroke:#181818;stroke-width:0.5;" width="4" x="793.2575" y="200.7399"/><rect fill="#F1F1F1" height="2" style="stroke:#181818;stroke-width:0.5;" width="4" x="793.2575" y="204.7399"/><text fill="#000000" font-family="sans-serif" font-size="14" lengthAdjust="spacing" textLength="126.5175" x="663.74" y="228.7058">Complaint / Review</text></g><!--entity Trauma-Informed Standards--><g class="entity" data-qualified-name="Rules.Trauma-Informed Standards" data-source-line="326" id="ent0012"><rect fill="#F1F1F1" height="49.0679" rx="2.5" ry="2.5" style="stroke:#181818;stroke-width:0.5;" width="228.0333" x="849.98" y="193.7399"/><rect fill="#F1F1F1" height="10" style="stroke:#181818;stroke-width:0.5;" width="15" x="1058.0133" y="198.7399"/><rect fill="#F1F1F1" height="2" style="stroke:#181818;stroke-width:0.5;" width="4" x="1056.0133" y="200.7399"/><rect fill="#F1F1F1" height="2" style="stroke:#181818;stroke-width:0.5;" width="4" x="1056.0133" y="204.7399"/><text fill="#000000" font-family="sans-serif" font-size="14" lengthAdjust="spacing" textLength="188.0333" x="864.98" y="228.7058">Trauma-Informed Standards</text></g><!--entity Clinician Mistrust--><g class="entity" data-qualified-name="Identity . Trust.Clinician Mistrust" data-source-line="330" id="ent0014"><rect fill="#F1F1F1" height="49.0679" rx="2.5" ry="2.5" style="stroke:#181818;stroke-width:0.5;" width="153.0776" x="43.46" y="320.7999"/><rect fill="#F1F1F1" height="10" style="stroke:#181818;stroke-width:0.5;" width="15" x="176.5376" y="325.7999"/><rect fill="#F1F1F1" height="2" style="stroke:#181818;stroke-width:0.5;" width="4" x="174.5376" y="327.7999"/><rect fill="#F1F1F1" height="2" style="stroke:#181818;stroke-width:0.5;" width="4" x="174.5376" y="331.7999"/><text fill="#000000" font-family="sans-serif" font-size="14" lengthAdjust="spacing" textLength="113.0776" x="58.46" y="355.7658">Clinician Mistrust</text></g><!--entity Dissociation--><g class="entity" data-qualified-name="Identity . Trust.Dissociation" data-source-line="331" id="ent0015"><rect fill="#F1F1F1" height="49.0679" rx="2.5" ry="2.5" style="stroke:#181818;stroke-width:0.5;" width="119.6877" x="261.16" y="320.7999"/><rect fill="#F1F1F1" height="10" style="stroke:#181818;stroke-width:0.5;" width="15" x="360.8477" y="325.7999"/><rect fill="#F1F1F1" height="2" style="stroke:#181818;stroke-width:0.5;" width="4" x="358.8477" y="327.7999"/><rect fill="#F1F1F1" height="2" style="stroke:#181818;stroke-width:0.5;" width="4" x="358.8477" y="331.7999"/><text fill="#000000" font-family="sans-serif" font-size="14" lengthAdjust="spacing" textLength="79.6877" x="276.16" y="355.7658">Dissociation</text></g><!--entity Gaslighting History--><g class="entity" data-qualified-name="Identity . Trust.Gaslighting History" data-source-line="332" id="ent0016"><rect fill="#F1F1F1" height="49.0679" rx="2.5" ry="2.5" style="stroke:#181818;stroke-width:0.5;" width="165.9435" x="22.03" y="429.8699"/><rect fill="#F1F1F1" height="10" style="stroke:#181818;stroke-width:0.5;" width="15" x="167.9735" y="434.8699"/><rect fill="#F1F1F1" height="2" style="stroke:#181818;stroke-width:0.5;" width="4" x="165.9735" y="436.8699"/><rect fill="#F1F1F1" height="2" style="stroke:#181818;stroke-width:0.5;" width="4" x="165.9735" y="440.8699"/><text fill="#000000" font-family="sans-serif" font-size="14" lengthAdjust="spacing" textLength="125.9435" x="37.03" y="464.8358">Gaslighting History</text></g><!--entity Fluctuating Function--><g class="entity" data-qualified-name="Identity . Trust.Fluctuating Function" data-source-line="333" id="ent0017"><rect fill="#F1F1F1" height="49.0679" rx="2.5" ry="2.5" style="stroke:#181818;stroke-width:0.5;" width="174.4555" x="222.77" y="429.8699"/><rect fill="#F1F1F1" height="10" style="stroke:#181818;stroke-width:0.5;" width="15" x="377.2255" y="434.8699"/><rect fill="#F1F1F1" height="2" style="stroke:#181818;stroke-width:0.5;" width="4" x="375.2255" y="436.8699"/><rect fill="#F1F1F1" height="2" style="stroke:#181818;stroke-width:0.5;" width="4" x="375.2255" y="440.8699"/><text fill="#000000" font-family="sans-serif" font-size="14" lengthAdjust="spacing" textLength="134.4555" x="237.77" y="464.8358">Fluctuating Function</text></g><!--entity Contradiction Matrix--><g class="entity" data-qualified-name="Outputs.Contradiction Matrix" data-source-line="337" id="ent0019"><rect fill="#F1F1F1" height="49.0679" rx="2.5" ry="2.5" style="stroke:#181818;stroke-width:0.5;" width="175.4355" x="459.28" y="320.7999"/><rect fill="#F1F1F1" height="10" style="stroke:#181818;stroke-width:0.5;" width="15" x="614.7155" y="325.7999"/><rect fill="#F1F1F1" height="2" style="stroke:#181818;stroke-width:0.5;" width="4" x="612.7155" y="327.7999"/><rect fill="#F1F1F1" height="2" style="stroke:#181818;stroke-width:0.5;" width="4" x="612.7155" y="331.7999"/><text fill="#000000" font-family="sans-serif" font-size="14" lengthAdjust="spacing" textLength="135.4355" x="474.28" y="355.7658">Contradiction Matrix</text></g><!--entity Capacity Risk Note--><g class="entity" data-qualified-name="Outputs.Capacity Risk Note" data-source-line="338" id="ent0020"><rect fill="#F1F1F1" height="49.0679" rx="2.5" ry="2.5" style="stroke:#181818;stroke-width:0.5;" width="161.5335" x="669.23" y="320.7999"/><rect fill="#F1F1F1" height="10" style="stroke:#181818;stroke-width:0.5;" width="15" x="810.7635" y="325.7999"/><rect fill="#F1F1F1" height="2" style="stroke:#181818;stroke-width:0.5;" width="4" x="808.7635" y="327.7999"/><rect fill="#F1F1F1" height="2" style="stroke:#181818;stroke-width:0.5;" width="4" x="808.7635" y="331.7999"/><text fill="#000000" font-family="sans-serif" font-size="14" lengthAdjust="spacing" textLength="121.5335" x="684.23" y="355.7658">Capacity Risk Note</text></g><!--entity Provider Continuity Map--><g class="entity" data-qualified-name="Outputs.Provider Continuity Map" data-source-line="339" id="ent0021"><rect fill="#F1F1F1" height="49.0679" rx="2.5" ry="2.5" style="stroke:#181818;stroke-width:0.5;" width="199.9214" x="453.04" y="429.8699"/><rect fill="#F1F1F1" height="10" style="stroke:#181818;stroke-width:0.5;" width="15" x="632.9614" y="434.8699"/><rect fill="#F1F1F1" height="2" style="stroke:#181818;stroke-width:0.5;" width="4" x="630.9614" y="436.8699"/><rect fill="#F1F1F1" height="2" style="stroke:#181818;stroke-width:0.5;" width="4" x="630.9614" y="440.8699"/><text fill="#000000" font-family="sans-serif" font-size="14" lengthAdjust="spacing" textLength="159.9214" x="468.04" y="464.8358">Provider Continuity Map</text></g><!--entity Complaint Packet--><g class="entity" data-qualified-name="Outputs.Complaint Packet" data-source-line="340" id="ent0022"><rect fill="#F1F1F1" height="49.0679" rx="2.5" ry="2.5" style="stroke:#181818;stroke-width:0.5;" width="154.9116" x="687.54" y="429.8699"/><rect fill="#F1F1F1" height="10" style="stroke:#181818;stroke-width:0.5;" width="15" x="822.4516" y="434.8699"/><rect fill="#F1F1F1" height="2" style="stroke:#181818;stroke-width:0.5;" width="4" x="820.4516" y="436.8699"/><rect fill="#F1F1F1" height="2" style="stroke:#181818;stroke-width:0.5;" width="4" x="820.4516" y="440.8699"/><text fill="#000000" font-family="sans-serif" font-size="14" lengthAdjust="spacing" textLength="114.9116" x="702.54" y="464.8358">Complaint Packet</text></g><?plantuml-src TP9DJiD038NtESKeUzGpeA929VgZm0LCOehLoKnaUmeLwjrnffjqI7TFyfkNvyzHKezkWnsruDt2lJEa7XxMuJDoZvrR0gDxfGy6FbVL0EqH3kZgTHYIIkr-A-VQs0ynO51NBps57BIDYbBV3Xz5KAGVTODjvAuqN5ienU1UI3JokJ3aCdiFeNovjrUZs0ApoHFMrMNIjaaUPyh68ADOs99c9PtzdBcKGfgPclH0EQ314-5tOIXHlYc43lBQqtBhpjmMd-4dqJjG2OBR69LikJKyaKWqmqYk63s3U3fysGQ7EqnNFhMQ83jMARJNa6d1NTBvOniP1ZjPljW6bEdd7y4hMDUG7FDFKHwEuuawv0bcInhkejvRARJzBty0?></g></svg>