<?plantuml 1.2026.2?><svg xmlns="http://www.w3.org/2000/svg" xmlns:xlink="http://www.w3.org/1999/xlink" contentStyleType="text/css" data-diagram-type="ACTIVITY" height="589px" preserveAspectRatio="none" style="width:470px;height:589px;background:#FFFFFF;" version="1.1" viewBox="0 0 470 589" width="470px" zoomAndPan="magnify"><title>Mode Selection</title><defs/><g><g class="title" data-source-line="195"><text fill="#000000" font-family="sans-serif" font-size="14" font-weight="bold" lengthAdjust="spacing" textLength="106.7356" x="180.5784" y="34.9659">Mode Selection</text></g><ellipse cx="201.0664" cy="60.0679" fill="#222222" rx="10" ry="10" style="stroke:#222222;stroke-width:1;"/><rect fill="#F1F1F1" height="36.3441" rx="12.5" ry="12.5" style="stroke:#181818;stroke-width:0.5;" width="80.7565" x="160.6881" y="90.0679"/><text fill="#000000" font-family="sans-serif" font-size="12" lengthAdjust="spacing" textLength="60.7565" x="170.6881" y="112.896">Assess risk</text><rect fill="#F1F1F1" height="36.3441" rx="12.5" ry="12.5" style="stroke:#181818;stroke-width:0.5;" width="138.8249" x="131.6539" y="146.412"/><text fill="#000000" font-family="sans-serif" font-size="12" lengthAdjust="spacing" textLength="118.8249" x="141.6539" y="169.2401">Assess time pressure</text><rect fill="#F1F1F1" height="36.3441" rx="12.5" ry="12.5" style="stroke:#181818;stroke-width:0.5;" width="101.3966" x="150.3681" y="202.7561"/><text fill="#000000" font-family="sans-serif" font-size="12" lengthAdjust="spacing" textLength="81.3966" x="160.3681" y="225.5842">Assess conflict</text><rect fill="#F1F1F1" height="36.3441" rx="12.5" ry="12.5" style="stroke:#181818;stroke-width:0.5;" width="110.6007" x="145.766" y="259.1003"/><text fill="#000000" font-family="sans-serif" font-size="12" lengthAdjust="spacing" textLength="90.6007" x="155.766" y="281.9283">Assess evidence</text><rect fill="#F1F1F1" height="36.3441" rx="12.5" ry="12.5" style="stroke:#181818;stroke-width:0.5;" width="116.4687" x="142.832" y="315.4444"/><text fill="#000000" font-family="sans-serif" font-size="12" lengthAdjust="spacing" textLength="96.4687" x="152.832" y="338.2725">Assess user state</text><polygon fill="#F1F1F1" points="75.2382,371.7885,326.8945,371.7885,338.8945,383.7885,326.8945,395.7885,75.2382,395.7885,63.2382,383.7885,75.2382,371.7885" style="stroke:#181818;stroke-width:0.5;"/><text fill="#000000" font-family="sans-serif" font-size="11" lengthAdjust="spacing" textLength="251.6563" x="75.2382" y="388.0565">High risk OR urgent time OR adversarial conflict?</text><text fill="#000000" font-family="sans-serif" font-size="11" lengthAdjust="spacing" textLength="17.0829" x="46.1554" y="380.5655">yes</text><text fill="#000000" font-family="sans-serif" font-size="11" lengthAdjust="spacing" textLength="13.4529" x="338.8945" y="380.5655">no</text><rect fill="#F1F1F1" height="36.3441" rx="12.5" ry="12.5" style="stroke:#181818;stroke-width:0.5;" width="84.4765" x="11" y="405.7885"/><text fill="#000000" font-family="sans-serif" font-size="12" lengthAdjust="spacing" textLength="64.4765" x="21" y="428.6166">Strict Mode</text><polygon fill="#F1F1F1" points="301.8588,405.7885,395.9302,405.7885,407.9302,417.7885,395.9302,429.7885,301.8588,429.7885,289.8588,417.7885,301.8588,405.7885" style="stroke:#181818;stroke-width:0.5;"/><text fill="#000000" font-family="sans-serif" font-size="11" lengthAdjust="spacing" textLength="94.0714" x="301.8588" y="422.0565">Moderate signals?</text><text fill="#000000" font-family="sans-serif" font-size="11" lengthAdjust="spacing" textLength="17.0829" x="272.776" y="414.5655">yes</text><text fill="#000000" font-family="sans-serif" font-size="11" lengthAdjust="spacing" textLength="13.4529" x="407.9302" y="414.5655">no</text><rect fill="#F1F1F1" height="36.3441" rx="12.5" ry="12.5" style="stroke:#181818;stroke-width:0.5;" width="93.2365" x="233.2406" y="439.7885"/><text fill="#000000" font-family="sans-serif" font-size="12" lengthAdjust="spacing" textLength="73.2365" x="243.2406" y="462.6166">Hybrid Mode</text><rect fill="#F1F1F1" height="36.3441" rx="12.5" ry="12.5" style="stroke:#181818;stroke-width:0.5;" width="83.9245" x="375.9679" y="439.7885"/><text fill="#000000" font-family="sans-serif" font-size="12" lengthAdjust="spacing" textLength="63.9245" x="385.9679" y="462.6166">Light Mode</text><polygon fill="#F1F1F1" points="348.8945,482.1326,360.8945,494.1326,348.8945,506.1326,336.8945,494.1326,348.8945,482.1326" style="stroke:#181818;stroke-width:0.5;"/><polygon fill="#F1F1F1" points="201.0664,512.1326,213.0664,524.1326,201.0664,536.1326,189.0664,524.1326,201.0664,512.1326" style="stroke:#181818;stroke-width:0.5;"/><ellipse cx="201.0664" cy="567.1326" fill="none" rx="11" ry="11" style="stroke:#222222;stroke-width:1;"/><ellipse cx="201.0664" cy="567.1326" fill="#222222" rx="6" ry="6" style="stroke:#222222;stroke-width:1;"/><line style="stroke:#181818;stroke-width:1;" x1="201.0664" x2="201.0664" y1="70.0679" y2="90.0679"/><polygon fill="#181818" points="197.0664,80.0679,201.0664,90.0679,205.0664,80.0679,201.0664,84.0679" style="stroke:#181818;stroke-width:1;"/><line style="stroke:#181818;stroke-width:1;" x1="201.0664" x2="201.0664" y1="126.412" y2="146.412"/><polygon fill="#181818" points="197.0664,136.412,201.0664,146.412,205.0664,136.412,201.0664,140.412" style="stroke:#181818;stroke-width:1;"/><line style="stroke:#181818;stroke-width:1;" x1="201.0664" x2="201.0664" y1="182.7561" y2="202.7561"/><polygon fill="#181818" points="197.0664,192.7561,201.0664,202.7561,205.0664,192.7561,201.0664,196.7561" style="stroke:#181818;stroke-width:1;"/><line style="stroke:#181818;stroke-width:1;" x1="201.0664" x2="201.0664" y1="239.1003" y2="259.1003"/><polygon fill="#181818" points="197.0664,249.1003,201.0664,259.1003,205.0664,249.1003,201.0664,253.1003" style="stroke:#181818;stroke-width:1;"/><line style="stroke:#181818;stroke-width:1;" x1="201.0664" x2="201.0664" y1="295.4444" y2="315.4444"/><polygon fill="#181818" points="197.0664,305.4444,201.0664,315.4444,205.0664,305.4444,201.0664,309.4444" style="stroke:#181818;stroke-width:1;"/><line style="stroke:#181818;stroke-width:1;" x1="289.8588" x2="279.8588" y1="417.7885" y2="417.7885"/><line style="stroke:#181818;stroke-width:1;" x1="279.8588" x2="279.8588" y1="417.7885" y2="439.7885"/><polygon fill="#181818" points="275.8588,429.7885,279.8588,439.7885,283.8588,429.7885,279.8588,433.7885" style="stroke:#181818;stroke-width:1;"/><line style="stroke:#181818;stroke-width:1;" x1="407.9302" x2="417.9302" y1="417.7885" y2="417.7885"/><line style="stroke:#181818;stroke-width:1;" x1="417.9302" x2="417.9302" y1="417.7885" y2="439.7885"/><polygon fill="#181818" points="413.9302,429.7885,417.9302,439.7885,421.9302,429.7885,417.9302,433.7885" style="stroke:#181818;stroke-width:1;"/><line style="stroke:#181818;stroke-width:1;" x1="279.8588" x2="279.8588" y1="476.1326" y2="494.1326"/><line style="stroke:#181818;stroke-width:1;" x1="279.8588" x2="336.8945" y1="494.1326" y2="494.1326"/><polygon fill="#181818" points="326.8945,490.1326,336.8945,494.1326,326.8945,498.1326,330.8945,494.1326" style="stroke:#181818;stroke-width:1;"/><line style="stroke:#181818;stroke-width:1;" x1="417.9302" x2="417.9302" y1="476.1326" y2="494.1326"/><line style="stroke:#181818;stroke-width:1;" x1="417.9302" x2="360.8945" y1="494.1326" y2="494.1326"/><polygon fill="#181818" points="370.8945,490.1326,360.8945,494.1326,370.8945,498.1326,366.8945,494.1326" style="stroke:#181818;stroke-width:1;"/><line style="stroke:#181818;stroke-width:1;" x1="63.2382" x2="53.2382" y1="383.7885" y2="383.7885"/><line style="stroke:#181818;stroke-width:1;" x1="53.2382" x2="53.2382" y1="383.7885" y2="405.7885"/><polygon fill="#181818" points="49.2382,395.7885,53.2382,405.7885,57.2382,395.7885,53.2382,399.7885" style="stroke:#181818;stroke-width:1;"/><line style="stroke:#181818;stroke-width:1;" x1="338.8945" x2="348.8945" y1="383.7885" y2="383.7885"/><line style="stroke:#181818;stroke-width:1;" x1="348.8945" x2="348.8945" y1="383.7885" y2="405.7885"/><polygon fill="#181818" points="344.8945,395.7885,348.8945,405.7885,352.8945,395.7885,348.8945,399.7885" style="stroke:#181818;stroke-width:1;"/><line style="stroke:#181818;stroke-width:1;" x1="53.2382" x2="53.2382" y1="442.1326" y2="524.1326"/><line style="stroke:#181818;stroke-width:1;" x1="53.2382" x2="189.0664" y1="524.1326" y2="524.1326"/><polygon fill="#181818" points="179.0664,520.1326,189.0664,524.1326,179.0664,528.1326,183.0664,524.1326" style="stroke:#181818;stroke-width:1;"/><line style="stroke:#181818;stroke-width:1;" x1="348.8945" x2="348.8945" y1="506.1326" y2="524.1326"/><line style="stroke:#181818;stroke-width:1;" x1="348.8945" x2="213.0664" y1="524.1326" y2="524.1326"/><polygon fill="#181818" points="223.0664,520.1326,213.0664,524.1326,223.0664,528.1326,219.0664,524.1326" style="stroke:#181818;stroke-width:1;"/><line style="stroke:#181818;stroke-width:1;" x1="201.0664" x2="201.0664" y1="351.7885" y2="371.7885"/><polygon fill="#181818" points="197.0664,361.7885,201.0664,371.7885,205.0664,361.7885,201.0664,365.7885" style="stroke:#181818;stroke-width:1;"/><line style="stroke:#181818;stroke-width:1;" x1="201.0664" x2="201.0664" y1="536.1326" y2="556.1326"/><polygon fill="#181818" points="197.0664,546.1326,201.0664,556.1326,205.0664,546.1326,201.0664,550.1326" style="stroke:#181818;stroke-width:1;"/><?plantuml-src NP313e8m38RlUueUuHNmOBnnq9Z84qnMe75kf2qalBq5ZHWlI_l_-xzkLTA8SCa1eS68hL9EpebwLkUgamYA09Cy3jzEwOamifKJuowtENMHMjqLd2bWQd_kJ88C1bVJ77LGrDGF6nwkDvYunwHllhK-pCZYcNpymeybw809YWMbT01Lespoze63moW8HSghiz9NbMqO2FN9H_bFMxvUxapXamVu9PXxjkVfRgP0dNkVjg8ylW00?></g></svg>