<?plantuml 1.2026.2?><svg xmlns="http://www.w3.org/2000/svg" xmlns:xlink="http://www.w3.org/1999/xlink" contentStyleType="text/css" data-diagram-type="DESCRIPTION" height="571px" preserveAspectRatio="none" style="width:869px;height:571px;background:#FFFFFF;" version="1.1" viewBox="0 0 869 571" width="869px" zoomAndPan="magnify"><title>Governance Dashboard</title><defs/><g><g class="title" data-source-line="662"><text fill="#000000" font-family="sans-serif" font-size="14" font-weight="bold" lengthAdjust="spacing" textLength="163.1554" x="345.9223" y="24.9659">Governance Dashboard</text></g><!--cluster Governance Dashboard--><g class="cluster" data-qualified-name="Governance Dashboard" data-source-line="664" id="ent0002"><path d="M8.5,46.6699 L172.6554,46.6699 A3.75,3.75 0 0 1 175.1554,49.1699 L182.1554,71.7378 L859.5,71.7378 A2.5,2.5 0 0 1 862,74.2378 L862,562.4399 A2.5,2.5 0 0 1 859.5,564.9399 L8.5,564.9399 A2.5,2.5 0 0 1 6,562.4399 L6,49.1699 A2.5,2.5 0 0 1 8.5,46.6699" fill="none" style="stroke:#000000;stroke-width:1.5;"/><line style="stroke:#000000;stroke-width:1.5;" x1="6" x2="182.1554" y1="71.7378" y2="71.7378"/><text fill="#000000" font-family="sans-serif" font-size="14" font-weight="bold" lengthAdjust="spacing" textLength="163.1554" x="10" y="63.6358">Governance Dashboard</text></g><!--cluster Quality--><g class="cluster" data-qualified-name="Governance Dashboard.Quality" data-source-line="665" id="ent0003"><rect fill="none" height="212.13" rx="2.5" ry="2.5" style="stroke:#181818;stroke-width:1;" width="429" x="30" y="92.6699"/><text fill="#000000" font-family="sans-serif" font-size="14" font-weight="bold" lengthAdjust="spacing" textLength="50.9878" x="219.0061" y="109.6358">Quality</text></g><!--cluster Compliance--><g class="cluster" data-qualified-name="Governance Dashboard.Compliance" data-source-line="672" id="ent0008"><rect fill="none" height="212.13" rx="2.5" ry="2.5" style="stroke:#181818;stroke-width:1;" width="335" x="483" y="92.6699"/><text fill="#000000" font-family="sans-serif" font-size="14" font-weight="bold" lengthAdjust="spacing" textLength="81.6617" x="609.6692" y="109.6358">Compliance</text></g><!--cluster Corrective Actions--><g class="cluster" data-qualified-name="Governance Dashboard.Corrective Actions" data-source-line="679" id="ent0013"><rect fill="none" height="212.14" rx="2.5" ry="2.5" style="stroke:#181818;stroke-width:1;" width="411" x="30" y="328.7999"/><text fill="#000000" font-family="sans-serif" font-size="14" font-weight="bold" lengthAdjust="spacing" textLength="128.1415" x="171.4292" y="345.7658">Corrective Actions</text></g><!--cluster Audit--><g class="cluster" data-qualified-name="Governance Dashboard.Audit" data-source-line="685" id="ent0017"><rect fill="none" height="212.14" rx="2.5" ry="2.5" style="stroke:#181818;stroke-width:1;" width="373" x="465" y="328.7999"/><text fill="#000000" font-family="sans-serif" font-size="14" font-weight="bold" lengthAdjust="spacing" textLength="37.8978" x="632.5511" y="345.7658">Audit</text></g><!--entity Traceability coverage--><g class="entity" data-qualified-name="Governance Dashboard.Quality.Traceability coverage" data-source-line="666" id="ent0004"><rect fill="#F1F1F1" height="49.0679" rx="2.5" ry="2.5" style="stroke:#181818;stroke-width:0.5;" width="179.5095" x="46.25" y="130.6699"/><rect fill="#F1F1F1" height="10" style="stroke:#181818;stroke-width:0.5;" width="15" x="205.7595" y="135.6699"/><rect fill="#F1F1F1" height="2" style="stroke:#181818;stroke-width:0.5;" width="4" x="203.7595" y="137.6699"/><rect fill="#F1F1F1" height="2" style="stroke:#181818;stroke-width:0.5;" width="4" x="203.7595" y="141.6699"/><text fill="#000000" font-family="sans-serif" font-size="14" lengthAdjust="spacing" textLength="139.5095" x="61.25" y="165.6358">Traceability coverage</text></g><!--entity Unsafe inference rate--><g class="entity" data-qualified-name="Governance Dashboard.Quality.Unsafe inference rate" data-source-line="667" id="ent0005"><rect fill="#F1F1F1" height="49.0679" rx="2.5" ry="2.5" style="stroke:#181818;stroke-width:0.5;" width="181.9454" x="261.03" y="130.6699"/><rect fill="#F1F1F1" height="10" style="stroke:#181818;stroke-width:0.5;" width="15" x="422.9754" y="135.6699"/><rect fill="#F1F1F1" height="2" style="stroke:#181818;stroke-width:0.5;" width="4" x="420.9754" y="137.6699"/><rect fill="#F1F1F1" height="2" style="stroke:#181818;stroke-width:0.5;" width="4" x="420.9754" y="141.6699"/><text fill="#000000" font-family="sans-serif" font-size="14" lengthAdjust="spacing" textLength="141.9454" x="276.03" y="165.6358">Unsafe inference rate</text></g><!--entity Trust rejection rate--><g class="entity" data-qualified-name="Governance Dashboard.Quality.Trust rejection rate" data-source-line="668" id="ent0006"><rect fill="#F1F1F1" height="49.0679" rx="2.5" ry="2.5" style="stroke:#181818;stroke-width:0.5;" width="165.5375" x="46.23" y="239.7399"/><rect fill="#F1F1F1" height="10" style="stroke:#181818;stroke-width:0.5;" width="15" x="191.7675" y="244.7399"/><rect fill="#F1F1F1" height="2" style="stroke:#181818;stroke-width:0.5;" width="4" x="189.7675" y="246.7399"/><rect fill="#F1F1F1" height="2" style="stroke:#181818;stroke-width:0.5;" width="4" x="189.7675" y="250.7399"/><text fill="#000000" font-family="sans-serif" font-size="14" lengthAdjust="spacing" textLength="125.5375" x="61.23" y="274.7058">Trust rejection rate</text></g><!--entity Nonconformance count--><g class="entity" data-qualified-name="Governance Dashboard.Quality.Nonconformance count" data-source-line="669" id="ent0007"><rect fill="#F1F1F1" height="49.0679" rx="2.5" ry="2.5" style="stroke:#181818;stroke-width:0.5;" width="196.0714" x="246.96" y="239.7399"/><rect fill="#F1F1F1" height="10" style="stroke:#181818;stroke-width:0.5;" width="15" x="423.0314" y="244.7399"/><rect fill="#F1F1F1" height="2" style="stroke:#181818;stroke-width:0.5;" width="4" x="421.0314" y="246.7399"/><rect fill="#F1F1F1" height="2" style="stroke:#181818;stroke-width:0.5;" width="4" x="421.0314" y="250.7399"/><text fill="#000000" font-family="sans-serif" font-size="14" lengthAdjust="spacing" textLength="156.0714" x="261.96" y="274.7058">Nonconformance count</text></g><!--entity Sharing events--><g class="entity" data-qualified-name="Governance Dashboard.Compliance.Sharing events" data-source-line="673" id="ent0009"><rect fill="#F1F1F1" height="49.0679" rx="2.5" ry="2.5" style="stroke:#181818;stroke-width:0.5;" width="137.8036" x="499.1" y="130.6699"/><rect fill="#F1F1F1" height="10" style="stroke:#181818;stroke-width:0.5;" width="15" x="616.9036" y="135.6699"/><rect fill="#F1F1F1" height="2" style="stroke:#181818;stroke-width:0.5;" width="4" x="614.9036" y="137.6699"/><rect fill="#F1F1F1" height="2" style="stroke:#181818;stroke-width:0.5;" width="4" x="614.9036" y="141.6699"/><text fill="#000000" font-family="sans-serif" font-size="14" lengthAdjust="spacing" textLength="97.8036" x="514.1" y="165.6358">Sharing events</text></g><!--entity Export events--><g class="entity" data-qualified-name="Governance Dashboard.Compliance.Export events" data-source-line="674" id="ent0010"><rect fill="#F1F1F1" height="49.0679" rx="2.5" ry="2.5" style="stroke:#181818;stroke-width:0.5;" width="130.0617" x="671.97" y="130.6699"/><rect fill="#F1F1F1" height="10" style="stroke:#181818;stroke-width:0.5;" width="15" x="782.0317" y="135.6699"/><rect fill="#F1F1F1" height="2" style="stroke:#181818;stroke-width:0.5;" width="4" x="780.0317" y="137.6699"/><rect fill="#F1F1F1" height="2" style="stroke:#181818;stroke-width:0.5;" width="4" x="780.0317" y="141.6699"/><text fill="#000000" font-family="sans-serif" font-size="14" lengthAdjust="spacing" textLength="90.0617" x="686.97" y="165.6358">Export events</text></g><!--entity Access grants--><g class="entity" data-qualified-name="Governance Dashboard.Compliance.Access grants" data-source-line="675" id="ent0011"><rect fill="#F1F1F1" height="49.0679" rx="2.5" ry="2.5" style="stroke:#181818;stroke-width:0.5;" width="129.9917" x="503" y="239.7399"/><rect fill="#F1F1F1" height="10" style="stroke:#181818;stroke-width:0.5;" width="15" x="612.9917" y="244.7399"/><rect fill="#F1F1F1" height="2" style="stroke:#181818;stroke-width:0.5;" width="4" x="610.9917" y="246.7399"/><rect fill="#F1F1F1" height="2" style="stroke:#181818;stroke-width:0.5;" width="4" x="610.9917" y="250.7399"/><text fill="#000000" font-family="sans-serif" font-size="14" lengthAdjust="spacing" textLength="89.9917" x="518" y="274.7058">Access grants</text></g><!--entity Revocations--><g class="entity" data-qualified-name="Governance Dashboard.Compliance.Revocations" data-source-line="676" id="ent0012"><rect fill="#F1F1F1" height="49.0679" rx="2.5" ry="2.5" style="stroke:#181818;stroke-width:0.5;" width="119.2537" x="668.37" y="239.7399"/><rect fill="#F1F1F1" height="10" style="stroke:#181818;stroke-width:0.5;" width="15" x="767.6237" y="244.7399"/><rect fill="#F1F1F1" height="2" style="stroke:#181818;stroke-width:0.5;" width="4" x="765.6237" y="246.7399"/><rect fill="#F1F1F1" height="2" style="stroke:#181818;stroke-width:0.5;" width="4" x="765.6237" y="250.7399"/><text fill="#000000" font-family="sans-serif" font-size="14" lengthAdjust="spacing" textLength="79.2537" x="683.37" y="274.7058">Revocations</text></g><!--entity Open CAPA items--><g class="entity" data-qualified-name="Governance Dashboard.Corrective Actions.Open CAPA items" data-source-line="680" id="ent0014"><rect fill="#F1F1F1" height="49.0679" rx="2.5" ry="2.5" style="stroke:#181818;stroke-width:0.5;" width="154.9396" x="45.53" y="366.7999"/><rect fill="#F1F1F1" height="10" style="stroke:#181818;stroke-width:0.5;" width="15" x="180.4696" y="371.7999"/><rect fill="#F1F1F1" height="2" style="stroke:#181818;stroke-width:0.5;" width="4" x="178.4696" y="373.7999"/><rect fill="#F1F1F1" height="2" style="stroke:#181818;stroke-width:0.5;" width="4" x="178.4696" y="377.7999"/><text fill="#000000" font-family="sans-serif" font-size="14" lengthAdjust="spacing" textLength="114.9396" x="60.53" y="401.7658">Open CAPA items</text></g><!--entity Correction turnaround--><g class="entity" data-qualified-name="Governance Dashboard.Corrective Actions.Correction turnaround" data-source-line="681" id="ent0015"><rect fill="#F1F1F1" height="49.0679" rx="2.5" ry="2.5" style="stroke:#181818;stroke-width:0.5;" width="189.0854" x="235.46" y="366.7999"/><rect fill="#F1F1F1" height="10" style="stroke:#181818;stroke-width:0.5;" width="15" x="404.5454" y="371.7999"/><rect fill="#F1F1F1" height="2" style="stroke:#181818;stroke-width:0.5;" width="4" x="402.5454" y="373.7999"/><rect fill="#F1F1F1" height="2" style="stroke:#181818;stroke-width:0.5;" width="4" x="402.5454" y="377.7999"/><text fill="#000000" font-family="sans-serif" font-size="14" lengthAdjust="spacing" textLength="149.0854" x="250.46" y="401.7658">Correction turnaround</text></g><!--entity Recurring defects--><g class="entity" data-qualified-name="Governance Dashboard.Corrective Actions.Recurring defects" data-source-line="682" id="ent0016"><rect fill="#F1F1F1" height="49.0679" rx="2.5" ry="2.5" style="stroke:#181818;stroke-width:0.5;" width="155.7515" x="46.12" y="475.8699"/><rect fill="#F1F1F1" height="10" style="stroke:#181818;stroke-width:0.5;" width="15" x="181.8715" y="480.8699"/><rect fill="#F1F1F1" height="2" style="stroke:#181818;stroke-width:0.5;" width="4" x="179.8715" y="482.8699"/><rect fill="#F1F1F1" height="2" style="stroke:#181818;stroke-width:0.5;" width="4" x="179.8715" y="486.8699"/><text fill="#000000" font-family="sans-serif" font-size="14" lengthAdjust="spacing" textLength="115.7515" x="61.12" y="510.8358">Recurring defects</text></g><!--entity Recent audit events--><g class="entity" data-qualified-name="Governance Dashboard.Audit.Recent audit events" data-source-line="686" id="ent0018"><rect fill="#F1F1F1" height="49.0679" rx="2.5" ry="2.5" style="stroke:#181818;stroke-width:0.5;" width="169.3035" x="481.35" y="366.7999"/><rect fill="#F1F1F1" height="10" style="stroke:#181818;stroke-width:0.5;" width="15" x="630.6535" y="371.7999"/><rect fill="#F1F1F1" height="2" style="stroke:#181818;stroke-width:0.5;" width="4" x="628.6535" y="373.7999"/><rect fill="#F1F1F1" height="2" style="stroke:#181818;stroke-width:0.5;" width="4" x="628.6535" y="377.7999"/><text fill="#000000" font-family="sans-serif" font-size="14" lengthAdjust="spacing" textLength="129.3035" x="496.35" y="401.7658">Recent audit events</text></g><!--entity Mode changes--><g class="entity" data-qualified-name="Governance Dashboard.Audit.Mode changes" data-source-line="687" id="ent0019"><rect fill="#F1F1F1" height="49.0679" rx="2.5" ry="2.5" style="stroke:#181818;stroke-width:0.5;" width="136.4036" x="685.8" y="366.7999"/><rect fill="#F1F1F1" height="10" style="stroke:#181818;stroke-width:0.5;" width="15" x="802.2036" y="371.7999"/><rect fill="#F1F1F1" height="2" style="stroke:#181818;stroke-width:0.5;" width="4" x="800.2036" y="373.7999"/><rect fill="#F1F1F1" height="2" style="stroke:#181818;stroke-width:0.5;" width="4" x="800.2036" y="377.7999"/><text fill="#000000" font-family="sans-serif" font-size="14" lengthAdjust="spacing" textLength="96.4036" x="700.8" y="401.7658">Mode changes</text></g><!--entity Breach to escalation lag--><g class="entity" data-qualified-name="Governance Dashboard.Audit.Breach to escalation lag" data-source-line="688" id="ent0020"><rect fill="#F1F1F1" height="49.0679" rx="2.5" ry="2.5" style="stroke:#181818;stroke-width:0.5;" width="196.9534" x="480.52" y="475.8699"/><rect fill="#F1F1F1" height="10" style="stroke:#181818;stroke-width:0.5;" width="15" x="657.4734" y="480.8699"/><rect fill="#F1F1F1" height="2" style="stroke:#181818;stroke-width:0.5;" width="4" x="655.4734" y="482.8699"/><rect fill="#F1F1F1" height="2" style="stroke:#181818;stroke-width:0.5;" width="4" x="655.4734" y="486.8699"/><text fill="#000000" font-family="sans-serif" font-size="14" lengthAdjust="spacing" textLength="156.9534" x="495.52" y="510.8358">Breach to escalation lag</text></g><?plantuml-src RL3BJeL03Dtp5Gr_WbVZokUzheoBtb9W5AQaKuZ6t7zt1WGbOTbpslEeEMiPRcLazUY9uHf3SnRKCijwf0-i6V8zEeVl342P37qT9VAd0LjdNpCEy7fI9CQpIo1GKeXQRpFtuWDM3CvNh9na5MtXJZe4YyBlKTg9_q_TYoVnbMWtPI4Pl2NgacsZ7AJhMvTsrZJ71jNv6dXaR-5Nx-Qp5xKjLX1n250h_c7FF0fXIXFsxJHDRcGefinXjNtesSEXU2p06NUBtd8GszaG7wknIBbwqQ1Jr9AhkBJhM0obizKadiG2W0dSbhcJChwfYLUyG5VAI0sO00V2Tce5BTQppUK7?></g></svg>