<?plantuml 1.2026.2?><svg xmlns="http://www.w3.org/2000/svg" xmlns:xlink="http://www.w3.org/1999/xlink" contentStyleType="text/css" data-diagram-type="DESCRIPTION" height="571px" preserveAspectRatio="none" style="width:841px;height:571px;background:#FFFFFF;" version="1.1" viewBox="0 0 841 571" width="841px" zoomAndPan="magnify"><title>Operations Dashboard</title><defs/><g><g class="title" data-source-line="630"><text fill="#000000" font-family="sans-serif" font-size="14" font-weight="bold" lengthAdjust="spacing" textLength="157.5554" x="334.7223" y="24.9659">Operations Dashboard</text></g><!--cluster Operations Dashboard--><g class="cluster" data-qualified-name="Operations Dashboard" data-source-line="632" id="ent0002"><path d="M8.5,46.6699 L167.0554,46.6699 A3.75,3.75 0 0 1 169.5554,49.1699 L176.5554,71.7378 L831.5,71.7378 A2.5,2.5 0 0 1 834,74.2378 L834,562.4399 A2.5,2.5 0 0 1 831.5,564.9399 L8.5,564.9399 A2.5,2.5 0 0 1 6,562.4399 L6,49.1699 A2.5,2.5 0 0 1 8.5,46.6699" fill="none" style="stroke:#000000;stroke-width:1.5;"/><line style="stroke:#000000;stroke-width:1.5;" x1="6" x2="176.5554" y1="71.7378" y2="71.7378"/><text fill="#000000" font-family="sans-serif" font-size="14" font-weight="bold" lengthAdjust="spacing" textLength="157.5554" x="10" y="63.6358">Operations Dashboard</text></g><!--cluster Case Queue--><g class="cluster" data-qualified-name="Operations Dashboard.Case Queue" data-source-line="633" id="ent0003"><rect fill="none" height="212.13" rx="2.5" ry="2.5" style="stroke:#181818;stroke-width:1;" width="395" x="30" y="92.6699"/><text fill="#000000" font-family="sans-serif" font-size="14" font-weight="bold" lengthAdjust="spacing" textLength="82.3897" x="186.3052" y="109.6358">Case Queue</text></g><!--cluster Execution Panel--><g class="cluster" data-qualified-name="Operations Dashboard.Execution Panel" data-source-line="639" id="ent0007"><rect fill="none" height="212.13" rx="2.5" ry="2.5" style="stroke:#181818;stroke-width:1;" width="347" x="449" y="92.6699"/><text fill="#000000" font-family="sans-serif" font-size="14" font-weight="bold" lengthAdjust="spacing" textLength="111.0756" x="566.9622" y="109.6358">Execution Panel</text></g><!--cluster Review Panel--><g class="cluster" data-qualified-name="Operations Dashboard.Review Panel" data-source-line="646" id="ent0012"><rect fill="none" height="212.14" rx="2.5" ry="2.5" style="stroke:#181818;stroke-width:1;" width="301" x="30" y="328.7999"/><text fill="#000000" font-family="sans-serif" font-size="14" font-weight="bold" lengthAdjust="spacing" textLength="92.4137" x="134.2932" y="345.7658">Review Panel</text></g><!--cluster Processing Health--><g class="cluster" data-qualified-name="Operations Dashboard.Processing Health" data-source-line="653" id="ent0017"><rect fill="none" height="212.14" rx="2.5" ry="2.5" style="stroke:#181818;stroke-width:1;" width="455" x="355" y="328.7999"/><text fill="#000000" font-family="sans-serif" font-size="14" font-weight="bold" lengthAdjust="spacing" textLength="125.9155" x="519.5422" y="345.7658">Processing Health</text></g><!--entity Active cases by type--><g class="entity" data-qualified-name="Operations Dashboard.Case Queue.Active cases by type" data-source-line="634" id="ent0004"><rect fill="#F1F1F1" height="49.0679" rx="2.5" ry="2.5" style="stroke:#181818;stroke-width:0.5;" width="170.5915" x="45.7" y="130.6699"/><rect fill="#F1F1F1" height="10" style="stroke:#181818;stroke-width:0.5;" width="15" x="196.2915" y="135.6699"/><rect fill="#F1F1F1" height="2" style="stroke:#181818;stroke-width:0.5;" width="4" x="194.2915" y="137.6699"/><rect fill="#F1F1F1" height="2" style="stroke:#181818;stroke-width:0.5;" width="4" x="194.2915" y="141.6699"/><text fill="#000000" font-family="sans-serif" font-size="14" lengthAdjust="spacing" textLength="130.5915" x="60.7" y="165.6358">Active cases by type</text></g><!--entity Mode distribution--><g class="entity" data-qualified-name="Operations Dashboard.Case Queue.Mode distribution" data-source-line="635" id="ent0005"><rect fill="#F1F1F1" height="49.0679" rx="2.5" ry="2.5" style="stroke:#181818;stroke-width:0.5;" width="157.7396" x="251.13" y="130.6699"/><rect fill="#F1F1F1" height="10" style="stroke:#181818;stroke-width:0.5;" width="15" x="388.8696" y="135.6699"/><rect fill="#F1F1F1" height="2" style="stroke:#181818;stroke-width:0.5;" width="4" x="386.8696" y="137.6699"/><rect fill="#F1F1F1" height="2" style="stroke:#181818;stroke-width:0.5;" width="4" x="386.8696" y="141.6699"/><text fill="#000000" font-family="sans-serif" font-size="14" lengthAdjust="spacing" textLength="117.7396" x="266.13" y="165.6358">Mode distribution</text></g><!--entity Cases by severity--><g class="entity" data-qualified-name="Operations Dashboard.Case Queue.Cases by severity" data-source-line="636" id="ent0006"><rect fill="#F1F1F1" height="49.0679" rx="2.5" ry="2.5" style="stroke:#181818;stroke-width:0.5;" width="152.2376" x="49.88" y="239.7399"/><rect fill="#F1F1F1" height="10" style="stroke:#181818;stroke-width:0.5;" width="15" x="182.1176" y="244.7399"/><rect fill="#F1F1F1" height="2" style="stroke:#181818;stroke-width:0.5;" width="4" x="180.1176" y="246.7399"/><rect fill="#F1F1F1" height="2" style="stroke:#181818;stroke-width:0.5;" width="4" x="180.1176" y="250.7399"/><text fill="#000000" font-family="sans-serif" font-size="14" lengthAdjust="spacing" textLength="112.2376" x="64.88" y="274.7058">Cases by severity</text></g><!--entity Open obligations--><g class="entity" data-qualified-name="Operations Dashboard.Execution Panel.Open obligations" data-source-line="640" id="ent0008"><rect fill="#F1F1F1" height="49.0679" rx="2.5" ry="2.5" style="stroke:#181818;stroke-width:0.5;" width="152.9936" x="464.5" y="130.6699"/><rect fill="#F1F1F1" height="10" style="stroke:#181818;stroke-width:0.5;" width="15" x="597.4936" y="135.6699"/><rect fill="#F1F1F1" height="2" style="stroke:#181818;stroke-width:0.5;" width="4" x="595.4936" y="137.6699"/><rect fill="#F1F1F1" height="2" style="stroke:#181818;stroke-width:0.5;" width="4" x="595.4936" y="141.6699"/><text fill="#000000" font-family="sans-serif" font-size="14" lengthAdjust="spacing" textLength="112.9936" x="479.5" y="165.6358">Open obligations</text></g><!--entity SLA breaches--><g class="entity" data-qualified-name="Operations Dashboard.Execution Panel.SLA breaches" data-source-line="641" id="ent0009"><rect fill="#F1F1F1" height="49.0679" rx="2.5" ry="2.5" style="stroke:#181818;stroke-width:0.5;" width="127.7237" x="652.14" y="130.6699"/><rect fill="#F1F1F1" height="10" style="stroke:#181818;stroke-width:0.5;" width="15" x="759.8637" y="135.6699"/><rect fill="#F1F1F1" height="2" style="stroke:#181818;stroke-width:0.5;" width="4" x="757.8637" y="137.6699"/><rect fill="#F1F1F1" height="2" style="stroke:#181818;stroke-width:0.5;" width="4" x="757.8637" y="141.6699"/><text fill="#000000" font-family="sans-serif" font-size="14" lengthAdjust="spacing" textLength="87.7237" x="667.14" y="165.6358">SLA breaches</text></g><!--entity Unassigned needs--><g class="entity" data-qualified-name="Operations Dashboard.Execution Panel.Unassigned needs" data-source-line="642" id="ent0010"><rect fill="#F1F1F1" height="49.0679" rx="2.5" ry="2.5" style="stroke:#181818;stroke-width:0.5;" width="160.9315" x="464.53" y="239.7399"/><rect fill="#F1F1F1" height="10" style="stroke:#181818;stroke-width:0.5;" width="15" x="605.4615" y="244.7399"/><rect fill="#F1F1F1" height="2" style="stroke:#181818;stroke-width:0.5;" width="4" x="603.4615" y="246.7399"/><rect fill="#F1F1F1" height="2" style="stroke:#181818;stroke-width:0.5;" width="4" x="603.4615" y="250.7399"/><text fill="#000000" font-family="sans-serif" font-size="14" lengthAdjust="spacing" textLength="120.9315" x="479.53" y="274.7058">Unassigned needs</text></g><!--entity Escalations--><g class="entity" data-qualified-name="Operations Dashboard.Execution Panel.Escalations" data-source-line="643" id="ent0011"><rect fill="#F1F1F1" height="49.0679" rx="2.5" ry="2.5" style="stroke:#181818;stroke-width:0.5;" width="113.0237" x="660.49" y="239.7399"/><rect fill="#F1F1F1" height="10" style="stroke:#181818;stroke-width:0.5;" width="15" x="753.5137" y="244.7399"/><rect fill="#F1F1F1" height="2" style="stroke:#181818;stroke-width:0.5;" width="4" x="751.5137" y="246.7399"/><rect fill="#F1F1F1" height="2" style="stroke:#181818;stroke-width:0.5;" width="4" x="751.5137" y="250.7399"/><text fill="#000000" font-family="sans-serif" font-size="14" lengthAdjust="spacing" textLength="73.0237" x="675.49" y="274.7058">Escalations</text></g><!--entity Review queue--><g class="entity" data-qualified-name="Operations Dashboard.Review Panel.Review queue" data-source-line="647" id="ent0013"><rect fill="#F1F1F1" height="49.0679" rx="2.5" ry="2.5" style="stroke:#181818;stroke-width:0.5;" width="131.5736" x="50.21" y="366.7999"/><rect fill="#F1F1F1" height="10" style="stroke:#181818;stroke-width:0.5;" width="15" x="161.7836" y="371.7999"/><rect fill="#F1F1F1" height="2" style="stroke:#181818;stroke-width:0.5;" width="4" x="159.7836" y="373.7999"/><rect fill="#F1F1F1" height="2" style="stroke:#181818;stroke-width:0.5;" width="4" x="159.7836" y="377.7999"/><text fill="#000000" font-family="sans-serif" font-size="14" lengthAdjust="spacing" textLength="91.5736" x="65.21" y="401.7658">Review queue</text></g><!--entity Disputes--><g class="entity" data-qualified-name="Operations Dashboard.Review Panel.Disputes" data-source-line="648" id="ent0014"><rect fill="#F1F1F1" height="49.0679" rx="2.5" ry="2.5" style="stroke:#181818;stroke-width:0.5;" width="97.4558" x="217.27" y="366.7999"/><rect fill="#F1F1F1" height="10" style="stroke:#181818;stroke-width:0.5;" width="15" x="294.7258" y="371.7999"/><rect fill="#F1F1F1" height="2" style="stroke:#181818;stroke-width:0.5;" width="4" x="292.7258" y="373.7999"/><rect fill="#F1F1F1" height="2" style="stroke:#181818;stroke-width:0.5;" width="4" x="292.7258" y="377.7999"/><text fill="#000000" font-family="sans-serif" font-size="14" lengthAdjust="spacing" textLength="57.4558" x="232.27" y="401.7658">Disputes</text></g><!--entity Abstentions--><g class="entity" data-qualified-name="Operations Dashboard.Review Panel.Abstentions" data-source-line="649" id="ent0015"><rect fill="#F1F1F1" height="49.0679" rx="2.5" ry="2.5" style="stroke:#181818;stroke-width:0.5;" width="118.3577" x="45.82" y="475.8699"/><rect fill="#F1F1F1" height="10" style="stroke:#181818;stroke-width:0.5;" width="15" x="144.1777" y="480.8699"/><rect fill="#F1F1F1" height="2" style="stroke:#181818;stroke-width:0.5;" width="4" x="142.1777" y="482.8699"/><rect fill="#F1F1F1" height="2" style="stroke:#181818;stroke-width:0.5;" width="4" x="142.1777" y="486.8699"/><text fill="#000000" font-family="sans-serif" font-size="14" lengthAdjust="spacing" textLength="78.3577" x="60.82" y="510.8358">Abstentions</text></g><!--entity Corrections--><g class="entity" data-qualified-name="Operations Dashboard.Review Panel.Corrections" data-source-line="650" id="ent0016"><rect fill="#F1F1F1" height="49.0679" rx="2.5" ry="2.5" style="stroke:#181818;stroke-width:0.5;" width="115.9917" x="199" y="475.8699"/><rect fill="#F1F1F1" height="10" style="stroke:#181818;stroke-width:0.5;" width="15" x="294.9917" y="480.8699"/><rect fill="#F1F1F1" height="2" style="stroke:#181818;stroke-width:0.5;" width="4" x="292.9917" y="482.8699"/><rect fill="#F1F1F1" height="2" style="stroke:#181818;stroke-width:0.5;" width="4" x="292.9917" y="486.8699"/><text fill="#000000" font-family="sans-serif" font-size="14" lengthAdjust="spacing" textLength="75.9917" x="214" y="510.8358">Corrections</text></g><!--entity Evidence processing failures--><g class="entity" data-qualified-name="Operations Dashboard.Processing Health.Evidence processing failures" data-source-line="654" id="ent0018"><rect fill="#F1F1F1" height="49.0679" rx="2.5" ry="2.5" style="stroke:#181818;stroke-width:0.5;" width="226.2553" x="370.87" y="366.7999"/><rect fill="#F1F1F1" height="10" style="stroke:#181818;stroke-width:0.5;" width="15" x="577.1253" y="371.7999"/><rect fill="#F1F1F1" height="2" style="stroke:#181818;stroke-width:0.5;" width="4" x="575.1253" y="373.7999"/><rect fill="#F1F1F1" height="2" style="stroke:#181818;stroke-width:0.5;" width="4" x="575.1253" y="377.7999"/><text fill="#000000" font-family="sans-serif" font-size="14" lengthAdjust="spacing" textLength="186.2553" x="385.87" y="401.7658">Evidence processing failures</text></g><!--entity Transcript backlog--><g class="entity" data-qualified-name="Operations Dashboard.Processing Health.Transcript backlog" data-source-line="655" id="ent0019"><rect fill="#F1F1F1" height="49.0679" rx="2.5" ry="2.5" style="stroke:#181818;stroke-width:0.5;" width="161.5475" x="632.23" y="366.7999"/><rect fill="#F1F1F1" height="10" style="stroke:#181818;stroke-width:0.5;" width="15" x="773.7775" y="371.7999"/><rect fill="#F1F1F1" height="2" style="stroke:#181818;stroke-width:0.5;" width="4" x="771.7775" y="373.7999"/><rect fill="#F1F1F1" height="2" style="stroke:#181818;stroke-width:0.5;" width="4" x="771.7775" y="377.7999"/><text fill="#000000" font-family="sans-serif" font-size="14" lengthAdjust="spacing" textLength="121.5475" x="647.23" y="401.7658">Transcript backlog</text></g><!--entity Mode overrides--><g class="entity" data-qualified-name="Operations Dashboard.Processing Health.Mode overrides" data-source-line="656" id="ent0020"><rect fill="#F1F1F1" height="49.0679" rx="2.5" ry="2.5" style="stroke:#181818;stroke-width:0.5;" width="143.1796" x="412.41" y="475.8699"/><rect fill="#F1F1F1" height="10" style="stroke:#181818;stroke-width:0.5;" width="15" x="535.5896" y="480.8699"/><rect fill="#F1F1F1" height="2" style="stroke:#181818;stroke-width:0.5;" width="4" x="533.5896" y="482.8699"/><rect fill="#F1F1F1" height="2" style="stroke:#181818;stroke-width:0.5;" width="4" x="533.5896" y="486.8699"/><text fill="#000000" font-family="sans-serif" font-size="14" lengthAdjust="spacing" textLength="103.1796" x="427.41" y="510.8358">Mode overrides</text></g><?plantuml-src TP7DJiCm48JlUOfLtYHAAt40KVvEYCFQ6P8Lbcri9n2XlZiE-Mcfu3gpEzzudIGPqAr7u2JEHjfnx9JZq1I5P_t6BQZyooxfgo0Aq8bjcoFAcYFehaUFsI9whdII0QIp4qcDb4QFbzcwSGseaPY2g7wANlHwdOqO42IDatuiVgFsdz0_ItHW2xFnSazBJXbfvxPBviDrHIg0TOTLUh8SexGM3LcWMULzr6nEkvVSUmo2Zmle8hvFBrzYTX9zdpPOfMA2FMzKkp35_iSv1AUH-zcMhi0cTHjiFqW3gq7-DFBAOlgmqHu3swY3-4GgVw1nxVd9NRvgo1aBz_WD?></g></svg>