<?plantuml 1.2026.2?><svg xmlns="http://www.w3.org/2000/svg" xmlns:xlink="http://www.w3.org/1999/xlink" contentStyleType="text/css" data-diagram-type="ACTIVITY" height="637px" preserveAspectRatio="none" style="width:350px;height:637px;background:#FFFFFF;" version="1.1" viewBox="0 0 350 637" width="350px" zoomAndPan="magnify"><title>Obligation Lifecycle and Monitoring</title><defs/><g><g class="title" data-source-line="719"><text fill="#000000" font-family="sans-serif" font-size="14" font-weight="bold" lengthAdjust="spacing" textLength="250.095" x="48.5099" y="34.9659">Obligation Lifecycle and Monitoring</text></g><ellipse cx="161.1313" cy="60.0679" fill="#222222" rx="10" ry="10" style="stroke:#222222;stroke-width:1;"/><rect fill="#F1F1F1" height="36.3441" rx="12.5" ry="12.5" style="stroke:#181818;stroke-width:0.5;" width="205.0653" x="58.5987" y="90.0679"/><text fill="#000000" font-family="sans-serif" font-size="12" lengthAdjust="spacing" textLength="185.0653" x="68.5987" y="112.896">Alignment identifies unmet need</text><rect fill="#F1F1F1" height="36.3441" rx="12.5" ry="12.5" style="stroke:#181818;stroke-width:0.5;" width="117.3087" x="102.477" y="146.412"/><text fill="#000000" font-family="sans-serif" font-size="12" lengthAdjust="spacing" textLength="97.3087" x="112.477" y="169.2401">Create obligation</text><rect fill="#F1F1F1" height="36.3441" rx="12.5" ry="12.5" style="stroke:#181818;stroke-width:0.5;" width="89.2165" x="116.5231" y="202.7561"/><text fill="#000000" font-family="sans-serif" font-size="12" lengthAdjust="spacing" textLength="69.2165" x="126.5231" y="225.5842">Assign actor</text><rect fill="#F1F1F1" height="36.3441" rx="12.5" ry="12.5" style="stroke:#181818;stroke-width:0.5;" width="160.545" x="80.8588" y="259.1003"/><text fill="#000000" font-family="sans-serif" font-size="12" lengthAdjust="spacing" textLength="140.545" x="90.8588" y="281.9283">Set deadline and fallback</text><rect fill="#F1F1F1" height="36.3441" rx="12.5" ry="12.5" style="stroke:#181818;stroke-width:0.5;" width="293.2419" x="14.5103" y="315.4444"/><text fill="#000000" font-family="sans-serif" font-size="12" lengthAdjust="spacing" textLength="273.2419" x="24.5103" y="338.2725">Display in strict panel and operations dashboard</text><polygon fill="#F1F1F1" points="89.0323,371.7885,233.2303,371.7885,245.2303,383.7885,233.2303,395.7885,89.0323,395.7885,77.0323,383.7885,89.0323,371.7885" style="stroke:#181818;stroke-width:0.5;"/><text fill="#000000" font-family="sans-serif" font-size="11" lengthAdjust="spacing" textLength="144.198" x="89.0323" y="388.0565">completed before deadline?</text><text fill="#000000" font-family="sans-serif" font-size="11" lengthAdjust="spacing" textLength="17.0829" x="59.9495" y="380.5655">yes</text><text fill="#000000" font-family="sans-serif" font-size="11" lengthAdjust="spacing" textLength="13.4529" x="245.2303" y="380.5655">no</text><rect fill="#F1F1F1" height="36.3441" rx="12.5" ry="12.5" style="stroke:#181818;stroke-width:0.5;" width="112.0647" x="11" y="405.7885"/><text fill="#000000" font-family="sans-serif" font-size="12" lengthAdjust="spacing" textLength="92.0647" x="21" y="428.6166">Mark completed</text><rect fill="#F1F1F1" height="36.3441" rx="12.5" ry="12.5" style="stroke:#181818;stroke-width:0.5;" width="107.5046" x="13.28" y="462.1326"/><text fill="#000000" font-family="sans-serif" font-size="12" lengthAdjust="spacing" textLength="87.5046" x="23.28" y="484.9607">Log audit event</text><rect fill="#F1F1F1" height="36.3441" rx="12.5" ry="12.5" style="stroke:#181818;stroke-width:0.5;" width="105.2606" x="202.6" y="405.7885"/><text fill="#000000" font-family="sans-serif" font-size="12" lengthAdjust="spacing" textLength="85.2606" x="212.6" y="428.6166">Mark breached</text><rect fill="#F1F1F1" height="36.3441" rx="12.5" ry="12.5" style="stroke:#181818;stroke-width:0.5;" width="121.2687" x="194.5959" y="462.1326"/><text fill="#000000" font-family="sans-serif" font-size="12" lengthAdjust="spacing" textLength="101.2687" x="204.5959" y="484.9607">Trigger escalation</text><rect fill="#F1F1F1" height="36.3441" rx="12.5" ry="12.5" style="stroke:#181818;stroke-width:0.5;" width="167.769" x="171.3458" y="518.4767"/><text fill="#000000" font-family="sans-serif" font-size="12" lengthAdjust="spacing" textLength="147.769" x="181.3458" y="541.3048">Log breach and escalation</text><polygon fill="#F1F1F1" points="161.1313,560.8208,173.1313,572.8208,161.1313,584.8208,149.1313,572.8208,161.1313,560.8208" style="stroke:#181818;stroke-width:0.5;"/><ellipse cx="161.1313" cy="615.8208" fill="none" rx="11" ry="11" style="stroke:#222222;stroke-width:1;"/><ellipse cx="161.1313" cy="615.8208" fill="#222222" rx="6" ry="6" style="stroke:#222222;stroke-width:1;"/><line style="stroke:#181818;stroke-width:1;" x1="161.1313" x2="161.1313" y1="70.0679" y2="90.0679"/><polygon fill="#181818" points="157.1313,80.0679,161.1313,90.0679,165.1313,80.0679,161.1313,84.0679" style="stroke:#181818;stroke-width:1;"/><line style="stroke:#181818;stroke-width:1;" x1="161.1313" x2="161.1313" y1="126.412" y2="146.412"/><polygon fill="#181818" points="157.1313,136.412,161.1313,146.412,165.1313,136.412,161.1313,140.412" style="stroke:#181818;stroke-width:1;"/><line style="stroke:#181818;stroke-width:1;" x1="161.1313" x2="161.1313" y1="182.7561" y2="202.7561"/><polygon fill="#181818" points="157.1313,192.7561,161.1313,202.7561,165.1313,192.7561,161.1313,196.7561" style="stroke:#181818;stroke-width:1;"/><line style="stroke:#181818;stroke-width:1;" x1="161.1313" x2="161.1313" y1="239.1003" y2="259.1003"/><polygon fill="#181818" points="157.1313,249.1003,161.1313,259.1003,165.1313,249.1003,161.1313,253.1003" style="stroke:#181818;stroke-width:1;"/><line style="stroke:#181818;stroke-width:1;" x1="161.1313" x2="161.1313" y1="295.4444" y2="315.4444"/><polygon fill="#181818" points="157.1313,305.4444,161.1313,315.4444,165.1313,305.4444,161.1313,309.4444" style="stroke:#181818;stroke-width:1;"/><line style="stroke:#181818;stroke-width:1;" x1="67.0323" x2="67.0323" y1="442.1326" y2="462.1326"/><polygon fill="#181818" points="63.0323,452.1326,67.0323,462.1326,71.0323,452.1326,67.0323,456.1326" style="stroke:#181818;stroke-width:1;"/><line style="stroke:#181818;stroke-width:1;" x1="255.2303" x2="255.2303" y1="442.1326" y2="462.1326"/><polygon fill="#181818" points="251.2303,452.1326,255.2303,462.1326,259.2303,452.1326,255.2303,456.1326" style="stroke:#181818;stroke-width:1;"/><line style="stroke:#181818;stroke-width:1;" x1="255.2303" x2="255.2303" y1="498.4767" y2="518.4767"/><polygon fill="#181818" points="251.2303,508.4767,255.2303,518.4767,259.2303,508.4767,255.2303,512.4767" style="stroke:#181818;stroke-width:1;"/><line style="stroke:#181818;stroke-width:1;" x1="77.0323" x2="67.0323" y1="383.7885" y2="383.7885"/><line style="stroke:#181818;stroke-width:1;" x1="67.0323" x2="67.0323" y1="383.7885" y2="405.7885"/><polygon fill="#181818" points="63.0323,395.7885,67.0323,405.7885,71.0323,395.7885,67.0323,399.7885" style="stroke:#181818;stroke-width:1;"/><line style="stroke:#181818;stroke-width:1;" x1="245.2303" x2="255.2303" y1="383.7885" y2="383.7885"/><line style="stroke:#181818;stroke-width:1;" x1="255.2303" x2="255.2303" y1="383.7885" y2="405.7885"/><polygon fill="#181818" points="251.2303,395.7885,255.2303,405.7885,259.2303,395.7885,255.2303,399.7885" style="stroke:#181818;stroke-width:1;"/><line style="stroke:#181818;stroke-width:1;" x1="67.0323" x2="67.0323" y1="498.4767" y2="572.8208"/><line style="stroke:#181818;stroke-width:1;" x1="67.0323" x2="149.1313" y1="572.8208" y2="572.8208"/><polygon fill="#181818" points="139.1313,568.8208,149.1313,572.8208,139.1313,576.8208,143.1313,572.8208" style="stroke:#181818;stroke-width:1;"/><line style="stroke:#181818;stroke-width:1;" x1="255.2303" x2="255.2303" y1="554.8208" y2="572.8208"/><line style="stroke:#181818;stroke-width:1;" x1="255.2303" x2="173.1313" y1="572.8208" y2="572.8208"/><polygon fill="#181818" points="183.1313,568.8208,173.1313,572.8208,183.1313,576.8208,179.1313,572.8208" style="stroke:#181818;stroke-width:1;"/><line style="stroke:#181818;stroke-width:1;" x1="161.1313" x2="161.1313" y1="351.7885" y2="371.7885"/><polygon fill="#181818" points="157.1313,361.7885,161.1313,371.7885,165.1313,361.7885,161.1313,365.7885" style="stroke:#181818;stroke-width:1;"/><line style="stroke:#181818;stroke-width:1;" x1="161.1313" x2="161.1313" y1="584.8208" y2="604.8208"/><polygon fill="#181818" points="157.1313,594.8208,161.1313,604.8208,165.1313,594.8208,161.1313,598.8208" style="stroke:#181818;stroke-width:1;"/><?plantuml-src JP0nRiCm34LtdOAZSmLxA89sJD2XlG0jKJOHXJ94fe1lNyOnt2u4-FdugIzZAmIVO-49ZQl0XJF5DRg8ak1QXQqsbYa4DMmMGdzsLkua1foyScPIUBXY84Hf2Frx8pI2UhYwTbRrDS3eTjv-EPq8Ks5vNSfOoeZnvhCFrgNW2YoWrZWQB2XKDgmkr3PBXOGwZnMRNmoSeOlrlXGoIZ1IheqE_xSJs4m2tKfw2W3z5TiD3dnuIfSw0JuI6z2FXne25INefFujZ9ugpZl_tNYQg05fnB9dt6rUtFRQ_rEInFdvYtNv1G00?></g></svg>