<?plantuml 1.2026.2?><svg xmlns="http://www.w3.org/2000/svg" xmlns:xlink="http://www.w3.org/1999/xlink" contentStyleType="text/css" data-diagram-type="DESCRIPTION" height="691px" preserveAspectRatio="none" style="width:1859px;height:691px;background:#FFFFFF;" version="1.1" viewBox="0 0 1859 691" width="1859px" zoomAndPan="magnify"><title>ITIR / SensibLaw - Container Deployment Bundle</title><defs/><g><g class="title" data-source-line="527"><text fill="#000000" font-family="sans-serif" font-size="14" font-weight="bold" lengthAdjust="spacing" textLength="337.3568" x="753.9083" y="24.9659">ITIR / SensibLaw - Container Deployment Bundle</text></g><!--cluster Local Runtime--><g class="cluster" data-qualified-name="Local Runtime" data-source-line="534" id="ent0004"><rect fill="none" height="188" rx="2.5" ry="2.5" style="stroke:#181818;stroke-width:1;" width="1615.07" x="7" y="447.6079"/><text fill="#000000" font-family="sans-serif" font-size="14" font-weight="bold" lengthAdjust="spacing" textLength="99.6516" x="764.7092" y="464.5739">Local Runtime</text></g><!--entity input--><g class="entity" data-qualified-name="Local Runtime.input" data-source-line="535" id="ent0005"><rect fill="#F1F1F1" height="49.0679" rx="2.5" ry="2.5" style="stroke:#181818;stroke-width:0.5;" width="138.7696" x="23" y="570.0679"/><rect fill="#F1F1F1" height="10" style="stroke:#181818;stroke-width:0.5;" width="15" x="141.7696" y="575.0679"/><rect fill="#F1F1F1" height="2" style="stroke:#181818;stroke-width:0.5;" width="4" x="139.7696" y="577.0679"/><rect fill="#F1F1F1" height="2" style="stroke:#181818;stroke-width:0.5;" width="4" x="139.7696" y="581.0679"/><text fill="#000000" font-family="sans-serif" font-size="14" lengthAdjust="spacing" textLength="98.7696" x="38" y="605.0339">Input Interface</text></g><!--entity mode2--><g class="entity" data-qualified-name="Local Runtime.mode2" data-source-line="536" id="ent0006"><rect fill="#F1F1F1" height="49.0679" rx="2.5" ry="2.5" style="stroke:#181818;stroke-width:0.5;" width="147.4916" x="222.77" y="570.0679"/><rect fill="#F1F1F1" height="10" style="stroke:#181818;stroke-width:0.5;" width="15" x="350.2616" y="575.0679"/><rect fill="#F1F1F1" height="2" style="stroke:#181818;stroke-width:0.5;" width="4" x="348.2616" y="577.0679"/><rect fill="#F1F1F1" height="2" style="stroke:#181818;stroke-width:0.5;" width="4" x="348.2616" y="581.0679"/><text fill="#000000" font-family="sans-serif" font-size="14" lengthAdjust="spacing" textLength="107.4916" x="237.77" y="605.0339">Mode Controller</text></g><!--entity processing2--><g class="entity" data-qualified-name="Local Runtime.processing2" data-source-line="537" id="ent0007"><rect fill="#F1F1F1" height="49.0679" rx="2.5" ry="2.5" style="stroke:#181818;stroke-width:0.5;" width="160.4695" x="431.26" y="486.0679"/><rect fill="#F1F1F1" height="10" style="stroke:#181818;stroke-width:0.5;" width="15" x="571.7295" y="491.0679"/><rect fill="#F1F1F1" height="2" style="stroke:#181818;stroke-width:0.5;" width="4" x="569.7295" y="493.0679"/><rect fill="#F1F1F1" height="2" style="stroke:#181818;stroke-width:0.5;" width="4" x="569.7295" y="497.0679"/><text fill="#000000" font-family="sans-serif" font-size="14" lengthAdjust="spacing" textLength="120.4695" x="446.26" y="521.0339">Processing Engine</text></g><!--entity identity2--><g class="entity" data-qualified-name="Local Runtime.identity2" data-source-line="538" id="ent0008"><rect fill="#F1F1F1" height="49.0679" rx="2.5" ry="2.5" style="stroke:#181818;stroke-width:0.5;" width="139.6096" x="441.69" y="570.0679"/><rect fill="#F1F1F1" height="10" style="stroke:#181818;stroke-width:0.5;" width="15" x="561.2996" y="575.0679"/><rect fill="#F1F1F1" height="2" style="stroke:#181818;stroke-width:0.5;" width="4" x="559.2996" y="577.0679"/><rect fill="#F1F1F1" height="2" style="stroke:#181818;stroke-width:0.5;" width="4" x="559.2996" y="581.0679"/><text fill="#000000" font-family="sans-serif" font-size="14" lengthAdjust="spacing" textLength="99.6096" x="456.69" y="605.0339">Identity Engine</text></g><!--entity graph2--><g class="entity" data-qualified-name="Local Runtime.graph2" data-source-line="539" id="ent0009"><rect fill="#F1F1F1" height="49.0679" rx="2.5" ry="2.5" style="stroke:#181818;stroke-width:0.5;" width="129.9356" x="686.11" y="486.0679"/><rect fill="#F1F1F1" height="10" style="stroke:#181818;stroke-width:0.5;" width="15" x="796.0456" y="491.0679"/><rect fill="#F1F1F1" height="2" style="stroke:#181818;stroke-width:0.5;" width="4" x="794.0456" y="493.0679"/><rect fill="#F1F1F1" height="2" style="stroke:#181818;stroke-width:0.5;" width="4" x="794.0456" y="497.0679"/><text fill="#000000" font-family="sans-serif" font-size="14" lengthAdjust="spacing" textLength="89.9356" x="701.11" y="521.0339">Graph Engine</text></g><!--entity alignment2--><g class="entity" data-qualified-name="Local Runtime.alignment2" data-source-line="540" id="ent0010"><rect fill="#F1F1F1" height="49.0679" rx="2.5" ry="2.5" style="stroke:#181818;stroke-width:0.5;" width="156.9695" x="910.43" y="486.0679"/><rect fill="#F1F1F1" height="10" style="stroke:#181818;stroke-width:0.5;" width="15" x="1047.3995" y="491.0679"/><rect fill="#F1F1F1" height="2" style="stroke:#181818;stroke-width:0.5;" width="4" x="1045.3995" y="493.0679"/><rect fill="#F1F1F1" height="2" style="stroke:#181818;stroke-width:0.5;" width="4" x="1045.3995" y="497.0679"/><text fill="#000000" font-family="sans-serif" font-size="14" lengthAdjust="spacing" textLength="116.9695" x="925.43" y="521.0339">Alignment Engine</text></g><!--entity obligation2--><g class="entity" data-qualified-name="Local Runtime.obligation2" data-source-line="541" id="ent0011"><rect fill="#F1F1F1" height="49.0679" rx="2.5" ry="2.5" style="stroke:#181818;stroke-width:0.5;" width="148.6676" x="1255.5" y="570.0679"/><rect fill="#F1F1F1" height="10" style="stroke:#181818;stroke-width:0.5;" width="15" x="1384.1676" y="575.0679"/><rect fill="#F1F1F1" height="2" style="stroke:#181818;stroke-width:0.5;" width="4" x="1382.1676" y="577.0679"/><rect fill="#F1F1F1" height="2" style="stroke:#181818;stroke-width:0.5;" width="4" x="1382.1676" y="581.0679"/><text fill="#000000" font-family="sans-serif" font-size="14" lengthAdjust="spacing" textLength="108.6676" x="1270.5" y="605.0339">Obligation Layer</text></g><!--entity output2--><g class="entity" data-qualified-name="Local Runtime.output2" data-source-line="542" id="ent0012"><rect fill="#F1F1F1" height="49.0679" rx="2.5" ry="2.5" style="stroke:#181818;stroke-width:0.5;" width="135.8016" x="1470.27" y="570.0679"/><rect fill="#F1F1F1" height="10" style="stroke:#181818;stroke-width:0.5;" width="15" x="1586.0716" y="575.0679"/><rect fill="#F1F1F1" height="2" style="stroke:#181818;stroke-width:0.5;" width="4" x="1584.0716" y="577.0679"/><rect fill="#F1F1F1" height="2" style="stroke:#181818;stroke-width:0.5;" width="4" x="1584.0716" y="581.0679"/><text fill="#000000" font-family="sans-serif" font-size="14" lengthAdjust="spacing" textLength="95.8016" x="1485.27" y="605.0339">Output Engine</text></g><!--entity governance2--><g class="entity" data-qualified-name="Local Runtime.governance2" data-source-line="543" id="ent0013"><rect fill="#F1F1F1" height="49.0679" rx="2.5" ry="2.5" style="stroke:#181818;stroke-width:0.5;" width="158.8735" x="1250.4" y="486.0679"/><rect fill="#F1F1F1" height="10" style="stroke:#181818;stroke-width:0.5;" width="15" x="1389.2735" y="491.0679"/><rect fill="#F1F1F1" height="2" style="stroke:#181818;stroke-width:0.5;" width="4" x="1387.2735" y="493.0679"/><rect fill="#F1F1F1" height="2" style="stroke:#181818;stroke-width:0.5;" width="4" x="1387.2735" y="497.0679"/><text fill="#000000" font-family="sans-serif" font-size="14" lengthAdjust="spacing" textLength="118.8735" x="1265.4" y="521.0339">Governance Layer</text></g><!--entity User--><g class="entity" data-qualified-name="User" data-source-line="531" id="ent0002"><ellipse cx="1755.6289" cy="616.5679" fill="#F1F1F1" rx="8" ry="8" style="stroke:#181818;stroke-width:0.5;"/><path d="M1755.6289,624.5679 L1755.6289,651.5679 M1742.6289,632.5679 L1768.6289,632.5679 M1755.6289,651.5679 L1742.6289,666.5679 M1755.6289,651.5679 L1768.6289,666.5679" fill="none" style="stroke:#181818;stroke-width:0.5;"/><text fill="#000000" font-family="sans-serif" font-size="14" lengthAdjust="spacing" textLength="30.6179" x="1740.32" y="683.0339">User</text></g><!--entity Reviewer--><g class="entity" data-qualified-name="Reviewer" data-source-line="532" id="ent0003"><ellipse cx="988.9129" cy="360.5679" fill="#F1F1F1" rx="8" ry="8" style="stroke:#181818;stroke-width:0.5;"/><path d="M988.9129,368.5679 L988.9129,395.5679 M975.9129,376.5679 L1001.9129,376.5679 M988.9129,395.5679 L975.9129,410.5679 M988.9129,395.5679 L1001.9129,410.5679" fill="none" style="stroke:#181818;stroke-width:0.5;"/><text fill="#000000" font-family="sans-serif" font-size="14" lengthAdjust="spacing" textLength="59.9057" x="958.96" y="427.0339">Reviewer</text></g><!--entity pg--><g class="entity" data-qualified-name="pg" data-source-line="546" id="ent0014"><path d="M1669.07,360.5679 C1669.07,350.5679 1755.6217,350.5679 1755.6217,350.5679 C1755.6217,350.5679 1842.1734,350.5679 1842.1734,360.5679 L1842.1734,388.6358 C1842.1734,398.6358 1755.6217,398.6358 1755.6217,398.6358 C1755.6217,398.6358 1669.07,398.6358 1669.07,388.6358 L1669.07,360.5679" fill="#F1F1F1" style="stroke:#181818;stroke-width:0.5;"/><path d="M1669.07,360.5679 C1669.07,370.5679 1755.6217,370.5679 1755.6217,370.5679 C1755.6217,370.5679 1842.1734,370.5679 1842.1734,360.5679" fill="none" style="stroke:#181818;stroke-width:0.5;"/><text fill="#000000" font-family="sans-serif" font-size="14" lengthAdjust="spacing" textLength="153.1034" x="1679.07" y="389.5339">PostgreSQL Local Store</text></g><!--entity evidence_store--><g class="entity" data-qualified-name="evidence_store" data-source-line="547" id="ent0015"><path d="M655.23,46.0679 L696.23,46.0679 A3.75,3.75 0 0 1 698.73,48.5679 L705.73,67.0679 L846.9273,67.0679 A2.5,2.5 0 0 1 849.4273,69.5679 L849.4273,100.6358 A2.5,2.5 0 0 1 846.9273,103.1358 L655.23,103.1358 A2.5,2.5 0 0 1 652.73,100.6358 L652.73,48.5679 A2.5,2.5 0 0 1 655.23,46.0679" fill="#F1F1F1" style="stroke:#181818;stroke-width:0.5;"/><line style="stroke:#181818;stroke-width:0.5;" x1="652.73" x2="705.73" y1="67.0679" y2="67.0679"/><text fill="#000000" font-family="sans-serif" font-size="14" lengthAdjust="spacing" textLength="166.6973" x="662.73" y="89.0339">Encrypted Evidence Store</text></g><!--link User to input--><g class="link" data-entity-1="ent0002" data-entity-2="ent0005" data-link-type="dependency" data-source-line="549" id="lnk16"><path d="M1740.06,650.4679 C1705.41,657.0379 1615.24,672.6079 1539.17,672.6079 C295.52,672.6079 295.52,672.6079 295.52,672.6079 C235.52,672.6079 177.0147,645.3303 137.5147,622.5003" fill="none" id="User-to-input" style="stroke:#181818;stroke-width:1;"/><polygon fill="#181818" points="132.32,619.4979,138.1105,627.4647,136.649,621.9999,142.1137,620.5384,132.32,619.4979" style="stroke:#181818;stroke-width:1;"/></g><!--link input to mode2--><g class="link" data-entity-1="ent0005" data-entity-2="ent0006" data-link-type="dependency" data-source-line="550" id="lnk17"><path d="M162.1,594.6079 C181.56,594.6079 196.8,594.6079 216.5,594.6079" fill="none" id="input-to-mode2" style="stroke:#181818;stroke-width:1;"/><polygon fill="#181818" points="222.5,594.6079,213.5,590.6079,217.5,594.6079,213.5,598.6079,222.5,594.6079" style="stroke:#181818;stroke-width:1;"/></g><!--link mode2 to processing2--><g class="link" data-entity-1="ent0006" data-entity-2="ent0007" data-link-type="dependency" data-source-line="551" id="lnk18"><path d="M360.84,569.6279 C388.06,558.8879 414.2282,548.5687 441.4682,537.8287" fill="none" id="mode2-to-processing2" style="stroke:#181818;stroke-width:1;"/><polygon fill="#181818" points="447.05,535.6279,437.2101,535.2078,442.3985,537.4619,440.1445,542.6503,447.05,535.6279" style="stroke:#181818;stroke-width:1;"/></g><!--link mode2 to identity2--><g class="link" data-entity-1="ent0006" data-entity-2="ent0008" data-link-type="dependency" data-source-line="552" id="lnk19"><path d="M370.51,594.6079 C393.51,594.6079 412.83,594.6079 435.54,594.6079" fill="none" id="mode2-to-identity2" style="stroke:#181818;stroke-width:1;"/><polygon fill="#181818" points="441.54,594.6079,432.54,590.6079,436.54,594.6079,432.54,598.6079,441.54,594.6079" style="stroke:#181818;stroke-width:1;"/></g><!--link processing2 to graph2--><g class="link" data-entity-1="ent0007" data-entity-2="ent0009" data-link-type="dependency" data-source-line="553" id="lnk20"><path d="M591.94,510.6079 C622.42,510.6079 650.81,510.6079 679.71,510.6079" fill="none" id="processing2-to-graph2" style="stroke:#181818;stroke-width:1;"/><polygon fill="#181818" points="685.71,510.6079,676.71,506.6079,680.71,510.6079,676.71,514.6079,685.71,510.6079" style="stroke:#181818;stroke-width:1;"/></g><!--link identity2 to graph2--><g class="link" data-entity-1="ent0008" data-entity-2="ent0009" data-link-type="dependency" data-source-line="554" id="lnk21"><path d="M581.53,570.1979 C614.42,558.5679 647.8428,546.747 680.1028,535.347" fill="none" id="identity2-to-graph2" style="stroke:#181818;stroke-width:1;"/><polygon fill="#181818" points="685.76,533.3479,675.9415,532.5752,681.0457,535.0139,678.607,540.118,685.76,533.3479" style="stroke:#181818;stroke-width:1;"/></g><!--link graph2 to alignment2--><g class="link" data-entity-1="ent0009" data-entity-2="ent0010" data-link-type="dependency" data-source-line="555" id="lnk22"><path d="M816.52,510.6079 C845.43,510.6079 873.79,510.6079 904.12,510.6079" fill="none" id="graph2-to-alignment2" style="stroke:#181818;stroke-width:1;"/><polygon fill="#181818" points="910.12,510.6079,901.12,506.6079,905.12,510.6079,901.12,514.6079,910.12,510.6079" style="stroke:#181818;stroke-width:1;"/></g><!--link alignment2 to obligation2--><g class="link" data-entity-1="ent0010" data-entity-2="ent0011" data-link-type="dependency" data-source-line="556" id="lnk23"><path d="M1067.67,529.8779 C1124.05,543.8479 1193.9861,561.1848 1249.3961,574.9148" fill="none" id="alignment2-to-obligation2" style="stroke:#181818;stroke-width:1;"/><polygon fill="#181818" points="1255.22,576.3579,1247.4463,570.3107,1250.3668,575.1553,1245.5221,578.0759,1255.22,576.3579" style="stroke:#181818;stroke-width:1;"/></g><!--link obligation2 to output2--><g class="link" data-entity-1="ent0011" data-entity-2="ent0012" data-link-type="dependency" data-source-line="557" id="lnk24"><path d="M1404.45,594.6079 C1425.75,594.6079 1442.88,594.6079 1463.77,594.6079" fill="none" id="obligation2-to-output2" style="stroke:#181818;stroke-width:1;"/><polygon fill="#181818" points="1469.77,594.6079,1460.77,590.6079,1464.77,594.6079,1460.77,598.6079,1469.77,594.6079" style="stroke:#181818;stroke-width:1;"/></g><!--link governance2 to output2--><g class="link" data-entity-1="ent0013" data-entity-2="ent0012" data-link-type="dependency" data-source-line="558" id="lnk25"><path d="M1392.18,535.5779 C1418.56,546.3179 1443.7629,556.5755 1470.1429,567.3155" fill="none" id="governance2-to-output2" style="stroke:#181818;stroke-width:1;"/><polygon fill="#181818" points="1475.7,569.5779,1468.8726,562.4795,1471.0691,567.6925,1465.8561,569.889,1475.7,569.5779" style="stroke:#181818;stroke-width:1;"/></g><!--link processing2 to pg--><g class="link" data-entity-1="ent0007" data-entity-2="ent0014" data-link-type="dependency" data-source-line="560" id="lnk26"><path d="M514.16,485.9879 C519.39,428.2379 540.35,282.7679 621.73,201.6079 C664.53,158.9179 689.63,156.6079 750.08,156.6079 C750.08,156.6079 750.08,156.6079 1539.17,156.6079 C1647.19,156.6079 1716.9413,288.1959 1742.1913,344.9559" fill="none" id="processing2-to-pg" style="stroke:#181818;stroke-width:1;"/><polygon fill="#181818" points="1744.63,350.4379,1744.6266,340.5891,1742.5977,345.8696,1737.3172,343.8407,1744.63,350.4379" style="stroke:#181818;stroke-width:1;"/></g><!--link identity2 to pg--><g class="link" data-entity-1="ent0008" data-entity-2="ent0014" data-link-type="dependency" data-source-line="561" id="lnk27"><path d="M570.11,569.7479 C577.96,564.8079 585.46,559.0979 591.73,552.6079 C703.4,437.0679 589.4,227.6079 750.08,227.6079 C750.08,227.6079 750.08,227.6079 1539.17,227.6079 C1625.21,227.6079 1698.4219,303.925 1732.4119,345.675" fill="none" id="identity2-to-pg" style="stroke:#181818;stroke-width:1;"/><polygon fill="#181818" points="1736.2,350.3279,1733.6198,340.823,1733.0432,346.4504,1727.4158,345.8739,1736.2,350.3279" style="stroke:#181818;stroke-width:1;"/></g><!--link graph2 to pg--><g class="link" data-entity-1="ent0009" data-entity-2="ent0014" data-link-type="dependency" data-source-line="562" id="lnk28"><path d="M764.51,485.8679 C794.57,429.9479 876.98,298.6079 987.91,298.6079 C987.91,298.6079 987.91,298.6079 1539.17,298.6079 C1602.24,298.6079 1664.7669,325.1303 1707.1169,347.3503" fill="none" id="graph2-to-pg" style="stroke:#181818;stroke-width:1;"/><polygon fill="#181818" points="1712.43,350.1379,1706.3188,342.4144,1708.0024,347.8149,1702.6019,349.4985,1712.43,350.1379" style="stroke:#181818;stroke-width:1;"/></g><!--link alignment2 to pg--><g class="link" data-entity-1="ent0010" data-entity-2="ent0014" data-link-type="dependency" data-source-line="563" id="lnk29"><path d="M1067.87,493.5879 C1162.68,473.2279 1327.74,438.8479 1470.27,414.6079 C1536.74,403.2979 1606.4009,393.5477 1662.9309,386.1377" fill="none" id="alignment2-to-pg" style="stroke:#181818;stroke-width:1;"/><polygon fill="#181818" points="1668.88,385.3579,1659.4365,382.5616,1663.9224,386.0078,1660.4762,390.4937,1668.88,385.3579" style="stroke:#181818;stroke-width:1;"/></g><!--link obligation2 to pg--><g class="link" data-entity-1="ent0011" data-entity-2="ent0014" data-link-type="dependency" data-source-line="564" id="lnk30"><path d="M1404.6,571.4279 C1466.9,550.3279 1557.34,516.0179 1630.07,473.6079 C1666.82,452.1779 1699.9659,424.7069 1724.0959,403.0369" fill="none" id="obligation2-to-pg" style="stroke:#181818;stroke-width:1;"/><polygon fill="#181818" points="1728.56,399.0279,1719.1912,402.0653,1724.8399,402.3687,1724.5365,408.0174,1728.56,399.0279" style="stroke:#181818;stroke-width:1;"/></g><!--link output2 to pg--><g class="link" data-entity-1="ent0012" data-entity-2="ent0014" data-link-type="dependency" data-source-line="565" id="lnk31"><path d="M1598.77,569.6379 C1612.85,562.1579 1627.21,553.0979 1639.07,542.6079 C1686.8,500.3879 1721.7978,439.8246 1739.9978,404.4046" fill="none" id="output2-to-pg" style="stroke:#181818;stroke-width:1;"/><polygon fill="#181818" points="1742.74,399.0679,1735.0689,405.2449,1740.4548,403.5152,1742.1845,408.9011,1742.74,399.0679" style="stroke:#181818;stroke-width:1;"/></g><!--link governance2 to pg--><g class="link" data-entity-1="ent0013" data-entity-2="ent0014" data-link-type="dependency" data-source-line="566" id="lnk32"><path d="M1408.56,485.6579 C1485.39,461.0079 1596.467,425.3614 1672.747,400.8814" fill="none" id="governance2-to-pg" style="stroke:#181818;stroke-width:1;"/><polygon fill="#181818" points="1678.46,399.0479,1668.6682,397.9894,1673.6992,400.5758,1671.1128,405.6067,1678.46,399.0479" style="stroke:#181818;stroke-width:1;"/></g><!--link processing2 to evidence_store--><g class="link" data-entity-1="ent0007" data-entity-2="ent0015" data-link-type="dependency" data-source-line="568" id="lnk33"><path d="M512.68,485.9079 C514.46,419.9679 528.07,237.4679 621.73,130.6079 C631.35,119.6379 638.2532,113.6383 651.2332,106.4383" fill="none" id="processing2-to-evidence_store" style="stroke:#181818;stroke-width:1;"/><polygon fill="#181818" points="656.48,103.5279,646.6694,104.3957,652.1076,105.9533,650.55,111.3915,656.48,103.5279" style="stroke:#181818;stroke-width:1;"/></g><!--link output2 to User--><g class="link" data-entity-1="ent0012" data-entity-2="ent0002" data-link-type="dependency" data-source-line="569" id="lnk34"><path d="M1606.46,611.1579 C1653.62,622.7579 1707.0635,635.9055 1734.1135,642.5555" fill="none" id="output2-to-User" style="stroke:#181818;stroke-width:1;"/><polygon fill="#181818" points="1739.94,643.9879,1732.1552,637.955,1735.0846,642.7943,1730.2453,645.7237,1739.94,643.9879" style="stroke:#181818;stroke-width:1;"/></g><!--link Reviewer to governance2--><g class="link" data-entity-1="ent0003" data-entity-2="ent0013" data-link-type="dependency" data-source-line="571" id="lnk35"><path d="M1019.1,401.8479 C1071.69,420.3179 1178.0687,457.6705 1251.9887,483.6205" fill="none" id="Reviewer-to-governance2" style="stroke:#181818;stroke-width:1;"/><polygon fill="#181818" points="1257.65,485.6079,1250.483,478.8526,1252.9323,483.9517,1247.8331,486.401,1257.65,485.6079" style="stroke:#181818;stroke-width:1;"/><text fill="#000000" font-family="sans-serif" font-size="13" lengthAdjust="spacing" textLength="121.9401" x="1098.4" y="425.9949">reviewed items only</text></g><?plantuml-src PPDDJyCm38Rl-HNMxXCIHmv8V4oeqX2mmHbbhPT5IfqgzOOgn7_7IKkNXKkQF7vbkwyJjkmGglTg0rUmHUhjRgs_O0aFdbXRmW2Fs3a_j4WCzqTg72hbSC_07e8r1uR61gpPUb9Ar-m3VFGOfkq6JnQ_vAYYHfEHQekrhxM3pP7OjhY0RmLG-xRp56iiAkgE31KnXhsk9Qvxi95TofvzWwdBu9t3a6IjiEjBsMlmDVQz9GChCl93ITZDj91NZNmi3xdOJgoGFWNT7NATYQ0GtJbhA7cN2VKVBCGlEmdew2IizJ3zavzXgJvoD2hBwnCfs_Gd3AIfnYofcU6r-b6gqQntkfVHlFgUJS3jsnh6AMrbYfDdHkszQ-H6B5PKXw5ZR61rYkv8xhCE9_JPHwHKl0smNDvEGqnhEe_JIciwvqCvqxFxMJn59hzdGGx7JoAPs-TjYkJMPlinDdcPENN1_tKZzbns8Y3hGav5TI5bqOZ6_7E6ehoWVvKBm_CCwIMglqSu6fHbl84mXXgmZAtS87B3Bm00?></g></svg>