<?plantuml 1.2026.2?><svg xmlns="http://www.w3.org/2000/svg" xmlns:xlink="http://www.w3.org/1999/xlink" contentStyleType="text/css" data-diagram-type="DESCRIPTION" height="501px" preserveAspectRatio="none" style="width:902px;height:501px;background:#FFFFFF;" version="1.1" viewBox="0 0 902 501" width="902px" zoomAndPan="magnify"><title>Tenancy Case Library</title><defs/><g><g class="title" data-source-line="245"><text fill="#000000" font-family="sans-serif" font-size="14" font-weight="bold" lengthAdjust="spacing" textLength="148.0354" x="369.9823" y="24.9659">Tenancy Case Library</text></g><!--cluster Inputs--><g class="cluster" data-qualified-name="Inputs" data-source-line="247" id="ent0002"><path d="M36.5,46.6699 L83.0978,46.6699 A3.75,3.75 0 0 1 85.5978,49.1699 L92.5978,71.7378 L497.5,71.7378 A2.5,2.5 0 0 1 500,74.2378 L500,256.2999 A2.5,2.5 0 0 1 497.5,258.7999 L36.5,258.7999 A2.5,2.5 0 0 1 34,256.2999 L34,49.1699 A2.5,2.5 0 0 1 36.5,46.6699" fill="none" style="stroke:#000000;stroke-width:1.5;"/><line style="stroke:#000000;stroke-width:1.5;" x1="34" x2="92.5978" y1="71.7378" y2="71.7378"/><text fill="#000000" font-family="sans-serif" font-size="14" font-weight="bold" lengthAdjust="spacing" textLength="45.5978" x="38" y="63.6358">Inputs</text></g><!--cluster Rules--><g class="cluster" data-qualified-name="Rules" data-source-line="255" id="ent0008"><path d="M526.5,46.6699 L565.3418,46.6699 A3.75,3.75 0 0 1 567.8418,49.1699 L574.8418,71.7378 L892.5,71.7378 A2.5,2.5 0 0 1 895,74.2378 L895,256.2999 A2.5,2.5 0 0 1 892.5,258.7999 L526.5,258.7999 A2.5,2.5 0 0 1 524,256.2999 L524,49.1699 A2.5,2.5 0 0 1 526.5,46.6699" fill="none" style="stroke:#000000;stroke-width:1.5;"/><line style="stroke:#000000;stroke-width:1.5;" x1="524" x2="574.8418" y1="71.7378" y2="71.7378"/><text fill="#000000" font-family="sans-serif" font-size="14" font-weight="bold" lengthAdjust="spacing" textLength="37.8418" x="528" y="63.6358">Rules</text></g><!--cluster Identity / Trust--><g class="cluster" data-qualified-name="Identity . Trust" data-source-line="262" id="ent0013"><path d="M8.5,282.7999 L115.2136,282.7999 A3.75,3.75 0 0 1 117.7136,285.2999 L124.7136,307.8678 L436.5,307.8678 A2.5,2.5 0 0 1 439,310.3678 L439,492.4399 A2.5,2.5 0 0 1 436.5,494.9399 L8.5,494.9399 A2.5,2.5 0 0 1 6,492.4399 L6,285.2999 A2.5,2.5 0 0 1 8.5,282.7999" fill="none" style="stroke:#000000;stroke-width:1.5;"/><line style="stroke:#000000;stroke-width:1.5;" x1="6" x2="124.7136" y1="307.8678" y2="307.8678"/><text fill="#000000" font-family="sans-serif" font-size="14" font-weight="bold" lengthAdjust="spacing" textLength="105.7136" x="10" y="299.7658">Identity / Trust</text></g><!--cluster Outputs--><g class="cluster" data-qualified-name="Outputs" data-source-line="269" id="ent0018"><path d="M465.5,282.7999 L523.8018,282.7999 A3.75,3.75 0 0 1 526.3018,285.2999 L533.3018,307.8678 L797.5,307.8678 A2.5,2.5 0 0 1 800,310.3678 L800,492.4399 A2.5,2.5 0 0 1 797.5,494.9399 L465.5,494.9399 A2.5,2.5 0 0 1 463,492.4399 L463,285.2999 A2.5,2.5 0 0 1 465.5,282.7999" fill="none" style="stroke:#000000;stroke-width:1.5;"/><line style="stroke:#000000;stroke-width:1.5;" x1="463" x2="533.3018" y1="307.8678" y2="307.8678"/><text fill="#000000" font-family="sans-serif" font-size="14" font-weight="bold" lengthAdjust="spacing" textLength="57.3018" x="467" y="299.7658">Outputs</text></g><!--entity Lease / Status--><g class="entity" data-qualified-name="Inputs.Lease . Status" data-source-line="248" id="ent0003"><rect fill="#F1F1F1" height="49.0679" rx="2.5" ry="2.5" style="stroke:#181818;stroke-width:0.5;" width="131.1817" x="50.41" y="84.6699"/><rect fill="#F1F1F1" height="10" style="stroke:#181818;stroke-width:0.5;" width="15" x="161.5917" y="89.6699"/><rect fill="#F1F1F1" height="2" style="stroke:#181818;stroke-width:0.5;" width="4" x="159.5917" y="91.6699"/><rect fill="#F1F1F1" height="2" style="stroke:#181818;stroke-width:0.5;" width="4" x="159.5917" y="95.6699"/><text fill="#000000" font-family="sans-serif" font-size="14" lengthAdjust="spacing" textLength="91.1817" x="65.41" y="119.6358">Lease / Status</text></g><!--entity Entry Notices--><g class="entity" data-qualified-name="Inputs.Entry Notices" data-source-line="249" id="ent0004"><rect fill="#F1F1F1" height="49.0679" rx="2.5" ry="2.5" style="stroke:#181818;stroke-width:0.5;" width="127.1497" x="216.43" y="84.6699"/><rect fill="#F1F1F1" height="10" style="stroke:#181818;stroke-width:0.5;" width="15" x="323.5797" y="89.6699"/><rect fill="#F1F1F1" height="2" style="stroke:#181818;stroke-width:0.5;" width="4" x="321.5797" y="91.6699"/><rect fill="#F1F1F1" height="2" style="stroke:#181818;stroke-width:0.5;" width="4" x="321.5797" y="95.6699"/><text fill="#000000" font-family="sans-serif" font-size="14" lengthAdjust="spacing" textLength="87.1497" x="231.43" y="119.6358">Entry Notices</text></g><!--entity Messages--><g class="entity" data-qualified-name="Inputs.Messages" data-source-line="250" id="ent0005"><rect fill="#F1F1F1" height="49.0679" rx="2.5" ry="2.5" style="stroke:#181818;stroke-width:0.5;" width="105.0718" x="378.46" y="84.6699"/><rect fill="#F1F1F1" height="10" style="stroke:#181818;stroke-width:0.5;" width="15" x="463.5318" y="89.6699"/><rect fill="#F1F1F1" height="2" style="stroke:#181818;stroke-width:0.5;" width="4" x="461.5318" y="91.6699"/><rect fill="#F1F1F1" height="2" style="stroke:#181818;stroke-width:0.5;" width="4" x="461.5318" y="95.6699"/><text fill="#000000" font-family="sans-serif" font-size="14" lengthAdjust="spacing" textLength="65.0718" x="393.46" y="119.6358">Messages</text></g><!--entity Photos / Audio--><g class="entity" data-qualified-name="Inputs.Photos . Audio" data-source-line="251" id="ent0006"><rect fill="#F1F1F1" height="49.0679" rx="2.5" ry="2.5" style="stroke:#181818;stroke-width:0.5;" width="136.5996" x="49.7" y="193.7399"/><rect fill="#F1F1F1" height="10" style="stroke:#181818;stroke-width:0.5;" width="15" x="166.2996" y="198.7399"/><rect fill="#F1F1F1" height="2" style="stroke:#181818;stroke-width:0.5;" width="4" x="164.2996" y="200.7399"/><rect fill="#F1F1F1" height="2" style="stroke:#181818;stroke-width:0.5;" width="4" x="164.2996" y="204.7399"/><text fill="#000000" font-family="sans-serif" font-size="14" lengthAdjust="spacing" textLength="96.5996" x="64.7" y="228.7058">Photos / Audio</text></g><!--entity Maintenance Evidence--><g class="entity" data-qualified-name="Inputs.Maintenance Evidence" data-source-line="252" id="ent0007"><rect fill="#F1F1F1" height="49.0679" rx="2.5" ry="2.5" style="stroke:#181818;stroke-width:0.5;" width="187.4614" x="221.27" y="193.7399"/><rect fill="#F1F1F1" height="10" style="stroke:#181818;stroke-width:0.5;" width="15" x="388.7314" y="198.7399"/><rect fill="#F1F1F1" height="2" style="stroke:#181818;stroke-width:0.5;" width="4" x="386.7314" y="200.7399"/><rect fill="#F1F1F1" height="2" style="stroke:#181818;stroke-width:0.5;" width="4" x="386.7314" y="204.7399"/><text fill="#000000" font-family="sans-serif" font-size="14" lengthAdjust="spacing" textLength="147.4614" x="236.27" y="228.7058">Maintenance Evidence</text></g><!--entity Notice Rules--><g class="entity" data-qualified-name="Rules.Notice Rules" data-source-line="256" id="ent0009"><rect fill="#F1F1F1" height="49.0679" rx="2.5" ry="2.5" style="stroke:#181818;stroke-width:0.5;" width="121.6057" x="544.2" y="84.6699"/><rect fill="#F1F1F1" height="10" style="stroke:#181818;stroke-width:0.5;" width="15" x="645.8057" y="89.6699"/><rect fill="#F1F1F1" height="2" style="stroke:#181818;stroke-width:0.5;" width="4" x="643.8057" y="91.6699"/><rect fill="#F1F1F1" height="2" style="stroke:#181818;stroke-width:0.5;" width="4" x="643.8057" y="95.6699"/><text fill="#000000" font-family="sans-serif" font-size="14" lengthAdjust="spacing" textLength="81.6057" x="559.2" y="119.6358">Notice Rules</text></g><!--entity Repair / Safety--><g class="entity" data-qualified-name="Rules.Repair . Safety" data-source-line="257" id="ent0010"><rect fill="#F1F1F1" height="49.0679" rx="2.5" ry="2.5" style="stroke:#181818;stroke-width:0.5;" width="135.3956" x="701.3" y="84.6699"/><rect fill="#F1F1F1" height="10" style="stroke:#181818;stroke-width:0.5;" width="15" x="816.6956" y="89.6699"/><rect fill="#F1F1F1" height="2" style="stroke:#181818;stroke-width:0.5;" width="4" x="814.6956" y="91.6699"/><rect fill="#F1F1F1" height="2" style="stroke:#181818;stroke-width:0.5;" width="4" x="814.6956" y="95.6699"/><text fill="#000000" font-family="sans-serif" font-size="14" lengthAdjust="spacing" textLength="95.3956" x="716.3" y="119.6358">Repair / Safety</text></g><!--entity Bond / Eviction--><g class="entity" data-qualified-name="Rules.Bond . Eviction" data-source-line="258" id="ent0011"><rect fill="#F1F1F1" height="49.0679" rx="2.5" ry="2.5" style="stroke:#181818;stroke-width:0.5;" width="138.3356" x="539.83" y="193.7399"/><rect fill="#F1F1F1" height="10" style="stroke:#181818;stroke-width:0.5;" width="15" x="658.1656" y="198.7399"/><rect fill="#F1F1F1" height="2" style="stroke:#181818;stroke-width:0.5;" width="4" x="656.1656" y="200.7399"/><rect fill="#F1F1F1" height="2" style="stroke:#181818;stroke-width:0.5;" width="4" x="656.1656" y="204.7399"/><text fill="#000000" font-family="sans-serif" font-size="14" lengthAdjust="spacing" textLength="98.3356" x="554.83" y="228.7058">Bond / Eviction</text></g><!--entity Tribunal Procedure--><g class="entity" data-qualified-name="Rules.Tribunal Procedure" data-source-line="259" id="ent0012"><rect fill="#F1F1F1" height="49.0679" rx="2.5" ry="2.5" style="stroke:#181818;stroke-width:0.5;" width="166.4755" x="712.76" y="193.7399"/><rect fill="#F1F1F1" height="10" style="stroke:#181818;stroke-width:0.5;" width="15" x="859.2355" y="198.7399"/><rect fill="#F1F1F1" height="2" style="stroke:#181818;stroke-width:0.5;" width="4" x="857.2355" y="200.7399"/><rect fill="#F1F1F1" height="2" style="stroke:#181818;stroke-width:0.5;" width="4" x="857.2355" y="204.7399"/><text fill="#000000" font-family="sans-serif" font-size="14" lengthAdjust="spacing" textLength="126.4755" x="727.76" y="228.7058">Tribunal Procedure</text></g><!--entity Fear / Freeze--><g class="entity" data-qualified-name="Identity . Trust.Fear . Freeze" data-source-line="263" id="ent0014"><rect fill="#F1F1F1" height="49.0679" rx="2.5" ry="2.5" style="stroke:#181818;stroke-width:0.5;" width="124.6017" x="55.7" y="320.7999"/><rect fill="#F1F1F1" height="10" style="stroke:#181818;stroke-width:0.5;" width="15" x="160.3017" y="325.7999"/><rect fill="#F1F1F1" height="2" style="stroke:#181818;stroke-width:0.5;" width="4" x="158.3017" y="327.7999"/><rect fill="#F1F1F1" height="2" style="stroke:#181818;stroke-width:0.5;" width="4" x="158.3017" y="331.7999"/><text fill="#000000" font-family="sans-serif" font-size="14" lengthAdjust="spacing" textLength="84.6017" x="70.7" y="355.7658">Fear / Freeze</text></g><!--entity Power Imbalance--><g class="entity" data-qualified-name="Identity . Trust.Power Imbalance" data-source-line="264" id="ent0015"><rect fill="#F1F1F1" height="49.0679" rx="2.5" ry="2.5" style="stroke:#181818;stroke-width:0.5;" width="154.2956" x="250.85" y="320.7999"/><rect fill="#F1F1F1" height="10" style="stroke:#181818;stroke-width:0.5;" width="15" x="385.1456" y="325.7999"/><rect fill="#F1F1F1" height="2" style="stroke:#181818;stroke-width:0.5;" width="4" x="383.1456" y="327.7999"/><rect fill="#F1F1F1" height="2" style="stroke:#181818;stroke-width:0.5;" width="4" x="383.1456" y="331.7999"/><text fill="#000000" font-family="sans-serif" font-size="14" lengthAdjust="spacing" textLength="114.2956" x="265.85" y="355.7658">Power Imbalance</text></g><!--entity Delay to Respond--><g class="entity" data-qualified-name="Identity . Trust.Delay to Respond" data-source-line="265" id="ent0016"><rect fill="#F1F1F1" height="49.0679" rx="2.5" ry="2.5" style="stroke:#181818;stroke-width:0.5;" width="155.1776" x="22.41" y="429.8699"/><rect fill="#F1F1F1" height="10" style="stroke:#181818;stroke-width:0.5;" width="15" x="157.5876" y="434.8699"/><rect fill="#F1F1F1" height="2" style="stroke:#181818;stroke-width:0.5;" width="4" x="155.5876" y="436.8699"/><rect fill="#F1F1F1" height="2" style="stroke:#181818;stroke-width:0.5;" width="4" x="155.5876" y="440.8699"/><text fill="#000000" font-family="sans-serif" font-size="14" lengthAdjust="spacing" textLength="115.1776" x="37.41" y="464.8358">Delay to Respond</text></g><!--entity Defensive Documentation--><g class="entity" data-qualified-name="Identity . Trust.Defensive Documentation" data-source-line="266" id="ent0017"><rect fill="#F1F1F1" height="49.0679" rx="2.5" ry="2.5" style="stroke:#181818;stroke-width:0.5;" width="210.8413" x="212.58" y="429.8699"/><rect fill="#F1F1F1" height="10" style="stroke:#181818;stroke-width:0.5;" width="15" x="403.4213" y="434.8699"/><rect fill="#F1F1F1" height="2" style="stroke:#181818;stroke-width:0.5;" width="4" x="401.4213" y="436.8699"/><rect fill="#F1F1F1" height="2" style="stroke:#181818;stroke-width:0.5;" width="4" x="401.4213" y="440.8699"/><text fill="#000000" font-family="sans-serif" font-size="14" lengthAdjust="spacing" textLength="170.8413" x="227.58" y="464.8358">Defensive Documentation</text></g><!--entity Timeline--><g class="entity" data-qualified-name="Outputs.Timeline" data-source-line="270" id="ent0019"><rect fill="#F1F1F1" height="49.0679" rx="2.5" ry="2.5" style="stroke:#181818;stroke-width:0.5;" width="96.1538" x="485.92" y="320.7999"/><rect fill="#F1F1F1" height="10" style="stroke:#181818;stroke-width:0.5;" width="15" x="562.0738" y="325.7999"/><rect fill="#F1F1F1" height="2" style="stroke:#181818;stroke-width:0.5;" width="4" x="560.0738" y="327.7999"/><rect fill="#F1F1F1" height="2" style="stroke:#181818;stroke-width:0.5;" width="4" x="560.0738" y="331.7999"/><text fill="#000000" font-family="sans-serif" font-size="14" lengthAdjust="spacing" textLength="56.1538" x="500.92" y="355.7658">Timeline</text></g><!--entity Compliance Check--><g class="entity" data-qualified-name="Outputs.Compliance Check" data-source-line="271" id="ent0020"><rect fill="#F1F1F1" height="49.0679" rx="2.5" ry="2.5" style="stroke:#181818;stroke-width:0.5;" width="160.5955" x="616.7" y="320.7999"/><rect fill="#F1F1F1" height="10" style="stroke:#181818;stroke-width:0.5;" width="15" x="757.2955" y="325.7999"/><rect fill="#F1F1F1" height="2" style="stroke:#181818;stroke-width:0.5;" width="4" x="755.2955" y="327.7999"/><rect fill="#F1F1F1" height="2" style="stroke:#181818;stroke-width:0.5;" width="4" x="755.2955" y="331.7999"/><text fill="#000000" font-family="sans-serif" font-size="14" lengthAdjust="spacing" textLength="120.5955" x="631.7" y="355.7658">Compliance Check</text></g><!--entity Safety Register--><g class="entity" data-qualified-name="Outputs.Safety Register" data-source-line="272" id="ent0021"><rect fill="#F1F1F1" height="49.0679" rx="2.5" ry="2.5" style="stroke:#181818;stroke-width:0.5;" width="138.3496" x="478.83" y="429.8699"/><rect fill="#F1F1F1" height="10" style="stroke:#181818;stroke-width:0.5;" width="15" x="597.1796" y="434.8699"/><rect fill="#F1F1F1" height="2" style="stroke:#181818;stroke-width:0.5;" width="4" x="595.1796" y="436.8699"/><rect fill="#F1F1F1" height="2" style="stroke:#181818;stroke-width:0.5;" width="4" x="595.1796" y="440.8699"/><text fill="#000000" font-family="sans-serif" font-size="14" lengthAdjust="spacing" textLength="98.3496" x="493.83" y="464.8358">Safety Register</text></g><!--entity Action Ladder--><g class="entity" data-qualified-name="Outputs.Action Ladder" data-source-line="273" id="ent0022"><rect fill="#F1F1F1" height="49.0679" rx="2.5" ry="2.5" style="stroke:#181818;stroke-width:0.5;" width="131.1817" x="652.41" y="429.8699"/><rect fill="#F1F1F1" height="10" style="stroke:#181818;stroke-width:0.5;" width="15" x="763.5917" y="434.8699"/><rect fill="#F1F1F1" height="2" style="stroke:#181818;stroke-width:0.5;" width="4" x="761.5917" y="436.8699"/><rect fill="#F1F1F1" height="2" style="stroke:#181818;stroke-width:0.5;" width="4" x="761.5917" y="440.8699"/><text fill="#000000" font-family="sans-serif" font-size="14" lengthAdjust="spacing" textLength="91.1817" x="667.41" y="464.8358">Action Ladder</text></g><?plantuml-src RP5RRi8m44N_iufHDj0rK1uI4cqHpGO6-mAZ9dPaZwdIYhtNINx0zC-QOy-SkLRH5jJ0iJC3BJc2Td8C78QgwjbyyHbKRrsVDDRqMn4Pt_NUmIdLEupNN-XJMLEi7-7QQHZetQiObEmDCUR6PNb_yUfZRhX8LdpvXiNff0bQNyKY7-hgTcTvI2sU9MS3ck4ZEg1d2UC2V88E1NtrpcQMPnaLxmhQ13acnotjWpUmAHGosooeeaFkq8GKzSbh0nv7RmBmWp88_ur0s-x8BKzhFj0LMXv8FHqGSyq-uHDSb2jevKtgSerd_tkzZwJ_VcaZ7LfnvSXbFhOoPR-ym7mLUCul-vmbAa915rD-j6DhHtRx0m00?></g></svg>